<svg width="768" height="125" viewBox="0 0 768 125" fill="none" xmlns="http://www.w3.org/2000/svg">
<g clip-path="url(#clip0_1036_1387)">
<g clip-path="url(#clip1_1036_1387)">
<mask id="mask0_1036_1387" style="mask-type:luminance" maskUnits="userSpaceOnUse" x="0" y="0" width="768" height="149">
<path d="M768 0H0V149H768V0Z" fill="white"/>
</mask>
<g mask="url(#mask0_1036_1387)">
<mask id="mask1_1036_1387" style="mask-type:luminance" maskUnits="userSpaceOnUse" x="0" y="0" width="768" height="149">
<path d="M0 12.2466C0 5.483 4.38953 0 9.80425 0H758.196C763.61 0 768 5.483 768 12.2466V149H0V12.2466Z" fill="white"/>
</mask>
<g mask="url(#mask1_1036_1387)">
<path d="M0 12.2466C0 5.483 4.38953 0 9.80425 0H758.196C763.61 0 768 5.483 768 12.2466V149H0V12.2466Z" fill="#075D70"/>
<path d="M818.655 -19.3904H727.966C721.648 -19.3904 716.527 -12.9936 716.527 -5.10271V58.1713C716.527 66.0621 721.648 72.4589 727.966 72.4589H818.655C824.971 72.4589 830.093 66.0621 830.093 58.1713V-5.10271C830.093 -12.9936 824.971 -19.3904 818.655 -19.3904Z" fill="white" fill-opacity="0.4"/>
<path d="M657.702 -65.3151H567.013C560.695 -65.3151 555.574 -58.9183 555.574 -51.0274V12.2466C555.574 20.1375 560.695 26.5342 567.013 26.5342H657.702C664.019 26.5342 669.14 20.1375 669.14 12.2466V-51.0274C669.14 -58.9183 664.019 -65.3151 657.702 -65.3151Z" fill="white" fill-opacity="0.52"/>
<path d="M735.319 53.0685H697.736C692.321 53.0685 687.932 58.5515 687.932 65.3151V86.7466C687.932 93.5101 692.321 98.9931 697.736 98.9931H735.319C740.733 98.9931 745.123 93.5101 745.123 86.7466V65.3151C745.123 58.5515 740.733 53.0685 735.319 53.0685Z" fill="white" fill-opacity="0.2"/>
</g>
</g>
</g>
</g>
<defs>
<clipPath id="clip0_1036_1387">
<rect width="768" height="125" fill="white"/>
</clipPath>
<clipPath id="clip1_1036_1387">
<rect width="768" height="149" fill="white"/>
</clipPath>
</defs>
</svg>
