<svg width="64" height="64" viewBox="0 0 64 64" fill="none" xmlns="http://www.w3.org/2000/svg">
<rect x="0.5" y="0.5" width="63" height="63" rx="31.5" fill="#FAD9C7" fill-opacity="0.2"/>
<rect x="0.5" y="0.5" width="63" height="63" rx="31.5" stroke="#E2E7EC"/>
<g clip-path="url(#clip0_1036_1745)">
<g clip-path="url(#clip1_1036_1745)">
<path d="M38.668 18.6667L46.168 27" stroke="#FEAAAA" stroke-width="1.25"/>
<path d="M28.668 27L36.168 35.3334" stroke="#FEAAAA" stroke-width="1.25"/>
<path d="M20.334 35.3334L27.0007 42.8334" stroke="#FEAAAA" stroke-width="1.25"/>
<path d="M16.2852 38.5404C20.0315 32.2966 24.4021 34.7941 27.0557 36.0429C34.642 39.6081 36.7899 35.6995 37.202 33.2331C37.8264 29.4869 35.3287 26.9894 36.5776 22.6187C37.6202 18.966 41.454 18.4291 41.454 18.4291" stroke="#01202B" stroke-width="1.25" stroke-linecap="round" stroke-linejoin="round"/>
<path d="M22.5879 46.1074C29.456 43.8035 27.9513 39.0331 27.3019 36.1923C25.4288 28.0753 29.6995 26.8265 32.1784 26.9576C35.9247 27.1513 37.8415 30.0795 42.3495 29.8173C46.0959 29.58 47.4508 25.9774 47.4508 25.9774" stroke="#01202B" stroke-width="1.25" stroke-linecap="round" stroke-linejoin="round"/>
<path d="M18.668 35.3334L26.168 43.6668" stroke="#01202B" stroke-width="1.25"/>
<path d="M28.668 28.6666L35.3346 36.1666" stroke="#01202B" stroke-width="1.25"/>
<path d="M38.668 20.3334L45.3346 27.8334" stroke="#01202B" stroke-width="1.25"/>
<path d="M41.1285 47H22.2595L20.75 44L23.769 39L27.5429 40L35.75 37.625C35.75 37.625 40.3737 43 41.1285 44C41.8832 45 42.638 47 41.1285 47Z" fill="#C1A1FF"/>
<path d="M24.5 38.734C25.4649 39.312 28.1184 40.1212 31.0131 38.734C34.6316 37 36.8026 37 38.25 37" stroke="#01202B" stroke-width="1.25" stroke-linecap="round" stroke-linejoin="round"/>
<path d="M32 23.25H35.1509C35.5086 23.25 35.8264 23.4789 35.9395 23.8184L35.9725 23.9175C36.2302 24.6906 36.1702 25.5345 35.8057 26.2635C35.7689 26.3374 35.7203 26.4048 35.6619 26.4631L34.8661 27.2589C34.6318 27.4932 34.5 27.8112 34.5 28.1427V31.5274C34.5 31.8319 34.6113 32.126 34.8128 32.3544L42.9565 41.584C43.5484 42.2549 43.875 43.1186 43.875 44.0132V44.3108C43.875 44.8416 43.7179 45.3607 43.4234 45.8025C42.9246 46.5506 42.0849 47 41.1858 47H32" stroke="#01202B" stroke-width="1.25"/>
<path d="M32.625 23.25H29.4741C29.1164 23.25 28.7986 23.4789 28.6855 23.8184L28.6525 23.9175C28.3947 24.6906 28.4548 25.5345 28.8193 26.2635C28.8561 26.3374 28.9048 26.4048 28.9631 26.4631L29.7589 27.2589C29.9932 27.4932 30.125 27.8112 30.125 28.1427V31.5274C30.125 31.8319 30.0137 32.126 29.8122 32.3544L21.6685 41.584C21.0766 42.2549 20.75 43.1186 20.75 44.0132V44.3108C20.75 44.8416 20.9072 45.3607 21.2017 45.8025C21.7004 46.5506 22.5401 47 23.4392 47H32.625" stroke="#01202B" stroke-width="1.25"/>
<path d="M30.6582 15.3337C29.5352 17.5796 31.7811 16.4567 30.6582 18.7026" stroke="#01202B" stroke-width="1.25" stroke-linecap="round" stroke-linejoin="round"/>
<path d="M33.9901 13.6669C32.8673 15.9127 35.1131 14.7898 33.9901 17.0357" stroke="#01202B" stroke-width="1.25" stroke-linecap="round" stroke-linejoin="round"/>
<path d="M46.375 41.375L21.375 19.5L16.375 24.5L41.375 47L46.375 41.375Z" fill="#68F9C5"/>
<path d="M27.8043 21.328L25.5234 23.9064" stroke="#01202B" stroke-width="1.25" stroke-linecap="round" stroke-linejoin="round"/>
<path d="M31.6716 24.749L30.5312 26.0382" stroke="#01202B" stroke-width="1.25" stroke-linecap="round" stroke-linejoin="round"/>
<path d="M35.5387 28.17L33.2578 30.7485" stroke="#01202B" stroke-width="1.25" stroke-linecap="round" stroke-linejoin="round"/>
<path d="M39.406 31.5911L38.2656 32.8803" stroke="#01202B" stroke-width="1.25" stroke-linecap="round" stroke-linejoin="round"/>
<path d="M43.2731 35.0128L40.9922 37.5911" stroke="#01202B" stroke-width="1.25" stroke-linecap="round" stroke-linejoin="round"/>
<path d="M47.4398 37.9894L24.6368 17.8184C23.8612 17.1323 22.6762 17.2048 21.9901 17.9805L17.3201 23.2599C16.634 24.0355 16.7066 25.2204 17.4822 25.9065L40.2852 46.0775C41.0608 46.7636 42.2458 46.691 42.9319 45.9154L47.6019 40.636C48.288 39.8604 48.2154 38.6755 47.4398 37.9894Z" stroke="#01202B" stroke-width="1.25"/>
<path d="M31.3467 39.9991H39.8726C40.8794 39.9978 42.1055 40.1466 42.8169 39.4404C43.5282 38.7341 43.6666 37.2306 43.6666 36.2326V27.3683C43.6666 26.3708 43.267 25.4141 42.5554 24.7088C41.8439 24.0033 40.8789 23.6071 39.8726 23.6071H21.931C20.9294 23.614 18.0195 23.7358 17.3137 24.4404C16.608 25.145 17.3135 23.725 17.3135 24.718L18.1636 36.2326C17.3135 36.2326 18.2605 37.2166 18.4509 37.6736C18.6412 38.1305 18.9206 38.5458 19.273 38.8956C19.6253 39.2454 20.0438 39.523 20.5045 39.7123C20.9651 39.9016 21.4589 39.9991 21.9576 39.9991H23.439C23.6516 39.9993 23.8608 40.0525 24.0471 40.1541C24.2334 40.2556 24.3908 40.4023 24.5047 40.5803L27.313 44.9806C27.3764 45.0783 27.4654 45.1569 27.5704 45.2081C27.6755 45.2594 27.7926 45.2813 27.9092 45.2715C28.026 45.2616 28.1377 45.2206 28.2326 45.1526C28.3275 45.0846 28.402 44.9924 28.448 44.8856L30.2064 40.7599C30.3021 40.5374 30.4607 40.3473 30.6631 40.2123C30.8654 40.0773 31.1029 40.0033 31.3467 39.9991Z" fill="#FEAAAA"/>
<path d="M32.606 39.4271H42.2365C43.3736 39.4255 44.4636 38.9726 45.2671 38.168C46.0708 37.3634 46.522 36.2727 46.522 35.1355V25.0356C46.522 23.899 46.0705 22.8089 45.2669 22.0052C44.4631 21.2015 43.373 20.75 42.2365 20.75H21.9703C20.8389 20.7579 19.7566 21.213 18.9594 22.0158C18.1622 22.8186 17.7148 23.9042 17.7148 25.0356V35.1355C17.7141 35.6989 17.8243 36.2567 18.0393 36.7774C18.2543 37.298 18.5699 37.7713 18.9679 38.1698C19.366 38.5684 19.8387 38.8846 20.359 39.1004C20.8793 39.3161 21.4371 39.4271 22.0004 39.4271H23.6737C23.9139 39.4272 24.1501 39.488 24.3606 39.6038C24.571 39.7195 24.7489 39.8865 24.8775 40.0892L28.0495 45.1031C28.1211 45.2143 28.2218 45.3039 28.3404 45.3623C28.459 45.4206 28.5914 45.4455 28.7231 45.4344C28.855 45.4232 28.9813 45.3765 29.0884 45.299C29.1956 45.2215 29.2796 45.1164 29.3316 44.9947L31.3179 40.2939C31.426 40.0405 31.6051 39.8238 31.8338 39.6699C32.0623 39.5161 32.3305 39.4317 32.606 39.4271Z" stroke="#01202B" stroke-width="1.25" stroke-miterlimit="10" stroke-linecap="round"/>
<path d="M32.6729 34.4583C32.666 34.6851 32.5724 34.9016 32.4101 35.0666C32.261 35.2021 32.0628 35.2764 31.8575 35.2738C31.69 35.272 31.5265 35.2249 31.3858 35.1379C31.2249 35.0398 31.0981 34.8978 31.0218 34.7301C30.9688 34.2481 30.8809 33.7701 30.759 33.2998C30.6345 32.8138 30.4838 32.3341 30.3075 31.863C29.5931 31.863 28.8855 31.863 28.1711 31.863C27.4568 31.863 26.7356 31.863 26.0078 31.863H25.9741C25.8394 32.3161 25.7113 32.7561 25.5968 33.1574C25.4821 33.5586 25.3676 34.0246 25.2598 34.5036C25.1971 34.7049 25.0755 34.8846 24.9093 35.0214C24.7741 35.1276 24.6055 35.1869 24.4308 35.1896C24.3133 35.1895 24.1971 35.1653 24.0901 35.1183C23.9832 35.0714 23.8879 35.003 23.8108 34.9178C23.7226 34.8224 23.6614 34.7068 23.633 34.5821C23.6047 34.4575 23.6102 34.3279 23.6491 34.2059C24.0132 32.6736 24.4631 31.1613 24.9969 29.6755C25.5279 28.1641 26.186 26.6966 26.9648 25.2876C27.014 25.1703 27.0949 25.0676 27.1991 24.9903C27.3034 24.9129 27.4271 24.8636 27.5579 24.8475C27.6956 24.7964 27.8458 24.7844 27.9904 24.8131C28.135 24.8418 28.2679 24.9099 28.3733 25.0093C28.6609 25.2809 28.9268 25.573 29.1685 25.883C29.4111 26.2066 29.6335 26.5303 29.8424 26.8796C30.0514 27.2291 30.2468 27.5658 30.4288 27.9151L30.887 28.9895C30.9881 29.1966 31.096 29.4231 31.2105 29.682C31.3251 29.9409 31.4329 30.1933 31.534 30.4393H32.3494C32.5528 30.4906 32.7356 30.5988 32.8751 30.7499C32.9819 30.8663 33.0418 31.0155 33.0436 31.1705C33.0395 31.3328 32.9721 31.4875 32.8549 31.6041C32.7014 31.7566 32.5003 31.8566 32.282 31.8889H32.0799C32.3565 32.7268 32.555 33.5866 32.6729 34.4583ZM28.744 28.3424L28.3329 27.6304C28.1914 27.391 28.0498 27.1774 27.915 26.9833C27.6388 27.5399 27.3894 28.1029 27.1603 28.6724C26.9311 29.2419 26.6953 29.8374 26.4863 30.4586H28.1441C28.6698 30.4586 29.2224 30.4586 29.802 30.4586C29.6673 30.148 29.5258 29.8439 29.3774 29.5655C29.2291 29.2873 29.0809 28.983 28.9394 28.6659L28.744 28.3424Z" fill="#01202B"/>
<path d="M40.3314 34.27C40.3903 34.4153 40.4029 34.5768 40.3676 34.7303C40.3335 34.8698 40.2599 34.9948 40.1568 35.0883C40.039 35.1809 39.8991 35.2363 39.753 35.2481C39.5731 35.2583 39.3941 35.2163 39.2349 35.1266C39.1566 35.0371 39.0783 34.954 39 34.8581C38.9298 34.7759 38.8653 34.6883 38.8071 34.596C38.5041 34.8521 38.1559 35.0411 37.7829 35.1523C37.4429 35.2338 37.0953 35.2745 36.7466 35.2738C36.4774 35.2734 36.2089 35.2434 35.9454 35.1843C35.6659 35.1133 35.4006 34.9899 35.1621 34.8198C34.8039 34.5645 34.5201 34.208 34.3428 33.7905C34.1791 33.3868 34.097 32.9513 34.1018 32.5119C34.0981 32.0776 34.1613 31.6458 34.2885 31.2331C34.4129 30.832 34.5893 30.4511 34.8128 30.1015C35.036 29.7588 35.2946 29.4435 35.5839 29.1618C35.871 28.8745 36.1838 28.6175 36.5178 28.3945C36.6129 28.3384 36.7115 28.2893 36.813 28.2475C36.9375 28.1964 37.082 28.1453 37.2468 28.0941C37.4113 28.0474 37.5783 28.0111 37.7468 27.9854C37.9123 27.958 38.0794 27.9431 38.2469 27.9406C38.532 27.9385 38.816 27.9795 39.0904 28.0621C39.2175 28.1088 39.3328 28.1863 39.4268 28.2884C39.5209 28.3904 39.5914 28.5144 39.6325 28.6503V29.4559C39.6325 29.6733 39.6325 29.8523 39.6325 29.9993C39.6325 30.1463 39.6325 30.2678 39.6325 30.3636V30.6323C39.6325 31.0094 39.6325 31.3994 39.6325 31.8021C39.6325 32.205 39.6868 32.6014 39.741 32.9914C39.769 33.1369 39.8179 33.277 39.8856 33.4069C39.9528 33.5583 40.0314 33.7036 40.1206 33.8416L40.2953 34.1358C40.3375 34.1996 40.3495 34.2508 40.3314 34.27ZM38.277 33.1256C38.1953 32.7409 38.1449 32.3495 38.1264 31.9556C38.1264 31.5529 38.1264 31.1565 38.1264 30.76C38.1264 30.4788 38.1264 30.223 38.1264 29.9993C38.1264 29.7755 38.1264 29.5518 38.1264 29.3599C37.9466 29.3825 37.7704 29.4299 37.6023 29.5006L37.2286 29.6668C36.9531 29.7963 36.7035 29.9808 36.4936 30.2103C36.2786 30.4461 36.0961 30.713 35.9514 31.003C35.8134 31.2908 35.7101 31.5958 35.6441 31.9109C35.5871 32.2169 35.5871 32.5319 35.6441 32.8379C35.6655 33.0544 35.7474 33.2593 35.8791 33.426C36.0009 33.579 36.1531 33.7014 36.3249 33.7841C36.5004 33.8629 36.6888 33.9043 36.8793 33.9055C37.0838 33.91 37.2874 33.8776 37.4818 33.8096C37.7614 33.6015 38.0271 33.3729 38.277 33.1256Z" fill="#01202B"/>
<path d="M31.7958 39.0225H40.588C41.6263 39.0211 42.8907 39.1757 43.6243 38.4424C44.3579 37.709 44.5007 36.1476 44.5007 35.1111V25.9059C44.5007 24.87 44.0884 23.8765 43.3547 23.144C42.6209 22.4115 41.6258 22 40.588 22H22.0857C21.0528 22.0072 18.9786 21.8932 18.2508 22.6249C17.5229 23.3566 17.6256 24.0937 17.6256 25.1249L17.6257 34.4999C16.7491 34.4999 18.3006 36.133 18.4969 36.6076C18.6932 37.0821 18.9813 37.5134 19.3446 37.8766C19.708 38.2399 20.1396 38.5281 20.6146 38.7247C21.0897 38.9214 21.5989 39.0225 22.1132 39.0225H23.6409C23.8601 39.0226 24.0758 39.078 24.2679 39.1835C24.4601 39.289 24.6224 39.4411 24.7399 39.626L27.6359 44.1956C27.7013 44.297 27.793 44.3786 27.9014 44.4319C28.0097 44.4851 28.1305 44.5079 28.2508 44.4976C28.3712 44.4875 28.4864 44.4449 28.5843 44.3742C28.6822 44.3036 28.7589 44.2077 28.8063 44.097L30.6198 39.8125C30.7184 39.5815 30.882 39.384 31.0907 39.2439C31.2994 39.1036 31.5443 39.0267 31.7958 39.0225Z" fill="#68F9C5"/>
<path d="M32.606 39.0701H42.2365C43.3736 39.0685 44.4636 38.6156 45.2671 37.811C46.0708 37.0062 46.522 35.9156 46.522 34.7785V24.6785C46.522 23.5419 46.0705 22.4519 45.2669 21.6482C44.4631 20.8445 43.373 20.3929 42.2365 20.3929H21.9703C20.8389 20.4009 19.7566 20.8559 18.9594 21.6587C18.1622 22.4616 17.7148 23.5471 17.7148 24.6785V34.7785C17.7141 35.3417 17.8243 35.8997 18.0393 36.4204C18.2543 36.941 18.5699 37.4141 18.9679 37.8127C19.366 38.2114 19.8387 38.5275 20.359 38.7432C20.8793 38.959 21.4371 39.0701 22.0004 39.0701H23.6737C23.9139 39.0701 24.1501 39.1309 24.3606 39.2466C24.571 39.3624 24.7489 39.5294 24.8775 39.7321L28.0495 44.746C28.1211 44.8572 28.2218 44.9467 28.3404 45.0051C28.459 45.0635 28.5914 45.0885 28.7231 45.0774C28.855 45.0662 28.9813 45.0194 29.0884 44.942C29.1956 44.8645 29.2796 44.7594 29.3316 44.6377L31.3179 39.9369C31.426 39.6834 31.6051 39.4666 31.8338 39.3129C32.0623 39.159 32.3305 39.0747 32.606 39.0701Z" stroke="#01202B" stroke-width="1.25" stroke-miterlimit="10" stroke-linecap="round"/>
<path d="M36.2028 26.6874C36.2028 26.7819 36.2661 26.8765 36.2944 26.9642C36.5229 27.6465 36.6856 28.3474 36.7806 29.0581C36.8745 29.7119 36.9263 30.3705 36.9356 31.0304C36.9356 31.5572 36.9356 32.0909 36.9004 32.6176C36.8944 32.9179 36.8349 33.2149 36.7243 33.4957C36.5953 33.7876 36.3633 34.0266 36.0689 34.1711C35.9628 34.223 35.8434 34.2447 35.7249 34.234C35.6064 34.2232 35.4934 34.1804 35.3994 34.1104C35.2511 34.0296 35.1384 33.9 35.0823 33.7456C35.0354 33.5992 35.0234 33.4446 35.047 33.2931C35.0964 32.773 35.1598 32.2529 35.195 31.7329C35.195 31.3209 35.195 30.9021 35.195 30.4832C35.195 30.382 35.195 30.2739 35.195 30.1726C35.1983 30.1586 35.198 30.1441 35.1945 30.1301C35.191 30.1162 35.1843 30.1032 35.1748 30.0922C35.1653 30.0811 35.1533 30.0722 35.1398 30.0664C35.1261 30.0604 35.1113 30.0575 35.0964 30.0577C34.7549 29.9921 34.4084 29.9537 34.0604 29.943C33.849 29.943 33.6376 29.943 33.4261 29.943C33.2148 29.943 32.8201 29.943 32.5171 29.997C32.2141 30.051 31.9181 30.0915 31.6151 30.1389H31.5728L31.6291 30.2064C31.9896 30.564 32.2596 30.9961 32.4185 31.4694C32.6303 32.1111 32.5721 32.8067 32.2564 33.4079C31.9911 33.9137 31.55 34.3151 31.009 34.5426C30.581 34.7425 30.1169 34.8617 29.6419 34.8939C28.7854 34.9724 27.9219 34.8495 27.1261 34.5359C26.5779 34.3512 26.0913 34.0295 25.7166 33.6037C25.5559 33.3879 25.4388 33.1451 25.3714 32.8879C25.3253 32.7697 25.3195 32.6406 25.355 32.5192C25.3905 32.3979 25.4653 32.2904 25.5686 32.2124C25.6603 32.127 25.777 32.0707 25.9031 32.0515C26.0294 32.0321 26.1586 32.0506 26.2734 32.1044C26.4978 32.2157 26.7121 32.3445 26.9146 32.4894C27.5384 32.922 28.2651 33.1984 29.0288 33.2931C29.3873 33.3506 29.7543 33.3367 30.107 33.2526C30.4385 33.1635 30.7351 32.9825 30.9598 32.7325C31.0525 32.6289 31.1124 32.5019 31.1324 32.3666C31.1524 32.2314 31.1316 32.0935 31.0725 31.9692C30.9805 31.7312 30.834 31.516 30.6438 31.3395C30.4535 31.163 30.2243 31.0296 29.9731 30.9494C29.6671 30.8566 29.3495 30.8044 29.0288 30.794C28.7893 30.794 28.5496 30.794 28.3241 30.74C28.253 30.7312 28.1845 30.7089 28.1226 30.674C28.0609 30.6392 28.0071 30.5927 27.9646 30.5374C27.8366 30.4072 27.7558 30.241 27.7343 30.0632C27.7126 29.8856 27.7514 29.706 27.8449 29.5512C27.9396 29.383 28.0949 29.2534 28.2818 29.1865C28.6265 29.0705 28.9483 28.8991 29.2331 28.6799C29.4755 28.5002 29.671 28.269 29.804 28.0045C29.9104 27.7941 29.9635 27.5627 29.959 27.329C29.9615 27.1444 29.9134 26.9622 29.8194 26.8011C29.7254 26.6399 29.5889 26.5051 29.4234 26.4105C29.2071 26.3017 28.9604 26.2615 28.7188 26.2956C28.2398 26.3321 27.7854 26.5144 27.422 26.8157C27.0979 27.0607 26.8231 27.3606 26.6116 27.7005C26.5529 27.8212 26.4631 27.9259 26.3509 28.0045C26.2523 28.0624 26.1389 28.093 26.0233 28.093C25.9075 28.093 25.7941 28.0624 25.6955 28.0045C25.5985 27.94 25.5188 27.8542 25.463 27.7545C25.3856 27.6081 25.3705 27.4386 25.4206 27.2817C25.5589 26.8256 25.8104 26.4085 26.1536 26.066C26.5789 25.61 27.124 25.2717 27.7321 25.0866C28.1525 24.939 28.6028 24.8866 29.0478 24.9335C29.4928 24.9804 29.9204 25.1252 30.2973 25.3567C30.7705 25.6539 31.1236 26.0971 31.298 26.6131C31.5191 27.2452 31.4991 27.9321 31.2416 28.5515V28.6596C32.4713 28.4257 33.7319 28.3802 34.9765 28.5245C34.9765 28.5245 34.9765 28.4772 34.9765 28.457C34.8356 27.9639 34.6946 27.4776 34.5608 26.9845C34.5608 26.9305 34.5114 26.9372 34.4691 26.944L33.6799 27.0589C33.4863 27.086 33.2908 27.0996 33.095 27.0994C32.908 27.0945 32.7265 27.0376 32.5726 26.9356C32.4188 26.8337 32.2991 26.6911 32.2281 26.5252C32.149 26.3792 32.1246 26.2116 32.1594 26.0505C32.194 25.8894 32.2855 25.7445 32.4185 25.6405C32.5664 25.5559 32.725 25.49 32.8906 25.4446C33.2561 25.3234 33.6308 25.2285 34.0111 25.1609C34.5845 25.0695 35.1636 25.0154 35.7446 24.9987C36.516 24.9737 37.2881 25.0235 38.049 25.1474L38.2816 25.2014C38.3516 25.2255 38.4149 25.265 38.4663 25.3165C38.5176 25.3681 38.5558 25.4305 38.5776 25.4986C38.6491 25.6425 38.6778 25.8026 38.6604 25.9611C38.643 26.1196 38.5801 26.2705 38.4789 26.3969C38.3904 26.5032 38.2778 26.5889 38.1495 26.6474C38.0214 26.7059 37.881 26.7357 37.739 26.7346C37.2523 26.7425 36.7654 26.7267 36.2803 26.6874H36.2028Z" fill="#01202B"/>
<path d="M36.1666 44.5H29.5L31.9262 40.0276C32.0135 39.8684 32.1441 39.735 32.3039 39.6421C32.4637 39.5491 32.6468 39.5 32.8334 39.5C33.0199 39.5 33.203 39.5491 33.3628 39.6421C33.5226 39.735 33.6531 39.8684 33.7404 40.0276L36.1666 44.5Z" fill="#A3C2FF"/>
<path d="M32.3701 20.4974L33.4221 20.8652C33.688 20.9582 33.8912 21.1955 33.987 21.5251C34.0827 21.8547 34.0632 22.2494 33.9327 22.6225L30.8909 31.3234L27.834 30.2546L30.8759 21.5538C31.0062 21.1807 31.237 20.8598 31.5172 20.6617C31.7975 20.4636 32.1042 20.4045 32.3701 20.4974Z" fill="#A3C2FF"/>
<path d="M36.8004 44.0649H28.4004L31.4575 38.2291C31.5674 38.0214 31.7319 37.8475 31.9333 37.7261C32.1346 37.6049 32.3653 37.5407 32.6004 37.5407C32.8355 37.5407 33.0661 37.6049 33.2675 37.7261C33.4689 37.8475 33.6334 38.0214 33.7433 38.2291L36.8004 44.0649Z" stroke="#01202B" stroke-width="1.25"/>
<path d="M32.5996 25.1653C41.2854 26.5939 43.5781 35.9724 35.9067 41.151" stroke="#01202B" stroke-width="1.25"/>
<path d="M31.4225 20.0233L32.9935 20.5726C33.3905 20.7113 33.7161 21.0022 33.8987 21.381C34.0812 21.7599 34.1058 22.1957 33.9671 22.5927L31.143 30.6705C30.9152 31.3221 30.2022 31.6658 29.5505 31.4379L27.3456 30.667C26.694 30.4393 26.3503 29.7263 26.5782 29.0746L29.4023 20.9969C29.5411 20.5999 29.8318 20.2743 30.2107 20.0917C30.5896 19.9091 31.0255 19.8845 31.4225 20.0233Z" stroke="#01202B" stroke-width="1.25"/>
<path d="M29.5005 41.1666L24.5469 41.1504" stroke="#01202B" stroke-width="1.25" stroke-miterlimit="10" stroke-linecap="round"/>
<path d="M21.166 44.5H43.666" stroke="#01202B" stroke-width="1.25" stroke-linecap="round"/>
<path d="M31.3416 46.3868C29.586 46.3424 27.7862 46.3804 28.1031 44.0481C28.496 41.1898 28.2931 39.6053 27.3679 38.5913C25.5426 36.5949 24.2053 35.473 23.4258 33.7186C23.4658 31.4521 23.6247 29.3134 25.2552 27.7386C26.8859 26.1639 29.0751 25.3013 31.3416 25.3403C33.6037 25.3029 35.7885 26.1638 37.4172 27.7341C39.0459 29.3046 40.0306 30.8666 40.0306 33.7186C40.0306 36.5706 38.5097 37.3744 36.6781 39.3708C35.7527 40.3849 35.512 41.9694 35.8986 44.8276C36.2155 47.1789 33.1479 46.4628 31.3416 46.3868Z" fill="#FFE29C"/>
<path d="M32.1406 46.9166C30.3851 46.8724 27.85 45.8203 28.1669 43.488C28.5599 40.6296 27.6789 39.1086 26.7536 38.0946C24.9284 36.0983 23.4453 34.0638 23.4453 31.2118C23.4853 28.9454 24.4238 26.7875 26.0544 25.2128C27.685 23.638 29.8741 22.7753 32.1406 22.8143C34.4029 22.777 36.5876 23.6379 38.2162 25.2083C39.845 26.7788 40.7847 28.9308 40.8297 31.1928C40.8297 34.0448 39.353 36.0791 37.5214 38.0755C36.5961 39.0896 35.7215 40.6106 36.1081 43.469C36.425 45.8203 33.9469 46.9928 32.1406 46.9166Z" stroke="#01202B" stroke-width="1.25"/>
<path d="M28.2402 41.8085L36.023 41.7135" stroke="#01202B" stroke-width="1.25"/>
<path d="M32.0316 15.9844L32 19.5145" stroke="#01202B" stroke-width="1.25" stroke-linecap="round"/>
<path d="M21.0859 20.6617L23.8703 22.7921" stroke="#01202B" stroke-width="1.25" stroke-linecap="round"/>
<path d="M31.4808 37.8116L33.5597 33.1343L30.4414 32.5496L33.5597 28.457" stroke="#01202B" stroke-width="1.25" stroke-linecap="round" stroke-linejoin="round"/>
<path d="M30.5366 35.9205C37.5982 39.9975 44.0385 42.063 44.9212 40.5339C45.8041 39.0048 40.7952 34.4601 33.7336 30.3831C26.672 26.306 20.2318 24.2406 19.3489 25.7696C18.4661 27.2988 23.475 31.8435 30.5366 35.9205Z" fill="#CDDEFF"/>
<path d="M32.0742 46.5284C34.5477 46.5284 36.5527 39.9183 36.5527 31.7643C36.5527 23.6102 34.5477 17 32.0742 17C29.6008 17 27.5957 23.6102 27.5957 31.7643C27.5957 39.9183 29.6008 46.5284 32.0742 46.5284Z" stroke="#01202B" stroke-width="1.25"/>
<path d="M34.3063 35.6416C41.3678 31.5646 46.0899 26.5231 44.8531 24.381C43.6164 22.239 36.8893 23.8076 29.8276 27.8846C22.766 31.9616 18.044 37.0031 19.2807 39.1452C20.5175 41.2872 27.2446 39.7186 34.3063 35.6416Z" stroke="#01202B" stroke-width="1.25"/>
<path d="M44.8531 39.1451C46.0899 37.003 41.3678 31.9615 34.3063 27.8845C27.2446 23.8075 20.5175 22.2389 19.2807 24.381C18.044 26.523 22.766 31.5645 29.8276 35.6415C36.8893 39.7185 43.6164 41.2871 44.8531 39.1451Z" stroke="#01202B" stroke-width="1.25"/>
<path d="M32.4166 39.5C37.4792 39.5 41.5834 35.0229 41.5834 29.5C41.5834 23.9771 37.4792 19.5 32.4166 19.5C27.354 19.5 23.25 23.9771 23.25 29.5C23.25 35.0229 27.354 39.5 32.4166 39.5Z" fill="#A3C2FF"/>
<path d="M44.0939 39.0924C42.007 41.0701 39.3705 42.37 36.531 42.8211C32.78 43.4254 28.9425 42.5158 25.8618 40.2923C22.7809 38.0688 20.7088 34.7133 20.1007 30.9629C19.7094 28.5493 19.9422 26.0756 20.7771 23.7774C21.612 21.4792 23.0211 19.4328 24.8704 17.8331" stroke="#01202B" stroke-width="1.25" stroke-miterlimit="10" stroke-linecap="round"/>
<path d="M34.3555 43.0065V46.2806" stroke="#01202B" stroke-width="1.25" stroke-miterlimit="10" stroke-linecap="round"/>
<path d="M37.7464 47.0275H30.9629" stroke="#01202B" stroke-width="1.25" stroke-miterlimit="10" stroke-linecap="round"/>
<path d="M34.2011 38.5479C39.724 38.5479 44.2011 34.0708 44.2011 28.5479C44.2011 23.025 39.724 18.5479 34.2011 18.5479C28.6784 18.5479 24.2012 23.025 24.2012 28.5479C24.2012 34.0708 28.6784 38.5479 34.2011 38.5479Z" stroke="#01202B" stroke-width="1.25" stroke-miterlimit="10" stroke-linecap="round"/>
<path d="M35.8684 19.381C34.7572 21.881 33.035 27.2144 35.035 28.5476C37.535 30.2144 41.7015 24.381 43.3681 25.2144" stroke="#01202B" stroke-width="1.25" stroke-linecap="round" stroke-linejoin="round"/>
<path d="M25.0352 29.381C26.1463 29.9365 28.2019 31.381 27.5352 32.7144C26.8685 34.0476 27.2574 35.4921 27.5352 36.0476" stroke="#01202B" stroke-width="1.25" stroke-linecap="round" stroke-linejoin="round"/>
<path d="M37.0299 27.1166C37.0299 27.1166 29.7978 31.938 31.4049 42.3844" stroke="#01202B" stroke-width="1.25" stroke-linecap="round"/>
<path d="M20.75 44.0755L27.989 42.6739C29.0171 42.4946 30.1959 42.3997 31.3974 42.3997C32.599 42.3997 33.7776 42.4946 34.8058 42.6739L43.25 44.2747" stroke="#01202B" stroke-width="1.25" stroke-linecap="round"/>
<path d="M31.9453 34.3655L34.6212 33.8513" stroke="#01202B" stroke-width="1.25" stroke-linecap="round"/>
<path d="M31.9453 28.8928L33.1347 31.3436" stroke="#01202B" stroke-width="1.25"/>
<path d="M31.0401 27.9266C31.0401 27.9266 30.2998 21.3958 25.4609 21.8719C25.4609 21.8719 26.2012 28.4026 31.0401 27.9266Z" fill="#68F9C5"/>
<path d="M42.8269 34.1487C42.8269 34.1487 39.5512 29.7136 35.375 34.0279C35.375 34.0279 38.6508 38.463 42.8269 34.1487Z" fill="#68F9C5"/>
<path d="M31.7764 28.6196C31.7764 28.6196 33.9059 21.9821 26.4165 20.8812C26.4165 20.8812 24.2872 27.5188 31.7764 28.6196Z" stroke="#01202B" stroke-width="1.25"/>
<path d="M43.8696 32.8719C43.8696 32.8719 39.0884 27.8012 34.5 33.8281C34.5 33.8281 39.2813 38.8986 43.8696 32.8719Z" stroke="#01202B" stroke-width="1.25"/>
<path d="M40.8549 21.6526H37.3652C37.02 21.6526 36.7402 21.9324 36.7402 22.2776V42.0692H41.4799V22.2776C41.4799 21.9324 41.2 21.6526 40.8549 21.6526Z" fill="#C1A1FF"/>
<path d="M31.3763 28.458H27.8867C27.5415 28.458 27.2617 28.7379 27.2617 29.083V42.0691H32.0013V29.083C32.0013 28.7379 31.7215 28.458 31.3763 28.458Z" fill="#C1A1FF"/>
<path d="M21.8961 33.5623H19.9863C19.6412 33.5623 19.3613 33.842 19.3613 34.1873V42.0691H22.5211V34.1873C22.5211 33.842 22.2412 33.5623 21.8961 33.5623Z" fill="#C1A1FF"/>
<path d="M23.9245 33.3192H19.7578C19.4126 33.3192 19.1328 33.5991 19.1328 33.9442V41.3401H24.5495V33.9442C24.5495 33.5991 24.2697 33.3192 23.9245 33.3192Z" stroke="#01202B" stroke-width="1.25" stroke-miterlimit="10" stroke-linecap="round"/>
<path d="M33.4023 28.9446H28.5586C28.2133 28.9446 27.9336 29.2245 27.9336 29.5696V41.3405H34.0273V29.5696C34.0273 29.2245 33.7475 28.9446 33.4023 28.9446Z" stroke="#01202B" stroke-width="1.25" stroke-miterlimit="10" stroke-linecap="round"/>
<path d="M42.8828 21.6526H38.0391C37.6938 21.6526 37.4141 21.9324 37.4141 22.2776V41.34H43.5078V22.2776C43.5078 21.9324 43.2279 21.6526 42.8828 21.6526Z" stroke="#01202B" stroke-width="1.25" stroke-miterlimit="10" stroke-linecap="round"/>
<path d="M48.25 44.5H15.75V18.25" stroke="#01202B" stroke-width="1.25" stroke-miterlimit="10" stroke-linecap="round"/>
<path d="M45.3326 40.6968C45.3326 40.6968 37.094 38.9855 31.9994 41.583C26.1769 39.065 18.666 40.6418 18.666 40.6418V25.1425C18.666 25.1425 27.3996 24.2807 31.5409 27.1349C35.8421 23.9263 45.3326 25.1425 45.3326 25.1425V40.6968Z" fill="#68F9C5"/>
<path d="M45.3326 38.9416C45.3326 38.9416 37.094 37.0593 31.9994 39.9165C26.1769 37.1466 18.666 38.8811 18.666 38.8811V21.8319C18.666 21.8319 27.8581 20.9435 31.9994 24.0831C36.3006 20.5536 45.3326 21.8319 45.3326 21.8319V38.9416Z" stroke="#01202B" stroke-width="1.25" stroke-miterlimit="10" stroke-linecap="round"/>
<path d="M45.3326 42.2749C45.3326 42.2749 37.094 40.3925 31.9994 43.2498C26.1769 40.4799 18.666 42.2144 18.666 42.2144" stroke="#01202B" stroke-width="1.25" stroke-miterlimit="10" stroke-linecap="round"/>
<path d="M32.5967 39.9991H41.1226C42.1294 39.9978 43.3555 40.1466 44.0669 39.4404C44.7782 38.7341 44.9166 37.2306 44.9166 36.2326V27.3683C44.9166 26.3708 44.517 25.4141 43.8054 24.7088C43.0939 24.0033 42.1289 23.6071 41.1226 23.6071H23.181C22.1794 23.614 19.2695 23.7358 18.5637 24.4404C17.858 25.145 18.5635 23.725 18.5635 24.718L18.5637 35.2738C17.7136 35.2738 19.5105 37.2166 19.7009 37.6736C19.8912 38.1305 20.1706 38.5458 20.523 38.8956C20.8753 39.2454 21.2938 39.523 21.7545 39.7123C22.2152 39.9016 22.7089 39.9991 23.2076 39.9991H24.689C24.9016 39.9993 25.1107 40.0525 25.2971 40.1541C25.4834 40.2556 25.6407 40.4023 25.7547 40.5803L28.563 44.9806C28.6264 45.0783 28.7154 45.1569 28.8204 45.2081C28.9255 45.2594 29.0426 45.2813 29.1592 45.2715C29.276 45.2616 29.3877 45.2206 29.4826 45.1526C29.5775 45.0846 29.652 44.9923 29.698 44.8856L31.4564 40.7599C31.5521 40.5374 31.7107 40.3473 31.9131 40.2123C32.1154 40.0773 32.3529 40.0033 32.5967 39.9991Z" fill="#FEAAAA"/>
<path d="M35.6396 29.135C35.6364 29.1612 35.6364 29.1877 35.6396 29.2141C35.5458 29.7497 35.4695 30.2855 35.3991 30.8272C35.3523 31.1742 35.2701 31.5212 35.1998 31.8621C35.1391 32.133 35.0506 32.3962 34.9358 32.6475C34.758 33.0309 34.5223 33.3822 34.2376 33.6885C33.7778 34.1572 33.2196 34.5094 32.6069 34.7172C32.1401 34.8982 31.6565 35.0287 31.1639 35.1069C30.8765 35.1555 30.5773 35.1981 30.3016 35.2225C30.0259 35.2469 29.715 35.2651 29.4451 35.2712C29.1754 35.2772 28.8586 35.2712 28.5535 35.2712C28.1284 35.251 27.705 35.2001 27.2865 35.119C26.9224 35.051 26.5636 34.9554 26.213 34.8329C25.5204 34.603 24.8826 34.2232 24.3418 33.7189C23.9038 33.3062 23.5781 32.7815 23.3974 32.197C23.2929 31.8525 23.2434 31.4927 23.2507 31.1316C23.2593 30.769 23.3126 30.4089 23.4091 30.0602C23.5096 29.6902 23.6493 29.333 23.8256 28.9949C24.2114 28.2546 24.7701 27.6267 25.4505 27.1686C25.5548 27.1019 25.6625 27.0409 25.7731 26.986C25.89 26.9192 26.0243 26.8921 26.1568 26.9085C26.2893 26.9249 26.4136 26.984 26.5121 27.0774C26.6209 27.1556 26.6981 27.2726 26.7293 27.4061C26.7469 27.4949 26.7471 27.5864 26.73 27.6752C26.7129 27.7642 26.6788 27.8486 26.6295 27.9235C26.5404 28.0486 26.4381 28.163 26.3245 28.2644L25.7731 28.794C25.5335 29.0474 25.3265 29.3317 25.1571 29.6402C25.0255 29.8617 24.9248 30.1015 24.858 30.3525C24.8115 30.5009 24.7801 30.6539 24.7641 30.809C24.7466 30.983 24.7466 31.1585 24.7641 31.3325C24.8208 31.8332 25.0258 32.3032 25.3508 32.6779C25.4986 32.8631 25.6851 33.011 25.8963 33.1101L26.2483 33.2806C26.3186 33.311 26.389 33.3232 26.4535 33.3475L27.046 33.4997C27.2571 33.5484 27.4684 33.5971 27.6795 33.6336C27.9786 33.6885 28.2661 33.731 28.5829 33.7676C28.943 33.8102 29.306 33.8225 29.6681 33.8041C30.3389 33.7927 31.0055 33.6904 31.6508 33.4997C31.8524 33.4401 32.0486 33.3627 32.2374 33.2684C32.5766 33.0966 32.8766 32.8517 33.1173 32.5501C33.2845 32.3406 33.4138 32.1014 33.4985 31.8439C33.5983 31.57 33.6921 31.29 33.7684 31.0039C33.8446 30.7177 33.8975 30.3951 33.9561 30.1332L34.2553 28.5931C34.2905 28.4287 34.3256 28.2705 34.355 28.1122C34.4254 27.7591 34.4781 27.4 34.5544 27.0469C34.6308 26.6939 34.7011 26.4381 34.7833 26.1216C34.8458 25.9239 34.9368 25.7371 35.053 25.5676C35.1059 25.4914 35.1733 25.4272 35.251 25.3791C35.3286 25.331 35.415 25.2997 35.5048 25.2876C35.655 25.2586 35.8101 25.276 35.9509 25.3376C36.0916 25.3994 36.2119 25.5026 36.2966 25.6346C36.3641 25.7462 36.4025 25.8742 36.4081 26.0059C36.4315 26.1939 36.4315 26.3841 36.4081 26.5721C36.3729 26.7851 36.3319 26.9921 36.3025 27.1809C36.2909 27.3206 36.2909 27.4611 36.3025 27.6009C36.305 27.745 36.343 27.8861 36.4128 28.0107C36.4826 28.1354 36.5819 28.2395 36.7014 28.3131C36.8063 28.3905 36.9234 28.4481 37.0475 28.4836C37.1823 28.5182 37.323 28.5199 37.4584 28.4881C37.5939 28.4564 37.7203 28.3924 37.8276 28.3009C38.0005 28.1564 38.1424 27.976 38.2441 27.7714C38.3186 27.6226 38.3814 27.4679 38.4319 27.3086C38.4711 27.1816 38.5425 27.0679 38.6384 26.979C38.7343 26.8901 38.8514 26.8295 38.9774 26.8034C39.0659 26.7835 39.1574 26.7841 39.2456 26.8051C39.3339 26.8262 39.4165 26.8671 39.4878 26.9251C39.5556 26.9682 39.6153 27.0239 39.6638 27.0895C39.7063 27.1597 39.7398 27.2355 39.7634 27.3147C39.8221 27.4912 39.8631 27.6739 39.9218 27.8505C39.9998 28.1441 40.1714 28.4016 40.4086 28.581C40.4588 28.6181 40.5143 28.6469 40.5729 28.6662C40.8343 28.7659 41.1211 28.7659 41.3824 28.6662C41.5193 28.614 41.635 28.5154 41.7109 28.3861C41.8265 28.2231 41.9011 28.0327 41.928 27.8322C41.9673 27.5227 41.9473 27.2084 41.8693 26.9069C41.8049 26.7101 41.7654 26.5055 41.752 26.2981C41.7403 26.1685 41.7403 26.0381 41.752 25.9085C41.7761 25.8032 41.827 25.7066 41.8991 25.6285C41.9714 25.5504 42.0623 25.4936 42.1626 25.4641C42.2633 25.4275 42.3729 25.4275 42.4735 25.4641C42.5666 25.5157 42.6534 25.5791 42.7316 25.6529C42.8498 25.7817 42.9364 25.9384 42.9839 26.1094C43.15 26.5226 43.2395 26.9645 43.2478 27.4121C43.2606 27.7521 43.217 28.092 43.1188 28.4166C43.013 28.7185 42.8539 28.9971 42.6495 29.2384C42.3949 29.5566 42.074 29.8106 41.7109 29.9811C41.4253 30.1071 41.1179 30.1714 40.8075 30.1699C40.3494 30.1612 39.9106 29.977 39.5758 29.6524C39.3423 29.4757 39.1431 29.2547 38.9891 29.001C38.9891 28.9584 38.9421 28.9645 38.907 29.001C38.7188 29.1881 38.5053 29.346 38.2735 29.4697C38.0018 29.6109 37.7076 29.6996 37.4053 29.7315C37.1258 29.7681 36.8421 29.7559 36.5665 29.695C36.2244 29.6189 35.9119 29.4387 35.669 29.1775L35.6396 29.135Z" fill="#01202B"/>
<path d="M33.1411 39.4271H42.7716C43.9088 39.4255 44.9989 38.9726 45.8024 38.168C46.6059 37.3634 47.0573 36.2727 47.0573 35.1355V25.0356C47.0573 23.899 46.6056 22.8089 45.802 22.0052C44.9983 21.2015 43.9083 20.75 42.7716 20.75H22.5055C21.3741 20.7579 20.2918 21.213 19.4946 22.0158C18.6974 22.8186 18.25 23.9042 18.25 25.0356V35.1355C18.2492 35.6989 18.3595 36.2567 18.5745 36.7774C18.7895 37.298 19.1051 37.7713 19.5031 38.1698C19.9011 38.5684 20.3738 38.8846 20.8942 39.1004C21.4145 39.3161 21.9723 39.4271 22.5356 39.4271H24.2089C24.449 39.4272 24.6853 39.488 24.8958 39.6038C25.1061 39.7195 25.284 39.8865 25.4126 40.0892L28.5848 45.1031C28.6564 45.2143 28.7569 45.3039 28.8755 45.3623C28.9943 45.4206 29.1265 45.4455 29.2584 45.4344C29.3901 45.4232 29.5164 45.3765 29.6235 45.299C29.7308 45.2215 29.8149 45.1164 29.8668 44.9947L31.8531 40.2939C31.9611 40.0405 32.1403 39.8238 32.3689 39.6699C32.5975 39.5161 32.8656 39.4317 33.1411 39.4271Z" stroke="#01202B" stroke-width="1.25" stroke-miterlimit="10" stroke-linecap="round"/>
<path d="M41.6827 41.7856C45.3412 40.5023 46.8049 35.1799 44.9521 29.8975C43.0991 24.6153 38.6311 21.3735 34.9726 22.6569C31.3139 23.9402 29.8502 29.2628 31.7032 34.545C33.5561 39.8273 38.0241 43.069 41.6827 41.7856Z" fill="#FFE29C"/>
<path d="M37.3111 36.4879C37.3337 33.1633 33.0886 30.4393 27.8293 30.4035C22.5701 30.3678 18.2883 33.0339 18.2657 36.3584C18.2431 39.683 22.4882 42.407 27.7474 42.4428C33.0067 42.4785 37.2884 39.8124 37.3111 36.4879Z" fill="#FFE29C"/>
<path d="M29.4994 30.3331C23.666 29.4996 18.666 31.9334 18.666 33.9093C18.666 35.8851 22.9685 37.4834 28.2758 37.4834C29.1459 37.4888 31.1355 37.093 31.9994 36.9996" stroke="#01202B" stroke-width="1.25" stroke-miterlimit="10" stroke-linecap="round"/>
<path d="M34.2664 41.0649C32.3208 41.6015 30.3095 41.8626 28.2914 41.8404C22.9841 41.8404 18.6816 40.2421 18.6816 38.2663" stroke="#01202B" stroke-width="1.25" stroke-miterlimit="10" stroke-linecap="round"/>
<path d="M18.666 33.6666V38.6666" stroke="#01202B" stroke-width="1.25" stroke-miterlimit="10" stroke-linecap="round"/>
<path d="M44.1699 41.3609C47.7407 40.1084 49.1332 34.8109 47.2802 29.5286C45.4273 24.2463 41.0304 20.9796 37.4598 22.2321C33.8891 23.4846 32.4966 28.7821 34.3494 34.0644C36.2024 39.3466 40.5992 42.6134 44.1699 41.3609Z" stroke="#01202B" stroke-width="1.25" stroke-miterlimit="10" stroke-linecap="round"/>
<path d="M37.7524 22.1505L34.3806 23.3239C30.8131 24.5783 29.4172 29.872 31.2717 35.1524C33.1262 40.4328 37.5231 43.7034 41.0905 42.449L44.1791 41.3634" stroke="#01202B" stroke-width="1.25" stroke-miterlimit="10" stroke-linecap="round"/>
<path d="M37.0332 27.4102L41.8213 26.3987" stroke="#01202B" stroke-width="1.25" stroke-miterlimit="10" stroke-linecap="round"/>
<path d="M38.2852 29.7034L42.0549 28.9076" stroke="#01202B" stroke-width="1.25" stroke-miterlimit="10" stroke-linecap="round"/>
<path d="M39.9534 26.7958C39.9534 26.7958 42.4351 33.4315 38.834 32.4335C38.834 32.4335 40.6144 38.9344 43.831 37.9567" stroke="#01202B" stroke-width="1.25" stroke-miterlimit="10" stroke-linecap="round"/>
<path d="M36.3965 42.4632C41.4862 33.3835 39.0215 23.4636 35.7326 20.3312C35.0162 19.649 33.9916 19.5 33.0022 19.5H31.8925C31.4151 19.5 30.9442 19.3888 30.5172 19.1753C29.8607 18.8471 29.1085 18.7645 28.3964 18.9425L27.5937 19.1432C26.6599 19.3766 25.807 19.8595 25.1262 20.5402L24.4083 21.2582C23.917 21.7495 23.3497 22.1584 22.7282 22.4691L22.4949 22.5858C21.1108 23.2778 20.0583 24.4914 19.569 25.9594L19.1919 27.0905C18.8604 28.085 19.0066 29.1767 19.5881 30.049C20.0668 30.767 20.2543 31.6404 20.1124 32.4916L19.7518 34.6552C19.5937 35.6037 19.9034 36.5701 20.5834 37.2501C20.965 37.6317 21.2357 38.1099 21.3666 38.6334L21.5144 39.2246C21.8268 40.4742 22.5937 41.5625 23.6654 42.277L24.4999 42.8332L26.4016 43.9744C27.7847 44.8042 28.9131 44.9312 30.5055 44.6749C32.4781 44.3574 35.4196 44.2061 36.3965 42.4632Z" fill="#FEAAAA"/>
<path d="M31.3089 19.4536V43.6145C31.3089 43.6145 30.6759 45.6263 27.9753 45.2948C25.2748 44.9635 25.2486 43.1543 25.2486 43.1543C25.2486 43.1543 19.4633 42.4406 21.7825 38.0575C20.3385 37.6156 19.2144 36.2608 19.1321 34.7897C19.0629 33.555 19.5852 32.6865 20.3214 31.921C19.7439 30.8462 17.739 28.9008 19.0629 25.113C20.1879 21.8951 23.3624 21.9774 23.3624 21.9774C23.3624 21.9774 26.0034 16.7265 31.3089 19.4536Z" stroke="#01202B" stroke-width="1.25" stroke-miterlimit="10" stroke-linejoin="round"/>
<path d="M20.3223 31.922C20.3223 31.922 22.8345 28.6666 26.3452 30.7961" stroke="#01202B" stroke-width="1.25" stroke-miterlimit="10" stroke-linecap="round" stroke-linejoin="round"/>
<path d="M23.6172 26.9643C23.6172 26.9643 26.913 27.1681 27.9666 23.2605" stroke="#01202B" stroke-width="1.25" stroke-miterlimit="10" stroke-linecap="round" stroke-linejoin="round"/>
<path d="M24.5 36.1666C24.5 36.1666 27.9669 36.1666 27.9669 39.3313" stroke="#01202B" stroke-width="1.25" stroke-miterlimit="10" stroke-linecap="round" stroke-linejoin="round"/>
<path d="M31.3086 19.4536V43.6145C31.3086 43.6145 31.941 45.6279 34.6425 45.2964C37.344 44.9649 37.3692 43.1558 37.3692 43.1558C37.3692 43.1558 43.1542 42.4405 40.8351 38.0574C42.2793 37.6156 43.4035 36.2608 43.4855 34.7896C43.5543 33.5549 43.0323 32.6865 42.2958 31.921C43.5543 31.0754 45.3902 28.0428 43.7751 24.9593C42.1936 21.9393 39.2538 21.9774 39.2538 21.9774C39.2538 21.9774 36.6143 16.7265 31.3086 19.4536Z" stroke="#01202B" stroke-width="1.25" stroke-miterlimit="10" stroke-linejoin="round"/>
<path d="M39.0018 26.9643C39.0018 26.9643 35.7057 27.1681 34.6523 23.2605" stroke="#01202B" stroke-width="1.25" stroke-miterlimit="10" stroke-linecap="round" stroke-linejoin="round"/>
<path d="M37.834 36.1666C37.834 36.1666 34.6523 36.1666 34.6523 39.3313" stroke="#01202B" stroke-width="1.25" stroke-miterlimit="10" stroke-linecap="round" stroke-linejoin="round"/>
<path d="M42.2955 31.9218C42.2955 31.9218 38.666 34.4999 36.166 31.1666" stroke="#01202B" stroke-width="1.25" stroke-miterlimit="10" stroke-linecap="round" stroke-linejoin="round"/>
<path d="M35.75 18.25H23.25C21.8693 18.25 20.75 19.3693 20.75 20.75V43.25C20.75 44.6307 21.8693 45.75 23.25 45.75H35.75C37.1307 45.75 38.25 44.6307 38.25 43.25V20.75C38.25 19.3693 37.1307 18.25 35.75 18.25Z" fill="#A3C2FF"/>
<path d="M38.25 22.625H25.75C25.4048 22.625 25.125 22.9048 25.125 23.25V27.4167C25.125 27.7618 25.4048 28.0417 25.75 28.0417H38.25C38.5952 28.0417 38.875 27.7618 38.875 27.4167V23.25C38.875 22.9048 38.5952 22.625 38.25 22.625Z" stroke="#01202B" stroke-width="1.25"/>
<path d="M38.2506 30.9581H34.084C33.7388 30.9581 33.459 31.238 33.459 31.5831V34.0831C33.459 34.4283 33.7388 34.7081 34.084 34.7081H38.2506C38.5958 34.7081 38.8756 34.4283 38.8756 34.0831V31.5831C38.8756 31.238 38.5958 30.9581 38.2506 30.9581Z" stroke="#01202B" stroke-width="1.25"/>
<path d="M29.9167 37.625H25.75C25.4048 37.625 25.125 37.9048 25.125 38.25V40.75C25.125 41.0952 25.4048 41.375 25.75 41.375H29.9167C30.2618 41.375 30.5417 41.0952 30.5417 40.75V38.25C30.5417 37.9048 30.2618 37.625 29.9167 37.625Z" stroke="#01202B" stroke-width="1.25"/>
<path d="M29.9167 30.9581H25.75C25.4048 30.9581 25.125 31.238 25.125 31.5831V34.0831C25.125 34.4283 25.4048 34.7081 25.75 34.7081H29.9167C30.2618 34.7081 30.5417 34.4283 30.5417 34.0831V31.5831C30.5417 31.238 30.2618 30.9581 29.9167 30.9581Z" stroke="#01202B" stroke-width="1.25"/>
<path d="M40.75 18.875H23.25C22.2145 18.875 21.375 19.7145 21.375 20.75V43.25C21.375 44.2855 22.2145 45.125 23.25 45.125H40.75C41.7855 45.125 42.625 44.2855 42.625 43.25V20.75C42.625 19.7145 41.7855 18.875 40.75 18.875Z" stroke="#01202B" stroke-width="1.25"/>
<path d="M42.842 20H15.3746C14.9908 20 14.6797 20.2749 14.6797 20.614V38.6243C14.6797 38.9633 14.9908 39.2381 15.3746 39.2381H42.842C43.2257 39.2381 43.5368 38.9633 43.5368 38.6243V20.614C43.5368 20.2749 43.2257 20 42.842 20Z" stroke="#01202B" stroke-width="1.25" stroke-linecap="round" stroke-linejoin="round"/>
<path d="M26.9279 36.2386C30.0378 36.2386 32.5589 33.7175 32.5589 30.6076C32.5589 27.4977 30.0378 24.9766 26.9279 24.9766C23.818 24.9766 21.2969 27.4977 21.2969 30.6076C21.2969 33.7175 23.818 36.2386 26.9279 36.2386Z" fill="#FC9577"/>
<path d="M29.7124 23.987C31.1848 24.2885 32.4928 25.1258 33.3829 26.3368C34.2731 27.5476 34.682 29.0459 34.5305 30.5411C34.379 32.0364 33.6779 33.4221 32.5629 34.4297C31.4479 35.4375 29.9985 35.9955 28.4956 35.9955C26.9926 35.9955 25.5433 35.4375 24.4283 34.4297C23.3133 33.4221 22.6121 32.0364 22.4606 30.5411C22.3091 29.0459 22.7181 27.5476 23.6082 26.3368C24.4984 25.1258 25.8064 24.2885 27.2788 23.987" stroke="#01202B" stroke-width="1.25" stroke-linecap="round" stroke-linejoin="round"/>
<path d="M22.498 29.0386C22.498 29.0386 27.3206 26.1171 34.613 29.0386" stroke="#01202B" stroke-width="1.25" stroke-miterlimit="10"/>
<path d="M22.7891 32.01C22.7891 32.01 28.4814 34.7558 34.2907 32.01" stroke="#01202B" stroke-width="1.25" stroke-miterlimit="10"/>
<path d="M26.8151 25.4283C26.8151 25.4283 24.111 29.7853 26.8151 35.6755" stroke="#01202B" stroke-width="1.25" stroke-linecap="round" stroke-linejoin="round"/>
<path d="M30.1934 25.4283C30.1934 25.4283 32.6716 30.51 30.1934 35.7424" stroke="#01202B" stroke-width="1.25" stroke-linecap="round" stroke-linejoin="round"/>
<path d="M14.6797 39.238L22.1978 44.6633C22.7459 45.05 23.3578 45.2515 23.979 45.2499H50.4592C50.5242 45.2504 50.5875 45.222 50.6389 45.1694C50.6902 45.1166 50.7267 45.0426 50.7425 44.9593C50.7582 44.8759 50.7524 44.7879 50.7259 44.7094C50.6992 44.631 50.6535 44.5666 50.596 44.5265L43.4547 39.3704L14.6797 39.238Z" fill="#C1A1FF" stroke="#01202B" stroke-width="1.25" stroke-linecap="round" stroke-linejoin="round"/>
</g>
</g>
<defs>
<clipPath id="clip0_1036_1745">
<rect width="40" height="40" fill="white" transform="translate(12 12)"/>
</clipPath>
<clipPath id="clip1_1036_1745">
<rect width="40" height="40" fill="white" transform="translate(12 12)"/>
</clipPath>
</defs>
</svg>
