<svg width="768" height="149" viewBox="0 0 768 149" fill="none" xmlns="http://www.w3.org/2000/svg">
<mask id="mask0_1046_9096" style="mask-type:luminance" maskUnits="userSpaceOnUse" x="0" y="0" width="768" height="149">
<path d="M0 12.2466C0 5.483 4.38953 0 9.80425 0H758.196C763.61 0 768 5.483 768 12.2466V149H0V12.2466Z" fill="white"/>
</mask>
<g mask="url(#mask0_1046_9096)">
<path d="M0 12.2466C0 5.483 4.38953 0 9.80426 0H758.196C763.61 0 768 5.483 768 12.2466V149H0V12.2466Z" fill="#075D70"/>
<path d="M818.655 -19.3906H727.966C721.648 -19.3906 716.527 -12.9938 716.527 -5.10295V58.171C716.527 66.0619 721.648 72.4587 727.966 72.4587H818.655C824.971 72.4587 830.093 66.0619 830.093 58.171V-5.10295C830.093 -12.9938 824.971 -19.3906 818.655 -19.3906Z" fill="white" fill-opacity="0.4"/>
<path d="M657.702 -65.3152H567.013C560.695 -65.3152 555.574 -58.9184 555.574 -51.0275V12.2465C555.574 20.1373 560.695 26.5341 567.013 26.5341H657.702C664.019 26.5341 669.14 20.1373 669.14 12.2465V-51.0275C669.14 -58.9184 664.019 -65.3152 657.702 -65.3152Z" fill="white" fill-opacity="0.52"/>
<path d="M735.319 53.0684H697.736C692.321 53.0684 687.932 58.5514 687.932 65.3149V86.7464C687.932 93.51 692.321 98.993 697.736 98.993H735.319C740.733 98.993 745.123 93.51 745.123 86.7464V65.3149C745.123 58.5514 740.733 53.0684 735.319 53.0684Z" fill="white" fill-opacity="0.2"/>
</g>
</svg>
