<svg width="5403" height="2442" viewBox="0 0 5403 2442" fill="none" xmlns="http://www.w3.org/2000/svg">
<path d="M1784.16 1515.3C1785.98 1519.98 1787.87 1523.97 1789.03 1528.16C1789.55 1530.07 1789.03 1532.51 1788.34 1534.48C1779.77 1558.69 1765.73 1579.48 1747.89 1597.74C1741.21 1604.59 1734.04 1610.96 1727.25 1617.74C1693.44 1651.33 1659.4 1684.74 1626.03 1718.74C1612.17 1732.88 1601.55 1749.66 1593.14 1767.74C1591.88 1770.43 1589.83 1773.32 1593.85 1775.6C1597.27 1777.54 1599.66 1776.21 1602.5 1773.82C1608.2 1768.99 1614.2 1764.51 1620.44 1760.4C1663.63 1732.15 1710.38 1710.68 1756.86 1688.66C1800.02 1668.21 1842.92 1647.23 1885.86 1626.43C1920.53 1609.66 1948.47 1584.55 1971.53 1554.29C1985.53 1535.91 1997.16 1515.72 2009.89 1496.37C2034.78 1458.54 2048.12 1415.24 2067.49 1374.81C2073.28 1362.73 2080.12 1351.16 2086.32 1339.28C2091.97 1328.48 2099.95 1321.84 2114.82 1324.2C2116.82 1336.29 2119.99 1349.34 2120.89 1362.54C2124.27 1412.04 2110.8 1458.31 2092.29 1503.47C2065.14 1569.74 2025.69 1628.24 1978.38 1681.55C1887.86 1783.55 1779.56 1860.68 1653.47 1912.94C1605.79 1932.85 1555.68 1946.32 1504.45 1953C1475.76 1956.74 1446.75 1957.5 1417.9 1955.29C1414.68 1955.05 1413.43 1954.03 1412.68 1950.86C1405.23 1919.38 1401.93 1887.58 1404.06 1855.2C1405.96 1826.2 1410.6 1797.72 1420.64 1770.54C1425.51 1757.34 1433.24 1745.09 1440.57 1732.94C1479.1 1669.07 1534.4 1624 1600.35 1590.81C1652.17 1564.73 1706.24 1544.1 1760.42 1523.68C1768.01 1520.81 1775.64 1518.03 1783.27 1515.24C1783.57 1515.18 1783.87 1515.2 1784.16 1515.3Z" fill="#155E72"/>
<path d="M1129 1774.24C1132.53 1770.4 1132.68 1766.78 1130.27 1762.43C1112.72 1730.69 1089.48 1703.61 1062.7 1679.43C1053.03 1670.69 1042.83 1662.55 1033.11 1653.87C1029.2 1650.37 1026.04 1646.05 1022.36 1642.28C1011.99 1631.63 1001.87 1620.71 991.04 1610.55C970.13 1590.92 952.04 1569.48 944.04 1541.22C941.43 1531.96 939.75 1522.44 937.26 1511.36C955.26 1517.92 971.33 1523.64 987.26 1529.57C1041.26 1549.64 1094.32 1571.74 1143.77 1601.57C1177.6 1621.99 1211.01 1643.15 1238.69 1671.89C1265.93 1700.17 1288.63 1731.82 1302.37 1768.65C1319.04 1813.36 1323.65 1859.97 1317.81 1907.42C1316.17 1920.71 1313.54 1933.89 1311.73 1947.17C1311.24 1950.78 1309.52 1952.02 1306.38 1952.51C1283.2 1956.14 1259.65 1956.79 1236.31 1954.43C1127.52 1943.35 1029.96 1901.68 938.38 1844.07C865.38 1798.13 799.61 1743.45 742.95 1678.24C707.61 1637.56 675.14 1594.46 650.79 1546.41C626.44 1498.36 607.84 1448.01 602.65 1393.82C600.65 1372.47 601.77 1351.13 609.22 1330.55C610.68 1326.55 612.54 1325.26 616.92 1324.79C626.58 1323.79 633.05 1327.5 637.08 1335.79C648.39 1359.16 659.78 1382.51 670.66 1406.09C677.21 1420.28 682.27 1435.17 689.03 1449.25C709.16 1491.15 731.91 1531.47 763.03 1566.5C795.22 1602.75 834.1 1629.26 878.51 1648.5C960.43 1684.02 1041.51 1721.37 1117.02 1769.5C1120.44 1771.71 1124.67 1772.59 1129 1774.24Z" fill="#155E72"/>
<path d="M1705.76 963.19C1686.97 969.08 1668.25 962.88 1648.6 965.19C1651.32 958.91 1653.71 953.66 1655.88 948.31C1661.88 933.66 1668.45 919.23 1673.39 904.24C1678.39 888.97 1677.01 873.7 1668.46 859.57C1668.06 858.866 1667.75 858.113 1667.54 857.33C1667.53 856.709 1667.6 856.09 1667.76 855.49C1676.13 855.61 1675.53 849.59 1675.35 843.67C1674.35 809.67 1673.35 775.67 1672.25 741.67C1672.13 737.83 1671.42 734 1670.9 729.41C1668.05 730.41 1665.45 731.21 1662.9 732.21C1631.58 744.66 1600.31 757.21 1568.9 769.48C1564.9 771.05 1565.21 773.72 1565.18 776.72C1564.99 799.326 1564.81 821.936 1564.65 844.55C1564.59 853.69 1564.65 862.82 1564.65 873.31C1553.47 869.75 1544 866.99 1534.65 863.74C1491.44 848.66 1446.81 839.82 1401.44 835.46C1340.14 829.56 1280.03 837.33 1221.26 855.39C1205.75 860.16 1190.5 865.8 1175.26 871.26C1166.89 874.26 1161.48 870.11 1161.69 861.33C1162.17 841.58 1162.1 821.81 1162.39 802.05C1162.5 794.12 1162.81 786.17 1163.39 778.25C1163.65 774.71 1162.71 772.86 1159.27 771.41C1102.79 747.49 1046.34 723.49 989.93 699.41C987.522 698.586 985.064 697.918 982.57 697.41C981.73 693.13 984.66 691.41 988.19 689.87C1019.76 676.4 1051.4 663.1 1082.85 649.35C1172.73 610.05 1262.59 570.716 1352.44 531.35C1355.54 530.23 1358.94 530.28 1362 531.49C1455.37 570.35 1548.71 609.35 1642 648.49C1673.47 661.67 1704.88 674.99 1736.34 688.18C1738.34 689.02 1740.8 688.9 1742.68 689.89C1744.56 690.88 1746.18 692.77 1747.9 694.27C1746.52 695.55 1745.34 697.27 1743.71 698.05C1724.5 707.23 1705.17 716.18 1686.03 725.51C1685.01 726.153 1684.14 727.019 1683.5 728.045C1682.86 729.07 1682.46 730.227 1682.33 731.43C1682.1 756.26 1682.18 781.09 1682.23 805.92C1682.23 825.28 1683.23 844.47 1688.6 863.33C1689.68 867.15 1686.18 872.33 1684.68 876.78C1684.33 877.83 1682.89 878.78 1682.97 879.68C1683.87 891.09 1681.52 902.61 1686.49 913.88C1693.48 929.8 1699.23 946.3 1705.76 963.19Z" fill="#155E72"/>
<path d="M1381.82 1378.59C1381.82 1375.59 1381.82 1372.59 1381.82 1369.53C1381.65 1267.86 1381.46 1166.19 1381.23 1064.53C1381.23 1059.87 1382.42 1057.37 1386.58 1054.43C1400.87 1044.36 1403.58 1029.23 1401.34 1013.11C1399.34 998.71 1392.91 986.21 1377.68 983.11C1366.91 981.083 1355.85 980.998 1345.05 982.86C1333.05 984.86 1327.21 995.03 1324.25 1006.14C1320.93 1018.62 1321.25 1031.26 1326.36 1043.23C1328.48 1048.14 1331.54 1053.23 1335.58 1056.56C1340.07 1060.24 1341.27 1063.96 1341.28 1069.35C1341.46 1140.05 1341.59 1210.76 1342.28 1281.45C1342.58 1314.04 1343.99 1346.62 1344.87 1379.21C1344.97 1382.82 1344.87 1386.45 1344.87 1389.89C1339.87 1391.56 1338.8 1388.34 1337.31 1385.33C1321.9 1354.2 1307.31 1322.61 1290.77 1292.08C1252.91 1222.45 1207.16 1157.4 1154.44 1098.22C1149.17 1092.22 1149.72 1085.59 1152.17 1079.99C1174.69 1028.5 1177.97 974.14 1177.29 919.1C1177.19 910.97 1177.29 902.84 1177.29 893.23C1199.11 887.77 1220.97 881.65 1243.12 876.88C1288.12 867.18 1333.82 864.38 1379.75 865.98C1434.41 867.88 1488.18 876.43 1541.29 889.25C1542.32 889.642 1543.24 890.271 1543.98 891.085C1544.72 891.9 1545.26 892.878 1545.55 893.94C1546.62 900.772 1547.25 907.667 1547.41 914.58C1547.64 927.21 1547.1 939.85 1547.33 952.48C1548.01 990.29 1553.46 1027.35 1565.33 1063.39C1567.94 1071.73 1570.02 1080.22 1571.57 1088.81C1571.76 1090.13 1571.69 1091.47 1571.34 1092.76C1571 1094.05 1570.4 1095.25 1569.57 1096.3C1493.79 1177.49 1435.42 1269.91 1391.27 1371.58C1389.86 1374.82 1386.75 1377.33 1384.43 1380.18L1381.82 1378.59Z" fill="#5995A1"/>
<path d="M1981.93 1464.43C1957.74 1456.63 1934.69 1449.43 1911.82 1441.75C1875.08 1429.39 1837.15 1422.33 1799.04 1416.21C1754.42 1408.93 1709.25 1405.59 1664.04 1406.21C1585.15 1407.46 1508.95 1422.05 1435.8 1451.98C1432.23 1453.45 1430.26 1455.48 1429.29 1459.13C1428.08 1463.63 1426.41 1468.01 1424.94 1472.44C1416.27 1498.6 1397.23 1512.36 1370.71 1514.8C1332.24 1518.35 1305.71 1499.46 1296.91 1470.4C1295.43 1465.54 1293.06 1460.84 1292.37 1455.9C1291.49 1449.62 1287.84 1447.3 1282.47 1445.43C1233.94 1428.56 1184.3 1416.71 1133.2 1410.82C1088.65 1405.74 1043.71 1404.88 999 1408.26C914 1414.52 832.26 1434.7 752.34 1463.36C750.09 1464.17 747.77 1464.78 743.47 1466.09C746.2 1455.4 748.1 1445.93 751.04 1436.8C756.7 1419.22 762.92 1401.8 768.96 1384.38C774.87 1367.38 780.75 1350.3 786.85 1333.38C788.603 1328.41 790.798 1323.6 793.41 1319.02C798.52 1310.25 805.3 1305.41 816.66 1306.02C858.55 1308.18 900.59 1308.15 942.41 1311.18C1047.59 1318.77 1148.9 1341.85 1242.97 1391.3C1260.05 1400.3 1276.41 1410.63 1292.91 1420.66C1295.63 1422.31 1297.69 1425.4 1299.46 1428.2C1304.98 1436.95 1309.34 1446.58 1315.74 1454.6C1332.74 1475.87 1355.02 1481.6 1380.81 1474.07C1387.19 1472.07 1393.39 1469.52 1399.34 1466.45C1402.64 1464.88 1405.58 1462.65 1407.98 1459.9C1410.37 1457.15 1412.18 1453.93 1413.28 1450.45C1419.35 1432.99 1431.88 1420.64 1447.28 1411.03C1488.01 1385.64 1531.44 1366.19 1576.98 1351.16C1619.88 1337 1663.35 1325.16 1708.08 1318.68C1729.81 1315.54 1751.78 1313.84 1773.69 1312.21C1804.69 1309.9 1835.83 1308.12 1866.91 1306.38C1888.15 1305.19 1909.22 1306.58 1929.85 1312.27C1933.15 1313.17 1935.33 1314.6 1936.49 1318.27C1951.27 1365.75 1966.17 1413.19 1981.18 1460.6C1981.44 1461.31 1981.5 1462.08 1981.93 1464.43Z" fill="#155E72"/>
<path d="M2102.89 1272.58C2104.62 1257.08 2106.39 1241.95 2107.98 1226.79C2111.9 1190.12 2113.3 1153.22 2112.15 1116.36C2110.15 1056.97 2102.02 998.48 2086.22 941.17C2061.43 851.17 2020.46 769.34 1965.08 694.1C1920.18 633.1 1867.19 580.75 1806.6 535.83C1725.69 475.83 1635.81 434.9 1538.06 410.92C1470.18 394.114 1400.23 387.216 1330.37 390.44C1194.59 396.81 1069.05 436.51 954.92 510.35C846.63 580.42 762.06 673 700.11 786.06C661.99 855.62 637.55 930.06 623.33 1007.94C614.744 1054 610.705 1100.79 611.27 1147.64C611.797 1188.69 615.791 1229.62 623.21 1270C615.44 1271.38 607.97 1273.17 600.4 1273.92C592.65 1274.68 590.16 1272.16 588.95 1264.65C581.015 1216.19 577.747 1167.08 579.19 1118C581.46 1045.76 593.599 974.164 615.27 905.21C638.78 830.21 674.5 761.27 718.49 696.08C780.24 604.58 860.42 533.53 952.79 474.37C1031.7 423.82 1118.1 393.68 1208.57 372.92C1275.11 357.65 1342.57 355.46 1410.19 359.67C1516.09 366.26 1617.09 392.23 1711.97 440.31C1793.49 481.64 1866.4 534.74 1929.3 601.31C2026.91 704.55 2092.11 825.293 2124.89 963.54C2142.47 1038.17 2148.45 1113.8 2144.12 1190.25C2142.97 1210.56 2139.55 1230.75 2138.89 1251.05C2138.6 1259.87 2134.12 1265.42 2129.89 1271.59C2128.74 1273.26 2125.27 1274.03 2122.89 1274C2116.38 1273.83 2109.92 1273.1 2102.89 1272.58Z" fill="#155E72"/>
<path d="M1124.2 1282.06C1125.91 1277.06 1123.56 1274.93 1119.61 1272.94C1063.83 1244.85 1005.08 1224.94 944.76 1209.43C922.76 1203.78 900.4 1199.43 878.13 1194.88C874.13 1194.06 872.34 1192.35 873.58 1188.94C875.421 1183.64 877.828 1178.55 880.76 1173.76C886.6 1164.6 893.04 1155.82 900.27 1145.37C917.57 1151.21 936.84 1156.91 955.49 1164.17C1033.78 1194.62 1109.49 1230.17 1176.79 1281.31C1195.58 1295.59 1213.79 1310.67 1231.54 1326.23C1244.98 1338.02 1257.24 1351.15 1270.01 1363.7C1277.18 1370.7 1284.4 1377.7 1291.47 1384.87C1295.88 1389.31 1300.47 1393.75 1299.19 1402.03C1295.45 1400.15 1291.56 1399.26 1289.19 1396.86C1271.19 1378.34 1249.57 1365.1 1226.94 1353.31C1178.04 1327.82 1125.94 1310.74 1072.94 1296.45C1021.53 1282.58 969.209 1272.36 916.36 1265.88C892.15 1262.88 867.74 1261.43 843.41 1259.52C836.12 1258.95 832.03 1252.24 836.18 1245.82C841.36 1237.82 847.18 1230.2 853.07 1222.68C853.96 1221.54 856.72 1221.52 858.6 1221.57C892.23 1222.57 925.48 1226.89 958.49 1233.19C1013.72 1243.71 1067.13 1260.44 1119.55 1280.53C1121.08 1281.09 1122.6 1281.53 1124.2 1282.06Z" fill="#5995A1"/>
<path d="M1827.46 1145L1853.75 1191.44C1839.04 1194.81 1826.02 1197.68 1813.06 1200.78C1745.19 1217.03 1678.47 1236.68 1615.67 1267.85C1611.67 1269.85 1607.78 1272.07 1603.74 1273.99C1599.7 1275.91 1599.23 1278.26 1602.5 1281.72C1617.42 1276.18 1632.36 1270.4 1647.44 1265.06C1679.62 1253.68 1712.06 1243.06 1745.73 1237.06C1771.32 1232.44 1796.95 1227.58 1822.73 1224.83C1838.73 1223.12 1855.18 1224.96 1871.39 1225.73C1873.71 1225.84 1876.45 1228.5 1878.01 1230.68C1882.01 1236.3 1885.49 1242.3 1889.15 1248.17C1890.84 1250.88 1892.46 1253.64 1894.62 1257.22C1882.72 1258.44 1871.84 1259.61 1860.94 1260.66C1786.58 1267.82 1713.1 1279.71 1640.79 1299C1600.01 1309.88 1560.6 1324.42 1522.23 1341.5C1494.44 1353.87 1467.23 1368.05 1443.74 1388.04C1438.4 1392.59 1438.3 1392.47 1431.54 1388.61C1538.69 1266.81 1673.89 1190.86 1827.46 1145Z" fill="#5995A1"/>
<path d="M2506.83 979.06C2519.09 994.574 2525.65 1013.82 2525.43 1033.59C2525.43 1063.09 2515.12 1086.46 2494.51 1103.71C2473.9 1120.96 2445.16 1129.59 2408.3 1129.6H2243.93V776.74H2402.78C2438.63 776.74 2466.7 784.95 2486.97 801.37C2507.24 817.79 2517.38 840.074 2517.38 868.22C2517.38 889 2511.93 906.257 2501.04 919.99C2490.15 933.724 2475.65 943.274 2457.56 948.64C2478 953 2494.42 963.14 2506.83 979.06ZM2329.89 919.49H2386.19C2400.26 919.49 2411.07 916.39 2418.61 910.19C2426.15 903.99 2429.92 894.86 2429.92 882.8C2429.92 870.734 2426.15 861.517 2418.61 855.15C2411.07 848.784 2400.26 845.6 2386.19 845.6H2329.89V919.49ZM2426.65 1050.43C2434.52 1043.89 2438.46 1034.42 2438.47 1022.03C2438.48 1009.64 2434.38 999.92 2426.15 992.88C2417.93 985.84 2406.62 982.32 2392.22 982.32H2329.89V1060.23H2393.22C2407.63 1060.23 2418.78 1056.96 2426.65 1050.43Z" fill="#155E72"/>
<path d="M2691.05 1110C2663.65 1094.83 2640.89 1072.5 2625.2 1045.4C2608.94 1017.76 2600.81 986.68 2600.82 952.16C2600.83 917.64 2608.95 886.64 2625.2 859.16C2640.95 832.173 2663.71 809.944 2691.05 794.82C2718.69 779.407 2749.1 771.7 2782.28 771.7C2815.46 771.7 2845.87 779.407 2873.51 794.82C2900.78 809.87 2923.39 832.127 2938.86 859.16C2954.77 886.64 2962.72 917.64 2962.73 952.16C2962.74 986.68 2954.69 1017.76 2938.6 1045.4C2923.1 1072.48 2900.51 1094.81 2873.26 1110C2845.78 1125.42 2815.45 1133.13 2782.26 1133.12C2749.07 1133.11 2718.67 1125.41 2691.05 1110ZM2849.88 1026.55C2866.8 1007.79 2875.26 982.993 2875.27 952.16C2875.27 921 2866.81 896.12 2849.88 877.52C2832.95 858.92 2810.42 849.62 2782.28 849.62C2753.79 849.62 2731.08 858.837 2714.17 877.27C2697.26 895.704 2688.79 920.667 2688.78 952.16C2688.78 983.333 2697.24 1008.22 2714.17 1026.81C2731.1 1045.4 2753.8 1054.7 2782.28 1054.7C2810.43 1054.7 2832.96 1045.32 2849.88 1026.55Z" fill="#155E72"/>
<path d="M3270.36 1067.27H3138.66L3117.55 1129.6H3027.55L3155.23 776.74H3254.76L3382.43 1129.6H3291.43L3270.36 1067.27ZM3248.24 1000.92L3204.51 871.74L3161.28 1000.92H3248.24Z" fill="#155E72"/>
<path d="M3641.32 1129.6L3567.93 996.4H3547.32V1129.6H3461.32V776.74H3605.58C3633.39 776.74 3657.1 781.597 3676.71 791.31C3696.32 801.024 3710.98 814.357 3720.71 831.31C3730.42 848.244 3735.28 867.094 3735.29 887.86C3735.29 911.32 3728.67 932.267 3715.43 950.7C3702.19 969.134 3682.67 982.2 3656.86 989.9L3738.3 1129.64L3641.32 1129.6ZM3547.32 935.6H3600.61C3616.35 935.6 3628.16 931.744 3636.03 924.03C3643.9 916.317 3647.84 905.427 3647.85 891.36C3647.85 877.96 3643.91 867.404 3636.03 859.69C3628.15 851.977 3616.34 848.124 3600.61 848.13H3547.32V935.6Z" fill="#155E72"/>
<path d="M4059 798.85C4086.81 813.604 4108.34 834.297 4123.6 860.93C4138.86 887.564 4146.48 918.31 4146.46 953.17C4146.46 987.69 4138.84 1018.36 4123.6 1045.17C4108.36 1071.98 4086.74 1092.76 4058.75 1107.5C4030.75 1122.25 3998.33 1129.63 3961.49 1129.62H3829.29V776.74H3961.49C3998.69 776.74 4031.19 784.11 4059 798.85ZM4031.86 1028.56C4049.95 1010.81 4058.99 985.684 4059 953.17C4059.01 920.657 4049.96 895.357 4031.86 877.27C4013.77 859.17 3988.47 850.12 3955.96 850.12H3915.25V1055.21H3956C3988.49 1055.21 4013.78 1046.33 4031.88 1028.56H4031.86Z" fill="#155E72"/>
<path d="M4320.91 776.74V1129.6H4234.91V776.74H4320.91Z" fill="#155E72"/>
<path d="M4739.11 1129.6H4653.11L4509.4 912V1129.6H4423.4V776.74H4509.4L4653.15 995.39V776.74H4739.15L4739.11 1129.6Z" fill="#155E72"/>
<path d="M5075.88 888.33C5069.7 876.785 5060.15 867.4 5048.49 861.43C5036.59 855.243 5022.59 852.147 5006.49 852.14C4978.67 852.14 4956.38 861.27 4939.63 879.53C4922.88 897.79 4914.5 922.167 4914.5 952.66C4914.5 985.167 4923.3 1010.55 4940.89 1028.82C4958.48 1047.09 4982.7 1056.22 5013.53 1056.21C5034.64 1056.21 5052.48 1050.85 5067.06 1040.13C5081.64 1029.41 5092.29 1013.99 5099 993.88H4989.93V930.55H5176.93V1010.47C5170.56 1031.92 5159.75 1051.86 5144.51 1070.29C5129.27 1088.72 5109.91 1103.63 5086.44 1115C5062.99 1126.4 5036.52 1132.1 5007.03 1132.09C4972.17 1132.09 4941.09 1124.47 4913.78 1109.22C4886.94 1094.46 4864.82 1072.42 4849.95 1045.64C4834.69 1018.49 4827.06 987.487 4827.07 952.64C4827.08 917.793 4834.72 886.72 4850 859.42C4864.77 832.586 4886.81 810.463 4913.58 795.59C4940.72 780.343 4971.72 772.717 5006.58 772.71C5048.8 772.71 5084.4 782.933 5113.39 803.38C5142.38 823.827 5161.56 852.16 5170.95 888.38L5075.88 888.33Z" fill="#155E72"/>
<path d="M2431.05 1527.08H2312.27L2293.27 1583.29H2212.12L2327.23 1265H2417L2532.15 1583.25H2450.09L2431.05 1527.08ZM2411.05 1467.23L2371.61 1350.73L2332.61 1467.23H2411.05Z" fill="#5995A1"/>
<path d="M2794.18 1285C2819.27 1298.33 2838.69 1317 2852.44 1341C2866.19 1365 2873.06 1392.73 2873.07 1424.19C2873.07 1455.32 2866.19 1482.98 2852.44 1507.19C2838.69 1531.4 2819.21 1550.12 2794 1563.35C2768.76 1576.68 2739.52 1583.33 2706.28 1583.29H2587V1265H2706.24C2739.78 1265 2769.09 1271.67 2794.18 1285ZM2769.7 1492.18C2786.03 1476.18 2794.19 1453.51 2794.18 1424.18C2794.17 1394.85 2786.01 1372.03 2769.7 1355.72C2753.38 1339.4 2730.56 1331.24 2701.25 1331.24H2664.52V1516.24H2701.25C2730.56 1516.21 2753.38 1508.19 2769.7 1492.17V1492.18Z" fill="#5995A1"/>
<path d="M3297 1265V1583.25H3219.47V1392.43L3148.29 1583.29H3085.73L3014.05 1392V1583.31H2936.53V1265H3028.1L3117.41 1485.33L3205.82 1265H3297Z" fill="#5995A1"/>
<path d="M3450.18 1265V1583.25H3372.66V1265H3450.18Z" fill="#5995A1"/>
<path d="M3578.93 1575.14C3560.5 1567.58 3545.77 1556.4 3534.73 1541.59C3523.69 1526.78 3517.87 1508.95 3517.27 1488.09H3599.78C3600.99 1499.88 3605.07 1508.88 3612.02 1515.09C3618.97 1521.3 3628.04 1524.39 3639.23 1524.38C3650.71 1524.38 3659.78 1521.74 3666.43 1516.45C3673.08 1511.16 3676.42 1503.83 3676.43 1494.45C3676.43 1486.59 3673.79 1480.09 3668.5 1474.95C3662.82 1469.57 3656.22 1465.27 3649 1462.26C3641.29 1458.93 3630.34 1455.15 3616.14 1450.93C3595.58 1444.58 3578.8 1438.24 3565.81 1431.93C3552.55 1425.36 3541.05 1415.73 3532.27 1403.82C3522.9 1391.43 3518.22 1375.26 3518.21 1355.31C3518.21 1325.69 3528.94 1302.49 3550.4 1285.72C3571.86 1268.95 3599.82 1260.56 3634.27 1260.56C3669.33 1260.56 3697.59 1268.95 3719.05 1285.72C3740.51 1302.49 3751.99 1325.83 3753.5 1355.72H3669.6C3668.99 1345.45 3665.21 1337.37 3658.27 1331.47C3651.33 1325.57 3642.41 1322.62 3631.52 1322.63C3622.15 1322.63 3614.6 1325.12 3608.85 1330.11C3603.1 1335.1 3600.23 1342.27 3600.24 1351.64C3600.24 1361.92 3605.07 1369.92 3614.74 1375.64C3624.41 1381.36 3639.52 1387.56 3660.08 1394.23C3680.63 1401.18 3697.33 1407.83 3710.17 1414.17C3723.25 1420.71 3734.65 1430.18 3743.49 1441.83C3752.86 1453.92 3757.55 1469.49 3757.55 1488.53C3757.74 1505.98 3752.95 1523.12 3743.73 1537.94C3734.5 1552.75 3721.13 1564.53 3703.6 1573.3C3686.07 1582.07 3665.37 1586.45 3641.5 1586.45C3618.21 1586.46 3597.36 1582.69 3578.93 1575.14Z" fill="#5995A1"/>
<path d="M3877.69 1575.14C3859.25 1567.58 3844.52 1556.4 3833.49 1541.59C3822.46 1526.78 3816.64 1508.95 3816.03 1488.09H3898.54C3899.75 1499.88 3903.83 1508.88 3910.78 1515.09C3917.73 1521.3 3926.79 1524.39 3937.98 1524.38C3949.47 1524.38 3958.54 1521.74 3965.19 1516.45C3971.84 1511.16 3975.18 1503.83 3975.19 1494.45C3975.19 1486.59 3972.55 1480.09 3967.26 1474.95C3961.59 1469.57 3954.99 1465.27 3947.77 1462.26C3940.06 1458.93 3929.1 1455.15 3914.91 1450.93C3894.34 1444.58 3877.57 1438.24 3864.58 1431.93C3851.32 1425.36 3839.82 1415.73 3831.03 1403.82C3821.66 1391.43 3817 1375.26 3817.03 1355.31C3817.03 1325.69 3827.76 1302.49 3849.22 1285.72C3870.68 1268.95 3898.64 1260.56 3933.09 1260.56C3968.15 1260.56 3996.41 1268.95 4017.87 1285.72C4039.33 1302.49 4050.81 1325.83 4052.32 1355.72H3968.45C3967.84 1345.45 3964.06 1337.37 3957.11 1331.47C3950.16 1325.57 3941.25 1322.62 3930.37 1322.63C3921 1322.63 3913.44 1325.12 3907.7 1330.11C3901.96 1335.1 3899.09 1342.27 3899.09 1351.64C3899.09 1361.92 3903.92 1369.92 3913.59 1375.64C3923.26 1381.36 3938.37 1387.56 3958.93 1394.23C3979.48 1401.18 3996.17 1407.83 4009.02 1414.17C4022.1 1420.71 4033.5 1430.18 4042.34 1441.83C4051.71 1453.92 4056.39 1469.49 4056.4 1488.53C4056.59 1505.98 4051.79 1523.12 4042.57 1537.94C4033.34 1552.75 4019.97 1564.53 4002.45 1573.3C3984.93 1582.07 3964.23 1586.45 3940.35 1586.45C3917 1586.46 3896.12 1582.69 3877.69 1575.14Z" fill="#5995A1"/>
<path d="M5064.21 1575.82C5045.78 1568.26 5031.05 1557.08 5020.02 1542.27C5008.99 1527.46 5003.17 1509.63 5002.56 1488.77H5085.06C5086.27 1500.56 5090.35 1509.56 5097.3 1515.77C5104.25 1521.98 5113.32 1525.08 5124.51 1525.06C5135.99 1525.06 5145.06 1522.42 5151.71 1517.13C5158.36 1511.84 5161.7 1504.51 5161.71 1495.13C5161.71 1487.27 5159.07 1480.77 5153.78 1475.64C5148.11 1470.25 5141.5 1465.95 5134.28 1462.94C5126.58 1459.61 5115.63 1455.83 5101.42 1451.61C5080.86 1445.26 5064.08 1438.93 5051.09 1432.61C5037.83 1426.04 5026.33 1416.41 5017.55 1404.5C5008.18 1392.11 5003.49 1375.94 5003.49 1355.99C5003.49 1326.37 5014.22 1303.17 5035.68 1286.4C5057.14 1269.63 5085.1 1261.24 5119.55 1261.24C5154.61 1261.24 5182.87 1269.63 5204.33 1286.4C5225.79 1303.17 5237.27 1326.52 5238.78 1356.45H5154.91C5154.3 1346.17 5150.53 1338.08 5143.58 1332.19C5136.63 1326.3 5127.72 1323.35 5116.83 1323.35C5107.46 1323.35 5099.91 1325.84 5094.16 1330.83C5088.41 1335.82 5085.54 1342.99 5085.55 1352.36C5085.55 1362.64 5090.39 1370.64 5100.06 1376.36C5109.73 1382.08 5124.84 1388.28 5145.39 1394.95C5165.95 1401.9 5182.65 1408.54 5195.49 1414.89C5208.57 1421.43 5219.97 1430.9 5228.81 1442.55C5238.18 1454.64 5242.86 1470.2 5242.86 1489.25C5243.05 1506.7 5238.26 1523.84 5229.04 1538.66C5219.81 1553.47 5206.43 1565.25 5188.91 1574.02C5171.39 1582.79 5150.69 1587.17 5126.81 1587.17C5103.51 1587.16 5082.64 1583.37 5064.21 1575.82Z" fill="#5995A1"/>
<path d="M4201.37 1265V1583.25H4123.85V1265H4201.37Z" fill="#5995A1"/>
<path d="M4345.77 1565.62C4321.06 1551.93 4300.54 1531.8 4286.38 1507.36C4271.71 1482.43 4264.38 1454.4 4264.38 1423.26C4264.38 1392.12 4271.71 1364.16 4286.38 1339.39C4300.59 1315.06 4321.11 1295.03 4345.77 1281.39C4370.7 1267.5 4398.12 1260.55 4428.05 1260.54C4457.98 1260.53 4485.4 1267.48 4510.33 1281.39C4534.92 1294.96 4555.31 1315.02 4569.27 1339.39C4583.62 1364.18 4590.79 1392.13 4590.8 1423.26C4590.81 1454.39 4583.55 1482.42 4569.04 1507.36C4555.05 1531.77 4534.68 1551.91 4510.11 1565.62C4485.32 1579.52 4457.96 1586.47 4428.05 1586.47C4398.14 1586.47 4370.71 1579.52 4345.77 1565.62ZM4489 1490.36C4504.26 1473.43 4511.89 1451.07 4511.9 1423.26C4511.9 1395.15 4504.27 1372.71 4489 1355.94C4473.73 1339.17 4453.4 1330.78 4428 1330.78C4402.31 1330.78 4381.83 1339.09 4366.57 1355.71C4351.31 1372.33 4343.68 1394.85 4343.68 1423.26C4343.68 1451.37 4351.31 1473.81 4366.57 1490.59C4381.83 1507.37 4402.31 1515.75 4428 1515.74C4453.42 1515.74 4473.75 1507.28 4489 1490.36Z" fill="#5995A1"/>
<path d="M4938.51 1583.29H4861L4731.33 1387V1583.29H4653.81V1265H4731.33L4861 1462.25V1265H4938.52L4938.51 1583.29Z" fill="#5995A1"/>
</svg>
