<svg width="12" height="12" viewBox="0 0 12 12" fill="none" xmlns="http://www.w3.org/2000/svg">
<circle cx="6" cy="6" r="6" fill="#D9D9D9"/>
<g clip-path="url(#clip0_52_1527)">
<path d="M8.70862 8.3334C8.72018 8.36309 8.73218 8.38841 8.73955 8.415C8.74285 8.42712 8.73955 8.4426 8.73517 8.4551C8.68075 8.60872 8.59159 8.74064 8.4783 8.8565C8.43588 8.89997 8.39035 8.94039 8.34723 8.98341C8.13253 9.19654 7.91636 9.40854 7.70445 9.62428C7.61644 9.714 7.549 9.82047 7.49559 9.9352C7.48759 9.95227 7.47457 9.9706 7.5001 9.98507C7.52182 9.99738 7.53699 9.98894 7.55503 9.97378C7.59123 9.94313 7.62933 9.9147 7.66895 9.88862C7.94322 9.70937 8.2401 9.57314 8.53526 9.43341C8.80934 9.30365 9.08177 9.17053 9.35445 9.03855C9.57462 8.93214 9.75204 8.77281 9.89848 8.5808C9.98738 8.46417 10.0612 8.33606 10.1421 8.21328C10.3001 7.97324 10.3849 7.69849 10.5079 7.44195C10.5446 7.3653 10.5881 7.29188 10.6274 7.2165C10.6633 7.14797 10.714 7.10584 10.8084 7.12082C10.8211 7.19753 10.8412 7.28034 10.847 7.36409C10.8684 7.67818 10.7829 7.97178 10.6653 8.25833C10.4929 8.67883 10.2424 9.05003 9.94198 9.3883C9.36715 10.0355 8.67941 10.5249 7.8787 10.8565C7.57592 10.9829 7.25771 11.0683 6.93238 11.1107C6.75019 11.1345 6.56597 11.1393 6.38276 11.1253C6.36232 11.1237 6.35438 11.1173 6.34962 11.0971C6.30231 10.8974 6.28135 10.6956 6.29488 10.4902C6.30694 10.3061 6.33641 10.1254 6.40016 9.95296C6.43109 9.86921 6.48018 9.79148 6.52672 9.71438C6.7714 9.30911 7.12257 9.02313 7.54138 8.81253C7.87045 8.64704 8.21381 8.51614 8.55787 8.38657C8.60607 8.36836 8.65452 8.35072 8.70297 8.33302C8.70488 8.33264 8.70678 8.33276 8.70862 8.3334Z" fill="#155E72"/>
<path d="M4.54812 9.97643C4.57053 9.95206 4.57149 9.92909 4.55618 9.90149C4.44473 9.70009 4.29715 9.52826 4.12709 9.37483C4.06568 9.31937 4.00091 9.26772 3.93919 9.21265C3.91436 9.19044 3.89429 9.16303 3.87092 9.13911C3.80507 9.07153 3.7408 9.00224 3.67203 8.93777C3.53924 8.81321 3.42437 8.67717 3.37356 8.49785C3.35699 8.4391 3.34632 8.37869 3.33051 8.30838C3.44481 8.35001 3.54686 8.3863 3.64802 8.42393C3.99094 8.55128 4.32789 8.69151 4.64191 8.88079C4.85674 9.01036 5.0689 9.14463 5.24468 9.32699C5.41766 9.50643 5.56181 9.70726 5.64907 9.94096C5.75493 10.2247 5.7842 10.5204 5.74712 10.8215C5.7367 10.9058 5.72 10.9894 5.70851 11.0737C5.70539 11.0966 5.69447 11.1045 5.67453 11.1076C5.52733 11.1306 5.37778 11.1348 5.22957 11.1198C4.53872 11.0495 3.91918 10.7851 3.33762 10.4195C2.87405 10.128 2.45639 9.78106 2.09658 9.36728C1.87216 9.10916 1.66597 8.83567 1.51134 8.53078C1.35671 8.22589 1.23859 7.90641 1.20563 7.56256C1.19293 7.42709 1.20005 7.29168 1.24736 7.1611C1.25663 7.13571 1.26844 7.12753 1.29625 7.12455C1.3576 7.1182 1.39868 7.14174 1.42428 7.19434C1.4961 7.34263 1.56843 7.49079 1.63752 7.64042C1.67911 7.73046 1.71125 7.82494 1.75417 7.91428C1.88201 8.18015 2.02647 8.43599 2.2241 8.65826C2.42851 8.88828 2.67541 9.05649 2.95743 9.17857C3.47765 9.40396 3.99253 9.64095 4.47204 9.94635C4.49376 9.96037 4.52062 9.96596 4.54812 9.97643Z" fill="#155E72"/>
<path d="M8.21077 4.83009C8.09144 4.86746 7.97257 4.82812 7.84778 4.84278C7.86506 4.80293 7.88023 4.76962 7.89401 4.73567C7.93212 4.64271 7.97384 4.55115 8.00521 4.45604C8.03696 4.35914 8.0282 4.26225 7.9739 4.17259C7.97136 4.16813 7.96939 4.16335 7.96806 4.15838C7.96799 4.15444 7.96844 4.15051 7.96946 4.1467C8.02261 4.14746 8.0188 4.10927 8.01765 4.0717C8.0113 3.85596 8.00495 3.64022 7.99797 3.42448C7.99721 3.40012 7.9927 3.37582 7.9894 3.34669C7.9713 3.35304 7.95479 3.35811 7.93859 3.36446C7.7397 3.44346 7.54113 3.52309 7.34166 3.60095C7.31626 3.61091 7.31823 3.62785 7.31804 3.64689C7.31683 3.79033 7.31569 3.93379 7.31468 4.07729C7.31429 4.13528 7.31468 4.19321 7.31468 4.25978C7.24368 4.23719 7.18354 4.21967 7.12417 4.19905C6.84977 4.10337 6.56636 4.04727 6.27824 4.01961C5.88897 3.98217 5.50725 4.03147 5.13405 4.14607C5.03555 4.17634 4.93871 4.21212 4.84193 4.24677C4.78878 4.2658 4.75442 4.23947 4.75576 4.18376C4.75881 4.05844 4.75836 3.93299 4.7602 3.80761C4.7609 3.75729 4.76287 3.70685 4.76655 3.65659C4.7682 3.63413 4.76224 3.62239 4.74039 3.61319C4.38173 3.46141 4.02325 3.30913 3.66503 3.15633C3.64974 3.15111 3.63413 3.14687 3.61829 3.14364C3.61296 3.11649 3.63156 3.10557 3.65398 3.0958C3.85446 3.01033 4.05538 2.92594 4.2551 2.83869C4.82587 2.58932 5.3965 2.33974 5.96708 2.08995C5.98676 2.08284 6.00835 2.08316 6.02779 2.09084C6.62071 2.33741 7.21345 2.58488 7.80587 2.83323C8.00572 2.91686 8.20518 3.00138 8.40496 3.08508C8.41766 3.09041 8.43328 3.08965 8.44522 3.09593C8.45716 3.10221 8.46745 3.1142 8.47837 3.12372C8.4696 3.13184 8.46211 3.14276 8.45176 3.1477C8.32977 3.20595 8.20702 3.26274 8.08548 3.32195C8.079 3.32603 8.07347 3.33152 8.06941 3.33803C8.06534 3.34453 8.0628 3.35188 8.06198 3.35951C8.06052 3.51706 8.06103 3.67462 8.06134 3.83217C8.06134 3.95501 8.06769 4.07678 8.1018 4.19645C8.10865 4.22069 8.08643 4.25356 8.0769 4.28179C8.07468 4.28846 8.06553 4.29448 8.06604 4.3002C8.07176 4.3726 8.05684 4.44569 8.0884 4.5172C8.13278 4.61822 8.1693 4.72292 8.21077 4.83009Z" fill="#155E72"/>
<path d="M6.15359 7.4659C6.15359 7.44686 6.15359 7.42783 6.15359 7.40841C6.15251 6.76329 6.15131 6.11816 6.14985 5.4731C6.14985 5.44354 6.1574 5.42767 6.18382 5.40902C6.27457 5.34512 6.29178 5.24912 6.27755 5.14683C6.26485 5.05546 6.22402 4.97614 6.1273 4.95647C6.05891 4.94361 5.98868 4.94307 5.92009 4.95489C5.84389 4.96758 5.8068 5.03211 5.78801 5.1026C5.76692 5.18179 5.76896 5.262 5.80141 5.33795C5.81487 5.36911 5.8343 5.4014 5.85996 5.42253C5.88847 5.44588 5.89609 5.46949 5.89615 5.50369C5.8973 5.9523 5.89812 6.40097 5.9025 6.84952C5.90441 7.05631 5.91336 7.26304 5.91895 7.46983C5.91959 7.49274 5.91895 7.51577 5.91895 7.5376C5.8872 7.5482 5.8804 7.52777 5.87094 7.50867C5.77308 7.31114 5.68043 7.11069 5.5754 6.91697C5.33498 6.47515 5.04445 6.06239 4.70966 5.68688C4.6762 5.6488 4.67969 5.60674 4.69525 5.5712C4.83826 5.24448 4.85909 4.89956 4.85477 4.55031C4.85413 4.49873 4.85477 4.44714 4.85477 4.38616C4.99333 4.35151 5.13215 4.31268 5.27281 4.28242C5.55857 4.22087 5.84878 4.2031 6.14045 4.21325C6.48756 4.22531 6.82901 4.27956 7.16628 4.36091C7.17282 4.36339 7.17866 4.36738 7.18336 4.37255C7.18806 4.37772 7.19149 4.38393 7.19333 4.39067C7.20012 4.43402 7.20412 4.47777 7.20514 4.52163C7.2066 4.60177 7.20317 4.68198 7.20463 4.76212C7.20895 5.00203 7.24356 5.23719 7.31894 5.46587C7.33551 5.51879 7.34872 5.57266 7.35856 5.62717C7.35977 5.63554 7.35933 5.64405 7.3571 5.65223C7.35494 5.66042 7.35113 5.66803 7.34586 5.67469C6.86464 6.18987 6.49397 6.7763 6.2136 7.42142C6.20465 7.44198 6.1849 7.4579 6.17017 7.47599L6.15359 7.4659Z" fill="#5995A1"/>
<path d="M9.96451 8.01061C9.8109 7.96111 9.66452 7.91543 9.51929 7.8667C9.28598 7.78827 9.04511 7.74347 8.8031 7.70464C8.51975 7.65844 8.23291 7.63725 7.94581 7.64119C7.44484 7.64912 6.96094 7.74169 6.49642 7.93161C6.47375 7.94094 6.46124 7.95382 6.45508 7.97698C6.4474 8.00553 6.43679 8.03332 6.42745 8.06143C6.3724 8.22742 6.25149 8.31474 6.08308 8.33022C5.83878 8.35274 5.67031 8.23288 5.61443 8.04849C5.60503 8.01765 5.58998 7.98783 5.5856 7.95648C5.58001 7.91663 5.55683 7.90191 5.52273 7.89005C5.21455 7.783 4.89932 7.70781 4.57482 7.67044C4.29191 7.6382 4.00653 7.63275 3.72261 7.65419C3.18283 7.69392 2.66376 7.82196 2.15624 8.00382C2.14195 8.00896 2.12722 8.01283 2.09991 8.02114C2.11725 7.95331 2.12932 7.89322 2.14799 7.83529C2.18393 7.72374 2.22343 7.6132 2.26178 7.50267C2.29931 7.3948 2.33665 7.28642 2.37539 7.17906C2.38652 7.14752 2.40046 7.117 2.41705 7.08794C2.4495 7.03229 2.49255 7.00158 2.56469 7.00545C2.83071 7.01916 3.09767 7.01897 3.36324 7.0382C4.03117 7.08636 4.67452 7.2328 5.27189 7.54658C5.38035 7.60369 5.48424 7.66923 5.58902 7.73288C5.6063 7.74334 5.61938 7.76295 5.63062 7.78072C5.66567 7.83624 5.69336 7.89734 5.734 7.94823C5.84196 8.0832 5.98344 8.11956 6.14722 8.07178C6.18773 8.05908 6.2271 8.0429 6.26489 8.02342C6.28584 8.01346 6.30451 7.99931 6.31975 7.98186C6.33493 7.96441 6.34643 7.94398 6.35341 7.9219C6.39196 7.81111 6.47153 7.73275 6.56932 7.67177C6.82797 7.51066 7.10376 7.38725 7.39295 7.29188C7.66538 7.20203 7.94143 7.1269 8.22548 7.08578C8.36347 7.06586 8.50299 7.05507 8.64212 7.04473C8.83898 7.03007 9.03673 7.01878 9.2341 7.00774C9.36898 7.00019 9.50278 7.00901 9.63379 7.04511C9.65474 7.05082 9.66859 7.0599 9.67595 7.08318C9.76981 7.38446 9.86443 7.68548 9.95975 7.9863C9.9614 7.99081 9.96178 7.9957 9.96451 8.01061Z" fill="#155E72"/>
<path d="M10.7326 6.79327C10.7436 6.69492 10.7549 6.59891 10.7649 6.50272C10.7898 6.27004 10.7987 6.0359 10.7914 5.80201C10.7787 5.42517 10.7271 5.05403 10.6268 4.69038C10.4693 4.11931 10.2092 3.60008 9.85749 3.12266C9.57236 2.7356 9.23586 2.40342 8.85109 2.11839C8.33729 1.73768 7.76653 1.47797 7.14579 1.32581C6.71473 1.21917 6.27052 1.1754 5.82689 1.19585C4.96465 1.23627 4.16743 1.48818 3.44267 1.95672C2.755 2.40133 2.21795 2.98877 1.82455 3.70617C1.58248 4.14755 1.42728 4.61989 1.33697 5.11406C1.28245 5.40632 1.2568 5.70322 1.26039 6.00049C1.26374 6.26097 1.2891 6.52068 1.33621 6.7769C1.28687 6.78566 1.23943 6.79701 1.19136 6.80177C1.14215 6.8066 1.12633 6.7906 1.11865 6.74295C1.06826 6.43546 1.04751 6.12384 1.05667 5.81242C1.07109 5.35404 1.14817 4.89974 1.28579 4.46221C1.43509 3.98631 1.66192 3.54887 1.94127 3.13522C2.3334 2.55463 2.84257 2.1038 3.42914 1.72841C3.93025 1.40766 4.47891 1.21641 5.05342 1.08469C5.47597 0.987794 5.90436 0.973897 6.33377 1.00061C7.00627 1.04243 7.64765 1.20721 8.25017 1.51229C8.76784 1.77454 9.23084 2.11148 9.63028 2.53388C10.2501 3.18897 10.6642 3.95511 10.8723 4.83233C10.984 5.30588 11.0219 5.78577 10.9944 6.27086C10.9871 6.39974 10.9654 6.52785 10.9612 6.65666C10.9594 6.71262 10.9309 6.74784 10.9041 6.78699C10.8968 6.79758 10.8747 6.80247 10.8596 6.80228C10.8183 6.8012 10.7773 6.79657 10.7326 6.79327Z" fill="#155E72"/>
<path d="M4.51765 6.85342C4.52851 6.82169 4.51359 6.80818 4.4885 6.79555C4.13428 6.61731 3.7612 6.49098 3.37815 6.39256C3.23845 6.35671 3.09645 6.32911 2.95503 6.30024C2.92963 6.29504 2.91826 6.28418 2.92614 6.26255C2.93783 6.22892 2.95311 6.19662 2.97173 6.16623C3.00882 6.1081 3.04971 6.05239 3.09563 5.98608C3.20549 6.02314 3.32786 6.05931 3.44629 6.10538C3.94346 6.29859 4.42424 6.52416 4.85161 6.84866C4.97094 6.93927 5.08657 7.03496 5.19929 7.13369C5.28464 7.2085 5.36249 7.29181 5.44359 7.37145C5.48912 7.41586 5.53497 7.46028 5.57986 7.50578C5.60787 7.53395 5.63702 7.56212 5.62889 7.61466C5.60514 7.60273 5.58044 7.59708 5.56539 7.58186C5.45108 7.46434 5.31379 7.38033 5.17008 7.30552C4.85955 7.14378 4.5287 7.0354 4.19213 6.94473C3.86566 6.85672 3.53341 6.79187 3.1978 6.75075C3.04406 6.73172 2.88905 6.72252 2.73455 6.7104C2.68826 6.70678 2.66228 6.6642 2.68864 6.62347C2.72153 6.5727 2.75849 6.52435 2.79589 6.47664C2.80154 6.4694 2.81907 6.46928 2.83101 6.46959C3.04457 6.47594 3.25572 6.50335 3.46534 6.54333C3.81607 6.61008 4.15524 6.71623 4.48812 6.84371C4.49784 6.84726 4.50749 6.85006 4.51765 6.85342Z" fill="#5995A1"/>
<path d="M8.98357 5.98376L9.15052 6.27844C9.05711 6.29982 8.97443 6.31803 8.89213 6.3377C8.46113 6.44081 8.03744 6.5655 7.63864 6.76328C7.61324 6.77597 7.58854 6.79006 7.56288 6.80224C7.53723 6.81442 7.53424 6.82933 7.55501 6.85129C7.64975 6.81614 7.74463 6.77946 7.84039 6.74558C8.04474 6.67337 8.25075 6.60598 8.46456 6.56791C8.62707 6.5386 8.78982 6.50776 8.95353 6.49031C9.05514 6.47946 9.1596 6.49113 9.26254 6.49602C9.27727 6.49672 9.29467 6.51359 9.30458 6.52743C9.32998 6.56309 9.35208 6.60116 9.37532 6.63841C9.38605 6.6556 9.39634 6.67311 9.41006 6.69583C9.33449 6.70357 9.2654 6.711 9.19618 6.71766C8.72397 6.76309 8.25735 6.83854 7.79816 6.96094C7.5392 7.02997 7.28893 7.12223 7.04527 7.23061C6.86879 7.3091 6.696 7.39908 6.54683 7.52592C6.51292 7.55479 6.51229 7.55403 6.46936 7.52954C7.1498 6.75668 8.00836 6.27476 8.98357 5.98376Z" fill="#5995A1"/>
</g>
<defs>
<clipPath id="clip0_52_1527">
<rect width="10.7184" height="11.534" fill="white" transform="translate(0.699036 0.349487)"/>
</clipPath>
</defs>
</svg>
