<svg width="49" height="48" viewBox="0 0 49 48" fill="none" xmlns="http://www.w3.org/2000/svg">
<rect x="0.5" width="48" height="48" rx="4" fill="url(#paint0_linear_535_8910)"/>
<g clip-path="url(#clip0_535_8910)">
<path d="M17.6654 33.332H14.9987C14.8219 33.332 14.6523 33.2618 14.5273 33.1368C14.4023 33.0117 14.332 32.8422 14.332 32.6654C14.332 32.4886 14.4023 32.319 14.5273 32.194C14.6523 32.0689 14.8219 31.9987 14.9987 31.9987H17.6654C17.8422 31.9987 18.0117 32.0689 18.1368 32.194C18.2618 32.319 18.332 32.4886 18.332 32.6654C18.332 32.8422 18.2618 33.0117 18.1368 33.1368C18.0117 33.2618 17.8422 33.332 17.6654 33.332ZM39.332 33.332H37.6654C37.4886 33.332 37.319 33.2618 37.194 33.1368C37.0689 33.0117 36.9987 32.8422 36.9987 32.6654C36.9987 32.4886 37.0689 32.319 37.194 32.194C37.319 32.0689 37.4886 31.9987 37.6654 31.9987H38.7787L39.6774 27.2094C39.6654 24.7587 37.572 22.6654 34.9987 22.6654H30.6214L28.5 31.9987H32.332C32.5088 31.9987 32.6784 32.0689 32.8034 32.194C32.9285 32.319 32.9987 32.4886 32.9987 32.6654C32.9987 32.8422 32.9285 33.0117 32.8034 33.1368C32.6784 33.2618 32.5088 33.332 32.332 33.332H27.6654C27.5653 33.3321 27.4666 33.3096 27.3764 33.2663C27.2862 33.223 27.2069 33.1599 27.1445 33.0818C27.082 33.0037 27.0378 32.9125 27.0154 32.8151C26.9929 32.7176 26.9927 32.6163 27.0147 32.5187L29.4387 21.852C29.472 21.7044 29.5546 21.5724 29.6728 21.4779C29.7911 21.3834 29.938 21.332 30.0894 21.332H34.9987C38.3067 21.332 40.9987 24.024 40.9987 27.332L39.9867 32.788C39.9583 32.9409 39.8773 33.079 39.7577 33.1784C39.6381 33.2778 39.4875 33.3321 39.332 33.332Z" fill="white"/>
<path d="M35 36C33.1627 36 31.6667 34.5053 31.6667 32.6667C31.6667 30.828 33.1627 29.3333 35 29.3333C36.8373 29.3333 38.3333 30.828 38.3333 32.6667C38.3333 34.5053 36.8373 36 35 36ZM35 30.6667C33.8973 30.6667 33 31.564 33 32.6667C33 33.7693 33.8973 34.6667 35 34.6667C36.1027 34.6667 37 33.7693 37 32.6667C37 31.564 36.1027 30.6667 35 30.6667ZM20.3333 36C18.496 36 17 34.5053 17 32.6667C17 30.828 18.496 29.3333 20.3333 29.3333C22.1707 29.3333 23.6667 30.828 23.6667 32.6667C23.6667 34.5053 22.1707 36 20.3333 36ZM20.3333 30.6667C19.2307 30.6667 18.3333 31.564 18.3333 32.6667C18.3333 33.7693 19.2307 34.6667 20.3333 34.6667C21.436 34.6667 22.3333 33.7693 22.3333 32.6667C22.3333 31.564 21.436 30.6667 20.3333 30.6667ZM17.6667 21.3333H12.3333C12.1565 21.3333 11.987 21.2631 11.8619 21.1381C11.7369 21.013 11.6667 20.8435 11.6667 20.6667C11.6667 20.4899 11.7369 20.3203 11.8619 20.1953C11.987 20.0702 12.1565 20 12.3333 20H17.6667C17.8435 20 18.013 20.0702 18.1381 20.1953C18.2631 20.3203 18.3333 20.4899 18.3333 20.6667C18.3333 20.8435 18.2631 21.013 18.1381 21.1381C18.013 21.2631 17.8435 21.3333 17.6667 21.3333ZM17.6667 25.3333H11C10.8232 25.3333 10.6536 25.2631 10.5286 25.1381C10.4036 25.013 10.3333 24.8435 10.3333 24.6667C10.3333 24.4899 10.4036 24.3203 10.5286 24.1953C10.6536 24.0702 10.8232 24 11 24H17.6667C17.8435 24 18.013 24.0702 18.1381 24.1953C18.2631 24.3203 18.3333 24.4899 18.3333 24.6667C18.3333 24.8435 18.2631 25.013 18.1381 25.1381C18.013 25.2631 17.8435 25.3333 17.6667 25.3333ZM17.6667 29.3333H9.66667C9.48986 29.3333 9.32029 29.2631 9.19526 29.1381C9.07024 29.013 9 28.8435 9 28.6667C9 28.4899 9.07024 28.3203 9.19526 28.1953C9.32029 28.0702 9.48986 28 9.66667 28H17.6667C17.8435 28 18.013 28.0702 18.1381 28.1953C18.2631 28.3203 18.3333 28.4899 18.3333 28.6667C18.3333 28.8435 18.2631 29.013 18.1381 29.1381C18.013 29.2631 17.8435 29.3333 17.6667 29.3333Z" fill="white"/>
<path d="M27.6654 33.332H22.9987C22.8219 33.332 22.6523 33.2618 22.5273 33.1368C22.4023 33.0117 22.332 32.8422 22.332 32.6654C22.332 32.4886 22.4023 32.319 22.5273 32.194C22.6523 32.0689 22.8219 31.9987 22.9987 31.9987H27.1334L30.1627 18.6654H14.9987C14.8219 18.6654 14.6523 18.5951 14.5273 18.4701C14.4023 18.3451 14.332 18.1755 14.332 17.9987C14.332 17.8219 14.4023 17.6523 14.5273 17.5273C14.6523 17.4023 14.8219 17.332 14.9987 17.332H30.9987C31.0987 17.332 31.1975 17.3544 31.2877 17.3978C31.3778 17.4411 31.4571 17.5041 31.5196 17.5822C31.5821 17.6604 31.6262 17.7515 31.6487 17.849C31.6711 17.9465 31.6714 18.0478 31.6494 18.1454L28.316 32.812C28.2827 32.9597 28.2002 33.0916 28.0819 33.1862C27.9636 33.2807 27.8167 33.3321 27.6654 33.332Z" fill="white"/>
</g>
<defs>
<linearGradient id="paint0_linear_535_8910" x1="15.8" y1="22.2857" x2="55.1194" y2="31.7348" gradientUnits="userSpaceOnUse">
<stop stop-color="#075D70"/>
<stop offset="1" stop-color="#0DB2D6"/>
</linearGradient>
<clipPath id="clip0_535_8910">
<rect width="32" height="32" fill="white" transform="translate(9 8)"/>
</clipPath>
</defs>
</svg>
