<svg width="49" height="48" viewBox="0 0 49 48" fill="none" xmlns="http://www.w3.org/2000/svg">
<rect x="0.5" width="48" height="48" rx="4" fill="url(#paint0_linear_535_8929)"/>
<path fill-rule="evenodd" clip-rule="evenodd" d="M18.9987 17.3346C18.9987 17.1578 19.0689 16.9883 19.194 16.8632C19.319 16.7382 19.4886 16.668 19.6654 16.668H30.332C30.5088 16.668 30.6784 16.7382 30.8034 16.8632C30.9285 16.9883 30.9987 17.1578 30.9987 17.3346V26.068C31.7516 26.2217 32.4283 26.6308 32.9142 27.226C33.4002 27.8213 33.6655 28.5662 33.6654 29.3346V37.3346C33.6654 37.8651 33.4547 38.3738 33.0796 38.7488C32.7045 39.1239 32.1958 39.3346 31.6654 39.3346H18.332C17.8016 39.3346 17.2929 39.1239 16.9178 38.7488C16.5427 38.3738 16.332 37.8651 16.332 37.3346V29.3346C16.3319 28.5662 16.5972 27.8213 17.0832 27.226C17.5691 26.6308 18.2458 26.2217 18.9987 26.068V17.3346ZM20.332 18.0013V26.668C20.332 26.8448 20.2618 27.0143 20.1368 27.1394C20.0117 27.2644 19.8422 27.3346 19.6654 27.3346C19.1349 27.3346 18.6262 27.5453 18.2512 27.9204C17.8761 28.2955 17.6654 28.8042 17.6654 29.3346V37.3346C17.6654 37.5114 17.7356 37.681 17.8606 37.806C17.9857 37.9311 18.1552 38.0013 18.332 38.0013H31.6654C31.8422 38.0013 32.0117 37.9311 32.1368 37.806C32.2618 37.681 32.332 37.5114 32.332 37.3346V29.3346C32.332 28.8042 32.1213 28.2955 31.7462 27.9204C31.3712 27.5453 30.8625 27.3346 30.332 27.3346C30.1552 27.3346 29.9857 27.2644 29.8606 27.1394C29.7356 27.0143 29.6654 26.8448 29.6654 26.668V18.0013H20.332Z" fill="white"/>
<path fill-rule="evenodd" clip-rule="evenodd" d="M16.332 16C16.332 15.4696 16.5427 14.9609 16.9178 14.5858C17.2929 14.2107 17.8016 14 18.332 14H31.6654C32.1958 14 32.7045 14.2107 33.0796 14.5858C33.4547 14.9609 33.6654 15.4696 33.6654 16C33.6654 16.5304 33.4547 17.0391 33.0796 17.4142C32.7045 17.7893 32.1958 18 31.6654 18H18.332C17.8016 18 17.2929 17.7893 16.9178 17.4142C16.5427 17.0391 16.332 16.5304 16.332 16ZM18.332 15.3333C18.1552 15.3333 17.9857 15.4036 17.8606 15.5286C17.7356 15.6536 17.6654 15.8232 17.6654 16C17.6654 16.1768 17.7356 16.3464 17.8606 16.4714C17.9857 16.5964 18.1552 16.6667 18.332 16.6667H31.6654C31.8422 16.6667 32.0117 16.5964 32.1368 16.4714C32.2618 16.3464 32.332 16.1768 32.332 16C32.332 15.8232 32.2618 15.6536 32.1368 15.5286C32.0117 15.4036 31.8422 15.3333 31.6654 15.3333H18.332Z" fill="white"/>
<path fill-rule="evenodd" clip-rule="evenodd" d="M19 14.6693C19 13.7852 19.3512 12.9374 19.9763 12.3122C20.6014 11.6871 21.4493 11.3359 22.3333 11.3359H27.6667C28.5507 11.3359 29.3986 11.6871 30.0237 12.3122C30.6488 12.9374 31 13.7852 31 14.6693H30.3333V15.3359H19.6667C19.4899 15.3359 19.3203 15.2657 19.1953 15.1407C19.0702 15.0157 19 14.8461 19 14.6693ZM20.4467 14.0026H29.5533C29.4154 13.6125 29.1599 13.2748 28.822 13.036C28.4841 12.7972 28.0804 12.6691 27.6667 12.6693H22.3333C21.9196 12.6691 21.5159 12.7972 21.178 13.036C20.8401 13.2748 20.5846 13.6125 20.4467 14.0026ZM21.6667 21.3359C21.6667 21.1591 21.7369 20.9896 21.8619 20.8645C21.987 20.7395 22.1565 20.6693 22.3333 20.6693H27.6667C27.8435 20.6693 28.013 20.7395 28.1381 20.8645C28.2631 20.9896 28.3333 21.1591 28.3333 21.3359C28.3333 21.5127 28.2631 21.6823 28.1381 21.8073C28.013 21.9324 27.8435 22.0026 27.6667 22.0026H22.3333C22.1565 22.0026 21.987 21.9324 21.8619 21.8073C21.7369 21.6823 21.6667 21.5127 21.6667 21.3359ZM21.6667 25.3359C21.6667 25.1591 21.7369 24.9896 21.8619 24.8645C21.987 24.7395 22.1565 24.6693 22.3333 24.6693H27.6667C27.8435 24.6693 28.013 24.7395 28.1381 24.8645C28.2631 24.9896 28.3333 25.1591 28.3333 25.3359C28.3333 25.5127 28.2631 25.6823 28.1381 25.8073C28.013 25.9324 27.8435 26.0026 27.6667 26.0026H22.3333C22.1565 26.0026 21.987 25.9324 21.8619 25.8073C21.7369 25.6823 21.6667 25.5127 21.6667 25.3359Z" fill="white"/>
<path fill-rule="evenodd" clip-rule="evenodd" d="M23 9.33464C23 9.15782 23.0702 8.98826 23.1953 8.86323C23.3203 8.73821 23.4899 8.66797 23.6667 8.66797H26.3333C26.5101 8.66797 26.6797 8.73821 26.8047 8.86323C26.9298 8.98826 27 9.15782 27 9.33464V12.0013C27 12.1781 26.9298 12.3477 26.8047 12.4727C26.6797 12.5977 26.5101 12.668 26.3333 12.668H23.6667C23.4899 12.668 23.3203 12.5977 23.1953 12.4727C23.0702 12.3477 23 12.1781 23 12.0013V9.33464ZM24.3333 10.0013V11.3346H25.6667V10.0013H24.3333Z" fill="white"/>
<defs>
<linearGradient id="paint0_linear_535_8929" x1="15.8" y1="22.2857" x2="55.1194" y2="31.7348" gradientUnits="userSpaceOnUse">
<stop stop-color="#075D70"/>
<stop offset="1" stop-color="#0DB2D6"/>
</linearGradient>
</defs>
</svg>
