<svg width="49" height="48" viewBox="0 0 49 48" fill="none" xmlns="http://www.w3.org/2000/svg">
<rect x="0.5" width="48" height="48" rx="4" fill="url(#paint0_linear_535_8941)"/>
<g clip-path="url(#clip0_535_8941)">
<path d="M32.9987 28.0013C29.3227 28.0013 26.332 25.0106 26.332 21.3346C26.332 17.6586 29.3227 14.668 32.9987 14.668C36.6747 14.668 39.6654 17.6586 39.6654 21.3346C39.6654 25.0106 36.6747 28.0013 32.9987 28.0013ZM32.9987 16.0013C30.0574 16.0013 27.6654 18.3933 27.6654 21.3346C27.6654 24.276 30.0574 26.668 32.9987 26.668C35.94 26.668 38.332 24.276 38.332 21.3346C38.332 18.3933 35.94 16.0013 32.9987 16.0013Z" fill="white"/>
<path d="M24.3867 21.0133C24.3128 21.013 24.2394 21.0008 24.1693 20.9773C22.8555 20.5248 21.7155 19.6735 20.9084 18.5423C20.1013 17.4111 19.6672 16.0563 19.6667 14.6667C19.6667 10.9907 22.6573 8 26.3333 8C27.7229 8.00023 29.0777 8.43421 30.2087 9.24139C31.3398 10.0486 32.1907 11.1887 32.6427 12.5027C32.6712 12.5855 32.6832 12.6731 32.6778 12.7606C32.6725 12.848 32.65 12.9335 32.6116 13.0123C32.5732 13.091 32.5197 13.1614 32.4541 13.2195C32.3885 13.2776 32.3122 13.3221 32.2293 13.3507C32.1465 13.3792 32.0589 13.3912 31.9714 13.3858C31.884 13.3805 31.7985 13.358 31.7197 13.3196C31.641 13.2812 31.5706 13.2277 31.5125 13.1621C31.4544 13.0965 31.4099 13.0202 31.3813 12.9373C31.0199 11.8858 30.3392 10.9734 29.4342 10.3273C28.5293 9.68122 27.4452 9.33374 26.3333 9.33333C23.392 9.33333 21 11.7253 21 14.6667C21.0005 15.7787 21.348 16.8629 21.9941 17.768C22.6401 18.6731 23.5525 19.3541 24.604 19.716C24.7518 19.7686 24.8764 19.8715 24.956 20.0068C25.0355 20.142 25.0649 20.301 25.0389 20.4557C25.013 20.6105 24.9334 20.7512 24.8142 20.8531C24.6949 20.9551 24.5436 21.0118 24.3867 21.0133ZM13.6667 37.3333H9.66667C9.48986 37.3333 9.32029 37.2631 9.19526 37.1381C9.07024 37.013 9 36.8435 9 36.6667V24.6667C9 24.4899 9.07024 24.3203 9.19526 24.1953C9.32029 24.0702 9.48986 24 9.66667 24C14.2013 24 16.5973 25.528 16.6973 25.5933C16.8137 25.6694 16.9034 25.78 16.9539 25.9096C17.0043 26.0391 17.013 26.1812 16.9787 26.316L14.312 36.8307C14.276 36.9745 14.1929 37.1021 14.0759 37.1932C13.959 37.2843 13.8149 37.3336 13.6667 37.3333ZM10.3333 36H13.148L15.5587 26.4933C14.8093 26.1333 13.0413 25.4453 10.3333 25.3453V36Z" fill="white"/>
<path d="M26.3334 39.9987C23.1867 39.9987 17.1027 37.3534 13.756 35.7747C13.6737 35.7395 13.5993 35.688 13.5372 35.6234C13.4752 35.5587 13.4268 35.4823 13.395 35.3985C13.3632 35.3148 13.3486 35.2255 13.3521 35.136C13.3555 35.0465 13.377 34.9586 13.4152 34.8776C13.4534 34.7965 13.5075 34.724 13.5743 34.6644C13.6411 34.6047 13.7193 34.5592 13.8041 34.5304C13.889 34.5016 13.9787 34.4903 14.0681 34.497C14.1574 34.5036 14.2444 34.5283 14.324 34.5694C16.9374 35.8014 23.3387 38.6654 26.3334 38.6654C29.5774 38.6654 37.22 34.856 39.4187 33.724C39.072 33.2707 38.356 32.6654 37 32.6654C35.7694 32.6654 34.2094 33.1574 32.7 33.6347C31.096 34.14 29.436 34.6654 28 34.6654C25.248 34.6654 21.592 33.348 21.4387 33.292C21.3564 33.2621 21.2808 33.2162 21.2162 33.1571C21.1517 33.0979 21.0994 33.0266 21.0624 32.9473C21.0253 32.8679 21.0043 32.782 21.0005 32.6945C20.9967 32.607 21.0101 32.5197 21.04 32.4374C21.07 32.3551 21.1158 32.2795 21.175 32.2149C21.2341 32.1503 21.3054 32.098 21.3848 32.061C21.4642 32.024 21.55 32.003 21.6375 31.9991C21.725 31.9953 21.8124 32.0088 21.8947 32.0387C21.9294 32.052 25.484 33.332 28 33.332C29.2307 33.332 30.7907 32.84 32.3 32.3627C33.904 31.8574 35.564 31.332 37 31.332C40.112 31.332 40.932 33.688 40.9667 33.788C41.0162 33.9376 41.0114 34.0998 40.9531 34.2461C40.8948 34.3924 40.7868 34.5135 40.648 34.588C40.2334 34.8067 30.4534 39.9987 26.3334 39.9987Z" fill="white"/>
<path d="M30.9991 34.1191C30.8223 34.1191 30.6527 34.0489 30.5277 33.9238C30.4027 33.7988 30.3324 33.6292 30.3324 33.4524V32.7858C30.3357 32.3379 30.1864 31.9022 29.9092 31.5503C29.632 31.1985 29.2433 30.9514 28.8071 30.8498L15.9364 27.7418C15.8512 27.7212 15.771 27.684 15.7001 27.6324C15.6293 27.5808 15.5693 27.5158 15.5236 27.441C15.478 27.3662 15.4474 27.2832 15.4339 27.1966C15.4203 27.11 15.4239 27.0216 15.4444 26.9364C15.465 26.8512 15.5022 26.771 15.5538 26.7001C15.6054 26.6293 15.6704 26.5693 15.7452 26.5236C15.82 26.478 15.903 26.4474 15.9896 26.4339C16.0762 26.4203 16.1646 26.4239 16.2498 26.4444L29.1151 29.5511C29.8439 29.7215 30.4931 30.1344 30.9565 30.722C31.4199 31.3097 31.67 32.0374 31.6658 32.7858V33.4524C31.6658 33.6292 31.5955 33.7988 31.4705 33.9238C31.3455 34.0489 31.1759 34.1191 30.9991 34.1191Z" fill="white"/>
</g>
<defs>
<linearGradient id="paint0_linear_535_8941" x1="15.8" y1="22.2857" x2="55.1194" y2="31.7348" gradientUnits="userSpaceOnUse">
<stop stop-color="#075D70"/>
<stop offset="1" stop-color="#0DB2D6"/>
</linearGradient>
<clipPath id="clip0_535_8941">
<rect width="32" height="32" fill="white" transform="translate(9 8)"/>
</clipPath>
</defs>
</svg>
