<svg width="49" height="48" viewBox="0 0 49 48" fill="none" xmlns="http://www.w3.org/2000/svg">
<rect x="0.5" width="48" height="48" rx="4" fill="url(#paint0_linear_535_8920)"/>
<g clip-path="url(#clip0_535_8920)">
<path d="M14.5667 21.3352C14.0014 21.3352 13.4454 21.1098 13.0254 20.6752L9.6067 17.1338C9.3971 16.9171 9.234 16.6598 9.12738 16.3778C9.02077 16.0958 8.97289 15.795 8.9867 15.4938C9.0107 14.8618 9.2947 14.2605 9.76803 13.8418C18.492 6.10449 31.58 6.09782 40.2187 13.8325C40.68 14.2472 40.96 14.8405 40.984 15.4618C41.008 16.0792 40.7894 16.6632 40.3667 17.1058L37.0534 20.5885C36.7146 20.9469 36.2626 21.1773 35.7736 21.241C35.2845 21.3046 34.7886 21.1976 34.3694 20.9378L30.9027 18.7925C30.5346 18.5611 30.2418 18.2277 30.0599 17.8328C29.8781 17.4379 29.8151 16.9986 29.8787 16.5685L30.236 14.0405C26.8597 13.0011 23.2504 12.9904 19.868 14.0098L20.2187 16.6125C20.2781 17.0429 20.2124 17.4814 20.0294 17.8755C19.8464 18.2696 19.5539 18.6028 19.1867 18.8352L15.704 21.0072C15.3631 21.2207 14.969 21.3344 14.5667 21.3352ZM13.9827 19.7485C14.1114 19.8837 14.2829 19.9702 14.4681 19.9933C14.6533 20.0164 14.8408 19.9746 14.9987 19.8752L18.48 17.7032C18.63 17.6068 18.7491 17.4693 18.8231 17.3071C18.8971 17.145 18.9229 16.9649 18.8974 16.7885L18.4734 13.6338C18.452 13.4804 18.4849 13.3242 18.5665 13.1925C18.648 13.0608 18.7731 12.9617 18.92 12.9125C22.9054 11.5778 27.2667 11.5912 31.192 12.9498C31.3382 13.0003 31.4622 13.0999 31.543 13.2318C31.6237 13.3636 31.6561 13.5194 31.6347 13.6725L31.2 16.7552C31.1726 16.9289 31.1963 17.1069 31.2683 17.2674C31.3403 17.4279 31.4574 17.564 31.6054 17.6592L35.072 19.8045C35.3974 20.0058 35.8187 19.9472 36.092 19.6658L39.4014 16.1858C39.4863 16.0965 39.5523 15.9909 39.5954 15.8755C39.6385 15.76 39.6578 15.637 39.652 15.5138C39.6466 15.3835 39.6153 15.2555 39.5599 15.1374C39.5045 15.0192 39.4261 14.9133 39.3294 14.8258C31.1987 7.54449 18.8707 7.55116 10.6534 14.8392C10.5532 14.9286 10.472 15.0372 10.4145 15.1586C10.357 15.28 10.3245 15.4117 10.3187 15.5458C10.3127 15.6672 10.3315 15.7886 10.3739 15.9025C10.4163 16.0164 10.4814 16.1205 10.5654 16.2085L13.9827 19.7485Z" fill="white"/>
<path d="M25.0013 29.3346C22.06 29.3346 19.668 26.9426 19.668 24.0013C19.668 21.06 22.06 18.668 25.0013 18.668C27.9426 18.668 30.3346 21.06 30.3346 24.0013C30.3346 26.9426 27.9426 29.3346 25.0013 29.3346ZM25.0013 20.0013C22.796 20.0013 21.0013 21.796 21.0013 24.0013C21.0013 26.2066 22.796 28.0013 25.0013 28.0013C27.2066 28.0013 29.0013 26.2066 29.0013 24.0013C29.0013 21.796 27.2066 20.0013 25.0013 20.0013ZM33.668 39.864H16.3346C16.1578 39.864 15.9883 39.7937 15.8632 39.6687C15.7382 39.5437 15.668 39.3741 15.668 39.1973V35.4133C15.6694 34.1552 16.1698 32.949 17.0594 32.0594C17.949 31.1698 19.1552 30.6694 20.4133 30.668H29.5906C30.8485 30.6697 32.0543 31.1703 32.9437 32.0599C33.833 32.9495 34.3332 34.1554 34.3346 35.4133V39.1973C34.3346 39.3741 34.2644 39.5437 34.1394 39.6687C34.0144 39.7937 33.8448 39.864 33.668 39.864ZM17.0013 38.5306H33.0013V35.4133C33.0006 34.5086 32.6409 33.6412 32.0012 33.0014C31.3614 32.3617 30.494 32.002 29.5893 32.0013H20.4133C19.5086 32.002 18.6412 32.3617 18.0014 33.0014C17.3617 33.6412 17.002 34.5086 17.0013 35.4133V38.5306Z" fill="white"/>
</g>
<defs>
<linearGradient id="paint0_linear_535_8920" x1="15.8" y1="22.2857" x2="55.1194" y2="31.7348" gradientUnits="userSpaceOnUse">
<stop stop-color="#075D70"/>
<stop offset="1" stop-color="#0DB2D6"/>
</linearGradient>
<clipPath id="clip0_535_8920">
<rect width="32" height="32" fill="white" transform="translate(9 8)"/>
</clipPath>
</defs>
</svg>
