<svg width="22" height="22" viewBox="0 0 22 22" fill="none" xmlns="http://www.w3.org/2000/svg">
<path d="M6.02082 1.8686C6.02082 1.38889 5.62733 1 5.14193 1C4.65654 1 4.26305 1.38889 4.26305 1.8686V3.97227C2.5134 4.21673 1.13115 5.58442 0.897163 7.32902L0.795738 8.08523C0.778543 8.21344 0.7621 8.34172 0.74641 8.47006C0.704791 8.81052 0.976196 9.10695 1.32319 9.10695H20.679C21.026 9.10695 21.2974 8.81052 21.2558 8.47006C21.2401 8.34172 21.2237 8.21343 21.2065 8.08522L21.1051 7.32902C20.8711 5.58444 19.4889 4.21677 17.7392 3.97228V1.8686C17.7392 1.38889 17.3457 1 16.8604 1C16.375 1 15.9815 1.38889 15.9815 1.8686V3.79995C12.6678 3.50829 9.33448 3.50829 6.02082 3.79994V1.8686Z" fill="#FDB858"/>
<path d="M21.4817 11.395C21.4714 11.0864 21.2134 10.8442 20.901 10.8442H1.09897C0.786587 10.8442 0.528587 11.0864 0.518328 11.395C0.448722 13.4885 0.577393 15.5863 0.904026 17.6609C1.1513 19.2313 2.44227 20.4376 4.0427 20.5936L5.44072 20.7298C9.13794 21.0902 12.8621 21.0902 16.5593 20.7298L17.9573 20.5936C19.5577 20.4376 20.8487 19.2313 21.096 17.6609C21.4226 15.5863 21.5513 13.4885 21.4817 11.395Z" fill="#FDB858"/>
</svg>
