<svg width="20" height="20" viewBox="0 0 20 20" fill="none" xmlns="http://www.w3.org/2000/svg">
<path fill-rule="evenodd" clip-rule="evenodd" d="M6.87435 1.66602H13.1243C16.0004 1.66602 18.3327 3.99831 18.3327 6.87435V13.1243C18.3327 16.0004 16.0004 18.3327 13.1243 18.3327H6.87435C3.99831 18.3327 1.66602 16.0004 1.66602 13.1243V6.87435C1.66602 3.99831 3.99831 1.66602 6.87435 1.66602ZM13.1244 16.7702C15.1348 16.7702 16.7702 15.1348 16.7702 13.1244V6.87435C16.7702 4.86393 15.1348 3.22852 13.1244 3.22852H6.87435C4.86393 3.22852 3.22852 4.86393 3.22852 6.87435V13.1244C3.22852 15.1348 4.86393 16.7702 6.87435 16.7702H13.1244Z" fill="white"/>
<path fill-rule="evenodd" clip-rule="evenodd" d="M5.83203 9.9987C5.83203 7.69766 7.69766 5.83203 9.9987 5.83203C12.2997 5.83203 14.1654 7.69766 14.1654 9.9987C14.1654 12.2997 12.2997 14.1654 9.9987 14.1654C7.69766 14.1654 5.83203 12.2997 5.83203 9.9987ZM7.39453 9.9987C7.39453 11.4341 8.56328 12.6029 9.9987 12.6029C11.4341 12.6029 12.6029 11.4341 12.6029 9.9987C12.6029 8.56224 11.4341 7.39453 9.9987 7.39453C8.56328 7.39453 7.39453 8.56224 7.39453 9.9987Z" fill="white"/>
<circle cx="14.479" cy="5.52201" r="0.555208" fill="white"/>
</svg>
