<svg width="24" height="24" viewBox="0 0 24 24" fill="none" xmlns="http://www.w3.org/2000/svg">
<g clip-path="url(#clip0_535_3136)">
<path d="M7.37797 19.2422H4.26797V9.22816H7.37797V19.2422ZM5.81997 7.86216C5.462 7.86413 5.11147 7.75991 4.81273 7.56267C4.51399 7.36543 4.28044 7.08403 4.14163 6.75406C4.00281 6.42409 3.96496 6.06036 4.03286 5.70888C4.10076 5.3574 4.27136 5.03394 4.52309 4.77942C4.77482 4.52489 5.09637 4.35073 5.44708 4.27895C5.79779 4.20717 6.16191 4.241 6.4934 4.37616C6.82488 4.51132 7.10884 4.74174 7.30937 5.03829C7.5099 5.33484 7.61799 5.68418 7.61997 6.04216C7.62105 6.52173 7.43238 6.98225 7.09516 7.32322C6.75793 7.6642 6.29952 7.85794 5.81997 7.86216ZM19.02 19.2422H15.92V14.3682C15.92 13.2062 15.897 11.7162 14.303 11.7162C12.686 11.7162 12.438 12.9782 12.438 14.2842V19.2422H9.32597V9.22816H12.308V10.5942H12.352C12.6502 10.0837 13.0814 9.66377 13.5995 9.37902C14.1176 9.09426 14.7032 8.95538 15.294 8.97716C18.442 8.97716 19.02 11.0492 19.02 13.7422V19.2422Z" fill="#333333"/>
</g>
<defs>
<clipPath id="clip0_535_3136">
<rect width="15" height="15" fill="white" transform="translate(4.01953 4.24219)"/>
</clipPath>
</defs>
</svg>
