<svg width="18" height="20" viewBox="0 0 18 20" fill="none" xmlns="http://www.w3.org/2000/svg">
<path d="M14.8928 2.85762H14.8936C18.1478 6.11178 18.1478 11.3885 14.8936 14.6426L10.3911 19.1451C10.0223 19.5135 9.52237 19.7205 9.00109 19.7205C8.47982 19.7205 7.97986 19.5135 7.61109 19.1451L3.13193 14.666L3.10859 14.6426C-0.145573 11.3885 -0.145573 6.11178 3.10859 2.85762C6.36193 -0.396549 11.6386 -0.396549 14.8928 2.85762ZM3.99193 3.74095C2.66375 5.06931 1.91761 6.87167 1.91761 8.75012C1.91761 10.6286 2.66375 12.4301 3.99193 13.7585L4.01109 13.7785L4.01276 13.7801L8.49443 18.2618C8.62864 18.3958 8.81057 18.4711 9.00026 18.4711C9.18995 18.4711 9.37188 18.3958 9.50609 18.2618L14.0086 13.7585C15.3211 12.4269 16.0539 10.6303 16.0472 8.76065C16.0405 6.89096 15.2948 5.09975 13.9728 3.77762C12.6507 2.45548 10.8596 1.70966 8.9899 1.70279C7.12021 1.69593 5.32363 2.42856 3.99193 3.74095Z" fill="white" stroke="white" stroke-width="0.4"/>
</svg>
