<svg width="24" height="24" viewBox="0 0 24 24" fill="none" xmlns="http://www.w3.org/2000/svg">
<g clip-path="url(#clip0_535_3139)">
<path d="M19.6931 7H4.30604C3.5902 7 3.00781 7.56103 3.00781 8.25062V16.7494C3.00781 17.439 3.5902 18 4.30604 18H19.6931C20.4089 18 20.9913 17.439 20.9913 16.7494V8.25062C20.9913 7.56103 20.4089 7 19.6931 7ZM19.09 7.85569L11.9996 13.2902L4.90916 7.85569H19.09ZM20.103 16.7494C20.103 16.9672 19.9191 17.1443 19.6931 17.1443H4.30604C4.07998 17.1443 3.89607 16.9672 3.89607 16.7494V8.17185L11.5225 14.0181C11.6585 14.1223 11.829 14.1744 11.9996 14.1744C12.1701 14.1744 12.3406 14.1223 12.4766 14.0181L20.103 8.17265V16.7494Z" fill="#333333" stroke="#333333" stroke-width="0.421569"/>
</g>
<defs>
<clipPath id="clip0_535_3139">
<rect width="18" height="11" fill="white" transform="translate(3 7)"/>
</clipPath>
</defs>
</svg>
