<svg width="40" height="40" viewBox="0 0 40 40" fill="none" xmlns="http://www.w3.org/2000/svg">
<path fill-rule="evenodd" clip-rule="evenodd" d="M32.0305 24.6942C27.9635 27.1232 22.6175 26.5862 19.1145 23.0842C14.9775 18.9462 14.9775 12.2392 19.1145 8.10324C23.2515 3.96624 29.9585 3.96624 34.0945 8.10324C37.5975 11.6052 38.1345 16.9482 35.7075 21.0152L35.8675 24.0582C35.8731 24.1642 35.8564 24.2701 35.8184 24.3691C35.7804 24.4682 35.7221 24.5581 35.6471 24.6332C35.5722 24.7082 35.4823 24.7667 35.3833 24.8048C35.2843 24.8429 35.1784 24.8597 35.0725 24.8542L32.0305 24.6942Z" fill="#89BAFF" fill-opacity="0.3"/>
<path d="M30.7987 29.1089C34.6187 23.4819 34.2977 15.7769 29.5707 10.4629C23.9897 4.18792 14.3757 3.62592 8.1007 9.20992C1.8247 14.7919 1.2627 24.4049 6.8457 30.6799C11.5717 35.9939 19.1877 37.2119 25.2207 34.0719L29.5367 34.5519C29.6918 34.5693 29.8489 34.5539 29.9977 34.5066C30.1465 34.4593 30.2837 34.3813 30.4003 34.2776C30.517 34.1738 30.6105 34.0467 30.6748 33.9045C30.7392 33.7622 30.7729 33.608 30.7737 33.4519L30.7987 29.1099V29.1089Z" fill="#408CF7"/>
<path d="M13.3505 17.5669C13.9685 17.5669 14.4705 18.0679 14.4705 18.6869V22.2729C14.4705 22.57 14.3525 22.8549 14.1424 23.0649C13.9324 23.2749 13.6475 23.3929 13.3505 23.3929C13.0534 23.3929 12.7685 23.2749 12.5585 23.0649C12.3485 22.8549 12.2305 22.57 12.2305 22.2729V18.6859C12.2305 18.0679 12.7325 17.5669 13.3505 17.5669ZM18.0145 14.8359C18.6335 14.8359 19.1345 15.3379 19.1345 15.9559V25.0039C19.1345 25.301 19.0165 25.5859 18.8064 25.7959C18.5964 26.0059 18.3115 26.1239 18.0145 26.1239C17.7174 26.1239 17.4325 26.0059 17.2225 25.7959C17.0125 25.5859 16.8945 25.301 16.8945 25.0039V15.9559C16.8945 15.3379 17.3965 14.8359 18.0145 14.8359ZM22.6805 18.4769C23.2985 18.4769 23.8005 18.9789 23.8005 19.5969V21.8369C23.8005 22.134 23.6825 22.4189 23.4724 22.6289C23.2624 22.8389 22.9775 22.9569 22.6805 22.9569C22.3834 22.9569 22.0985 22.8389 21.8885 22.6289C21.6785 22.4189 21.5605 22.134 21.5605 21.8369V19.5969C21.5605 18.9789 22.0625 18.4769 22.6805 18.4769Z" fill="white"/>
</svg>
