<svg width="410" height="353" viewBox="0 0 410 353" fill="none" xmlns="http://www.w3.org/2000/svg">
<path d="M97.2556 69.39C108.752 71.775 120.456 72.446 131.992 70.88C149.773 68.467 173.293 61.732 189.651 43.682C219.271 11 272.917 -21.953 306.754 19.7C340.591 61.352 328.766 108.701 360.282 119.296C391.799 129.891 423.078 168.551 399.805 219.176C371.93 279.81 317.641 240.093 348.216 314.821C363.85 353.033 262.099 358.467 211.819 331.482C165.739 306.751 120.315 371.869 77.1216 330.154C33.9286 288.439 99.8936 237.01 67.0756 208.993C34.2566 180.976 9.70757 163.791 25.3486 113.872C37.0796 76.433 79.5416 65.714 97.2556 69.39Z" fill="#6198A3" fill-opacity="0.25"/>
<path d="M384.393 350.558C381.473 345.619 374.207 327.123 405.839 298.499C406.857 297.577 408.491 298.153 408.697 299.511C410.131 308.979 412.195 338.019 386.668 351.207C385.857 351.626 384.858 351.344 384.393 350.558Z" fill="#3A5A40"/>
<path d="M406.099 303.307C406.099 303.307 402.499 316.897 395.31 327.711C388.121 338.525 385.695 350.876 385.695 350.876" fill="#3A5A40"/>
<path d="M386.24 350.022C387.821 344.638 390.263 325.356 353.393 305.822C352.206 305.193 350.795 306.131 350.927 307.468C351.844 316.789 356.868 344.817 384.24 351.184C385.109 351.386 385.988 350.879 386.24 350.022Z" fill="#3A5A40"/>
<path d="M354.301 310.443C354.301 310.443 360.982 322.462 370.397 330.986C379.812 339.511 385.081 350.636 385.081 350.636" fill="#3A5A40"/>
<path d="M30.9837 350.835C34.5307 344.836 43.3557 322.371 4.93574 287.604C3.69874 286.485 1.71373 287.183 1.46473 288.833C-0.276265 300.333 -2.78427 335.605 28.2217 351.623C29.2067 352.132 30.4187 351.789 30.9837 350.835Z" fill="#3A5A40"/>
<path d="M4.62109 293.443C4.62109 293.443 8.9941 309.949 17.7261 323.085C26.4571 336.22 29.4041 351.221 29.4041 351.221" fill="#3A5A40"/>
<path d="M33.815 350.652C32.234 345.268 29.792 325.986 66.662 306.452C67.849 305.823 69.26 306.761 69.128 308.098C68.211 317.419 63.187 345.447 35.815 351.814C34.946 352.016 34.067 351.509 33.815 350.652Z" fill="#3A5A40"/>
<path d="M65.7527 311.072C65.7527 311.072 59.0717 323.091 49.6567 331.615C40.2417 340.14 34.9727 351.265 34.9727 351.265" fill="#3A5A40"/>
<path d="M358.272 248.785H357.775L357.772 249.283L357.323 344.286L323.346 343.122V249.285V248.785H322.846H310.69C307.533 248.785 305.491 245.202 307.109 242.288L322.086 215.317L337.063 188.347L336.625 188.104L337.063 188.347C338.659 185.472 342.633 185.472 344.229 188.347L359.206 215.317L374.183 242.288C375.801 245.201 373.76 248.785 370.6 248.785H358.272Z" fill="white" stroke="#075D70"/>
<path d="M80.226 102.27L79.793 102.02L80.226 102.27L95.203 76.3282L110.181 50.3862C111.776 47.6245 115.761 47.6245 117.356 50.3862L132.334 76.3282L147.311 102.27C148.905 105.032 146.912 108.483 143.724 108.483H131.481H130.981L130.981 108.983L130.851 322.343H96.555V108.983V108.483H96.055H83.813H83.8128C80.625 108.484 78.6314 105.032 80.226 102.27Z" fill="white" stroke="#075D70"/>
<path d="M157.566 210.201L157.566 210.201L172.543 183.23L172.543 183.23L187.521 156.26L187.521 156.26C189.118 153.385 193.091 153.385 194.688 156.26L195.125 156.017L194.688 156.26L209.666 183.23L224.643 210.201C226.261 213.114 224.219 216.698 221.06 216.698H208.732H208.234L208.232 217.196L207.6 350.924V350.926C207.6 351.074 207.579 351.158 207.562 351.199C207.554 351.218 207.548 351.226 207.546 351.228C207.545 351.23 207.545 351.229 207.545 351.229C207.538 351.234 207.44 351.278 207.138 351.201C206.552 351.051 205.694 350.581 204.664 349.964C204.402 349.807 204.131 349.642 203.854 349.473C203.078 349 202.26 348.502 201.486 348.09C200.463 347.545 199.404 347.087 198.538 347.081L180.02 345.971L180.005 345.97H179.99C179.089 345.97 178.194 346.469 177.413 347.053C176.649 347.624 175.908 348.345 175.277 348.958L175.204 349.03C174.875 349.349 174.581 349.633 174.321 349.861C174.109 350.046 173.942 350.175 173.816 350.252C173.81 350.193 173.806 350.119 173.806 350.028V217.197V216.697H173.306H161.15C157.99 216.697 155.948 213.113 157.566 210.201ZM173.654 350.331C173.654 350.33 173.656 350.33 173.66 350.329C173.656 350.33 173.654 350.331 173.654 350.331Z" fill="white" stroke="#075D70"/>
<path d="M345.544 104.659L346.297 80.0659L344.947 81.9419L344.005 104.697L344.035 104.72C341.209 105.616 340.727 110.522 340.649 112.384C340.632 112.785 340.925 113.132 341.324 113.177L343.632 113.442C344.023 113.487 344.385 113.226 344.465 112.84L344.74 111.527L345.386 113.228C345.487 113.494 345.729 113.682 346.012 113.715L347.336 113.867C347.773 113.917 348.163 113.592 348.184 113.152C348.291 111.025 348.298 105.383 345.544 104.659Z" fill="#F0C66C"/>
<path d="M279.461 23.2788L343.809 31.5148C344.809 31.6428 345.672 32.2768 346.094 33.1928L372.226 89.9678C373.197 92.0778 371.439 94.4228 369.141 94.0818L307.068 84.8798C306.132 84.7408 305.321 84.1578 304.891 83.3138L276.483 27.5058C275.419 25.4118 277.132 22.9808 279.461 23.2788Z" fill="#075D70"/>
<path d="M282.004 179.703H274.074V210.116H282.004V179.703Z" fill="#F0C66C"/>
<path d="M298.585 233.862H257.49C256.27 233.862 255.281 232.873 255.281 231.653V210.993C255.281 209.773 256.27 208.784 257.49 208.784H298.585C299.805 208.784 300.794 209.773 300.794 210.993V231.653C300.795 232.873 299.805 233.862 298.585 233.862Z" fill="#E69724"/>
<path d="M357.624 97.7792C350.293 85.2892 336.43 89.7452 330.003 92.7242L332.09 78.5342C332.766 73.9412 329.241 69.8052 324.599 69.7432L236.105 68.5642C231.271 68.5002 227.427 72.6052 227.809 77.4242L229.004 92.4882C222.377 89.5242 209.046 85.6132 201.906 97.7792C192.796 113.3 215.215 157.19 242.648 146.087C245.388 149.182 248.526 151.92 251.998 154.201C252.075 154.251 252.141 154.293 252.221 154.339C252.934 154.757 256.967 157.103 259.32 158.125C259.455 158.184 259.57 158.241 259.696 158.316C266.784 162.529 275.997 169.454 274.402 176.289L282.228 176.245C282.228 176.245 279.677 166.335 294.947 160.023C295.95 159.696 298.012 158.891 298.465 158.713C298.528 158.688 298.584 158.665 298.646 158.639C305.354 155.771 311.267 151.295 315.865 145.646C343.757 158.273 366.847 113.491 357.624 97.7792ZM210.86 103.185C215.673 94.9862 224.279 96.6412 229.494 98.6602L231.106 118.986C231.713 126.643 234.18 133.762 238.039 139.923C219.123 144.019 204.446 114.113 210.86 103.185ZM320.04 139.541C322.705 134.856 324.576 129.622 325.407 123.977L329.073 99.0522C334.126 96.8942 343.548 94.4582 348.67 103.185C355.247 114.391 339.647 145.551 320.04 139.541Z" fill="#F0C66C"/>
<path d="M228.227 82.688H331.038L330.485 89.449H228.763L228.227 82.688Z" fill="#E69724"/>
<path d="M286.118 183.116H269.962C269.418 183.116 268.977 182.675 268.977 182.131V177.274C268.977 176.73 269.418 176.289 269.962 176.289H286.118C286.662 176.289 287.103 176.73 287.103 177.274V182.131C287.103 182.676 286.662 183.116 286.118 183.116Z" fill="#E69724"/>
<path d="M299.452 43.2471L285.106 63.1911C283.87 64.9101 283.788 67.2031 284.913 68.9971C289.716 76.6501 304.198 96.3151 328.259 100.277C330.192 100.595 332.135 99.7531 333.279 98.1631L347.824 77.9431C348.953 76.3741 349.125 74.3141 348.266 72.5831C344.505 65.0101 332.113 45.0801 304.381 41.1201C302.475 40.8481 300.576 41.6841 299.452 43.2471Z" fill="#045265"/>
<path d="M149.326 297.096L149.153 302.688L141.941 302.652L141.969 297.059L149.326 297.096Z" fill="#F3D6C1"/>
<path d="M141.942 302.652L148.996 302.687C149.103 302.688 149.205 302.699 149.309 302.724C150.316 302.965 156.049 304.411 161.097 307.203C162.352 307.897 161.838 309.816 160.403 309.809L143.299 309.724C142.53 309.72 141.91 309.094 141.914 308.325L141.942 302.652Z" fill="#075D70"/>
<path d="M96.927 308.695L96.755 314.288L89.543 314.252L89.571 308.659L96.927 308.695Z" fill="#F3D6C1"/>
<path d="M89.5407 314.252L96.5947 314.287C96.7017 314.288 96.8037 314.299 96.9077 314.324C97.9147 314.565 103.648 316.011 108.696 318.803C109.951 319.497 109.437 321.416 108.002 321.409L90.8967 321.324C90.1277 321.32 89.5077 320.694 89.5117 319.925L89.5407 314.252Z" fill="#075D70"/>
<path d="M109.53 234L102.569 270.427L88.6248 309.796C88.6248 309.796 87.9208 311.091 89.8568 311.698H97.4398C97.4398 311.698 98.5188 311.46 99.0148 310.526L114.634 281.101L123.676 251.51L144.453 267.259L139.825 298.086C139.825 298.086 139.878 298.966 141.103 298.966C142.328 298.966 149.532 298.966 149.532 298.966C149.532 298.966 150.428 298.705 150.642 297.806L158.754 263.823C158.757 263.81 158.762 263.797 158.767 263.784C158.809 263.668 158.96 263.015 157.731 261.514C156.366 259.845 138.068 237.481 138.068 237.481L109.53 234Z" fill="#F0C66C"/>
<path d="M161.081 196.889L166.451 199.747L182.703 187.478C182.703 187.478 181.141 184.702 181.5 182.461C181.859 180.22 182.519 179.81 182.974 180.18C183.43 180.55 183.376 183.24 184.347 183.752C185.318 184.264 185.742 183.709 186.892 180.669C188.041 177.63 188.546 176.231 189.501 176.197C190.456 176.163 190.347 178.307 190.347 178.307C190.347 178.307 191.186 177.882 191.846 178.294C192.506 178.707 192.238 179.56 192.238 179.56C192.238 179.56 192.787 179.352 193.483 179.914C194.179 180.476 193.75 181.45 193.75 181.45C193.75 181.45 194.944 180.961 194.948 182.718C194.952 184.475 194.108 190.166 186.933 191.533C186.933 191.533 169.944 211.92 167.259 211.897C164.575 211.874 156.832 209.235 156.832 209.235L161.081 196.889Z" fill="#F3D6C1"/>
<path d="M111.722 240.062H106.999C106.795 238.321 106.139 235.604 104.09 233.445C102.066 231.313 99.2107 230.231 95.6067 230.231C89.4277 230.231 86.4527 233.561 85.0447 236.354C84.3767 237.681 84.0067 239.002 83.7987 240.062H78.9047C77.4447 240.062 76.2617 241.246 76.2617 242.705V262.795C76.2617 264.255 77.4457 265.438 78.9047 265.438H111.722C113.182 265.438 114.365 264.254 114.365 262.795V242.705C114.365 241.246 113.182 240.062 111.722 240.062ZM95.6057 233.79C98.1837 233.79 100.164 234.491 101.489 235.876C102.728 237.17 103.216 238.853 103.407 240.062H87.4107C88.0387 237.512 89.9287 233.79 95.6057 233.79Z" fill="#075D70"/>
<path d="M108.369 204.706L102.413 205.943L97.7644 225.768C97.7644 225.768 100.74 226.903 101.897 228.856C103.054 230.809 103.051 232.555 102.485 232.105C102.139 231.83 101.642 231.571 100.947 231.245C100.006 230.804 99.5084 230.199 98.8864 230.33C97.8124 230.557 96.7264 231.211 97.9464 233.322C99.1304 235.37 102.225 235.536 101.553 236.215C99.8434 237.944 98.1714 236.196 98.1714 236.196C98.1714 236.196 97.7404 237.162 96.9694 237.267C96.1984 237.372 95.6914 236.065 95.6914 236.065C95.6914 236.065 95.2334 236.913 94.3384 236.926C93.4444 236.939 93.0604 235.727 93.0604 235.727C93.0604 235.727 91.8764 237.169 90.7494 235.821C89.6224 234.473 87.2754 230.995 91.9174 225.355C91.9174 225.355 91.9414 198.817 94.0194 197.118C96.0974 195.419 103.738 192.497 103.738 192.497L108.369 204.706Z" fill="#F3D6C1"/>
<path d="M108.689 235.3C112.585 236.838 127.458 242.19 139.578 239.492C140.105 239.375 140.477 238.904 140.486 238.365C140.549 234.554 140.953 219.867 143.487 215.009C145.368 211.404 146.471 209.066 147.019 207.857C147.273 207.296 147.913 207.032 148.491 207.243L157.212 210.432C157.824 210.656 158.501 210.34 158.722 209.727L162.88 198.206C163.091 197.621 162.812 196.975 162.242 196.728C159.048 195.343 148.904 191.14 140.808 189.926C131.169 188.48 127.733 178.192 101.658 192.583C101.187 192.843 100.983 193.422 101.189 193.918L105.678 204.712C105.922 205.299 106.589 205.586 107.183 205.359L114.63 202.52C115.529 202.177 116.437 203.001 116.183 203.929L107.993 233.898C107.835 234.478 108.131 235.08 108.689 235.3Z" fill="#075D70"/>
<path d="M148.177 163.14C148.177 163.14 148.385 165.425 150.827 170.279C153.32 175.235 152.521 182.58 148.677 184.019C145.684 185.139 143.541 184.484 143.541 184.484L141.998 192.317L132.405 188.558L133.457 181.907L131.543 166.893L148.177 163.14Z" fill="#F3D6C1"/>
<path d="M150.839 158.563C150.918 157.824 150.214 157.224 149.504 157.442C148.031 157.893 145.168 158.311 140.005 157.621C130.143 156.303 125.064 164.834 125.138 171.016C125.201 176.315 130.871 179.304 132.659 181.527C133.045 182.006 133.773 182.016 134.204 181.577C135.223 180.54 136.646 178.989 136.693 178.376C136.767 177.419 133.97 177.272 133.823 174.402C133.676 171.532 137.503 171.164 138.607 173.372C139.711 175.58 139.196 167.926 141.257 167.19C143.153 166.511 150.163 164.905 150.839 158.563Z" fill="#075D70"/>
<path d="M132.788 187.038C132.788 187.038 130.429 192.814 136.311 194.998C142.193 197.182 142.373 190.194 142.373 190.194L132.788 187.038Z" fill="#F3D6C1"/>
<path d="M174.09 308.198C174.09 309.057 174.733 309.753 175.526 309.753H313.536C323.772 309.753 332.07 302.322 332.07 293.156V287.744C332.07 278.577 323.772 271.147 313.536 271.147H175.526C174.733 271.147 174.09 271.843 174.09 272.702V272.983C174.09 273.837 174.726 274.532 175.515 274.538L177.318 274.552L177.42 306.643L175.526 306.642C174.733 306.642 174.09 307.339 174.09 308.198Z" fill="#075D70"/>
<path d="M269.843 274.419L177.188 274.552L177.289 306.643H270.803C275.613 306.643 279.51 302.425 279.51 297.222V284.877C279.51 279.101 275.182 274.419 269.843 274.419Z" fill="#F9ECDC"/>
<path d="M303.022 292.071V288.827C303.022 287.868 302.245 287.091 301.286 287.091H287.966C287.007 287.091 286.23 287.868 286.23 288.827V292.071C286.23 293.03 287.007 293.807 287.966 293.807H301.286C302.245 293.807 303.022 293.03 303.022 292.071Z" fill="#E69724"/>
<path d="M274.34 279.423H177.418" stroke="#F0C66C" stroke-miterlimit="10" stroke-linecap="round"/>
<path d="M267.35 284.262H177.418" stroke="#F0C66C" stroke-miterlimit="10" stroke-linecap="round"/>
<path d="M274.34 293.021H177.418" stroke="#F0C66C" stroke-miterlimit="10" stroke-linecap="round"/>
<path d="M275.859 302.116H177.418" stroke="#F0C66C" stroke-miterlimit="10" stroke-linecap="round"/>
<path d="M370.524 349.497C370.524 350.421 369.495 351.17 368.226 351.17H147.292C130.905 351.17 117.621 343.177 117.621 333.318V327.497C117.621 317.637 130.905 309.644 147.292 309.644H368.226C369.495 309.644 370.524 310.393 370.524 311.317V311.62C370.524 312.539 369.505 313.286 368.242 313.293L365.355 313.308L365.193 347.826L368.225 347.825C369.495 347.824 370.524 348.573 370.524 349.497Z" fill="#E69724"/>
<path d="M216.217 313.164L365.389 313.307L365.226 347.825H216.969C208.568 347.825 201.758 342.87 201.758 336.757V323.685C201.758 317.874 208.232 313.164 216.217 313.164Z" fill="#F9ECDC"/>
<path d="M179.992 341.517H175.139C173.738 341.517 172.602 340.381 172.602 338.981V324.489C172.602 323.088 173.738 321.952 175.139 321.952H179.992C181.393 321.952 182.529 323.088 182.529 324.489V338.981C182.529 340.382 181.393 341.517 179.992 341.517Z" fill="#075D70"/>
<path d="M164.781 341.605H159.928C158.527 341.605 157.391 340.469 157.391 339.068V324.576C157.391 323.175 158.527 322.039 159.928 322.039H164.781C166.182 322.039 167.318 323.175 167.318 324.576V339.068C167.318 340.469 166.182 341.605 164.781 341.605Z" fill="#075D70"/>
<path d="M218.398 318.545H365.195" stroke="#F0C66C" stroke-miterlimit="10" stroke-linecap="round"/>
<path d="M238.441 330.153H365.281" stroke="#F0C66C" stroke-miterlimit="10" stroke-linecap="round"/>
<path d="M206.578 334.5H365.195" stroke="#F0C66C" stroke-miterlimit="10" stroke-linecap="round"/>
<path d="M213.105 344.283H365.193" stroke="#F0C66C" stroke-miterlimit="10" stroke-linecap="round"/>
<path d="M342.051 269.971C342.051 270.808 341.428 271.487 340.66 271.487H206.925C197.006 271.487 188.965 264.245 188.965 255.312V250.038C188.965 241.105 197.006 233.863 206.925 233.863H340.659C341.427 233.863 342.05 234.541 342.05 235.379V235.653C342.05 236.486 341.433 237.162 340.669 237.169L338.922 237.183L338.824 268.458H340.659C341.428 268.455 342.051 269.134 342.051 269.971Z" fill="#F0C66C"/>
<path d="M248.646 237.051L338.942 237.181L338.844 268.456H249.102C244.017 268.456 239.895 263.966 239.895 258.428V246.584C239.894 241.319 243.813 237.051 248.646 237.051Z" fill="#F9ECDC"/>
<path d="M225.718 262.741H224.783C223.382 262.741 222.246 261.605 222.246 260.204V247.551C222.246 246.15 223.382 245.014 224.783 245.014H225.718C227.119 245.014 228.255 246.15 228.255 247.551V260.204C228.254 261.605 227.119 262.741 225.718 262.741Z" fill="#E69724"/>
<path d="M216.511 262.82H215.576C214.175 262.82 213.039 261.684 213.039 260.283V247.63C213.039 246.229 214.175 245.093 215.576 245.093H216.511C217.912 245.093 219.048 246.229 219.048 247.63V260.284C219.048 261.684 217.912 262.82 216.511 262.82Z" fill="#E69724"/>
<path d="M249.965 241.928H338.823" stroke="#F0C66C" stroke-miterlimit="10" stroke-linecap="round"/>
<path d="M262.102 252.445H338.88" stroke="#F0C66C" stroke-miterlimit="10" stroke-linecap="round"/>
<path d="M242.812 256.384H338.826" stroke="#F0C66C" stroke-miterlimit="10" stroke-linecap="round"/>
<path d="M246.762 265.247H338.823" stroke="#F0C66C" stroke-miterlimit="10" stroke-linecap="round"/>
<path d="M61.3672 350.417C61.3672 351.089 61.9852 351.634 62.7482 351.634H195.478C205.323 351.634 213.303 345.816 213.303 338.64V334.403C213.303 327.226 205.322 321.409 195.478 321.409H62.7482C61.9852 321.409 61.3672 321.954 61.3672 322.626V322.846C61.3672 323.515 61.9792 324.059 62.7382 324.063L64.4722 324.074L64.5702 349.198H62.7492C61.9862 349.199 61.3672 349.744 61.3672 350.417Z" fill="#F0C66C"/>
<path d="M153.471 323.971L64.4727 324.075L64.5707 349.199H154.393C159.012 349.199 162.757 345.897 162.757 341.824V332.159C162.757 327.637 158.599 323.971 153.471 323.971Z" fill="#F9ECDC"/>
<path d="M157.783 327.888H64.5703" stroke="#F0C66C" stroke-miterlimit="10" stroke-linecap="round"/>
<path d="M151.061 331.677H64.5703" stroke="#F0C66C" stroke-miterlimit="10" stroke-linecap="round"/>
<path d="M157.783 338.535H64.5703" stroke="#F0C66C" stroke-miterlimit="10" stroke-linecap="round"/>
<path d="M159.245 345.655H64.5703" stroke="#F0C66C" stroke-miterlimit="10" stroke-linecap="round"/>
<path d="M9.35938 351.627H404.208" stroke="#075D70" stroke-miterlimit="10" stroke-linecap="round"/>
</svg>
