<svg width="19" height="16" viewBox="0 0 19 16" fill="none" xmlns="http://www.w3.org/2000/svg">
<path d="M13.5084 10.1161L16.9814 7.11611L18.4234 7.25011L14.6774 10.4791L15.7854 15.3661L14.5614 14.6231L13.5084 10.1161ZM11.6004 4.21911L10.6274 1.92311L11.1814 0.558105L12.7694 4.32811L11.6004 4.21911ZM5.35038 12.8251L8.50038 10.9251L11.6504 12.8501L10.8254 9.2501L13.6004 6.85011L9.95038 6.5251L8.50038 3.12511L7.05038 6.50011L3.40038 6.82511L6.17538 9.2501L5.35038 12.8251ZM3.82538 14.9231L5.06538 9.61011L0.942383 6.03811L6.37338 5.56811L8.50038 0.558105L10.6274 5.56811L16.0574 6.03811L11.9344 9.61011L13.1754 14.9231L8.50038 12.1021L3.82538 14.9231Z" fill="#075D70"/>
</svg>
