<svg width="24" height="24" viewBox="0 0 24 24" fill="none" xmlns="http://www.w3.org/2000/svg">
<g clip-path="url(#clip0_535_3143)">
<path d="M17.1465 8.53906H14.6966C14.3728 8.53906 14.1106 8.77301 14.1106 9.06136C14.1106 9.3497 14.3728 9.58364 14.6966 9.58364H17.1465C17.5206 9.58364 17.825 9.85498 17.825 10.1882V18.3524C17.825 18.6856 17.5206 18.957 17.1465 18.957H6.85427C6.48019 18.957 6.17593 18.6856 6.17593 18.3524V10.1882C6.17593 9.85498 6.48019 9.58364 6.85427 9.58364H9.00488C9.32861 9.58364 9.5909 9.3497 9.5909 9.06136C9.5909 8.77301 9.32861 8.53906 9.00488 8.53906H6.85427C5.83389 8.53906 5.00391 9.27898 5.00391 10.1882V18.3524C5.00391 19.2616 5.83389 20.0016 6.85427 20.0016H17.1465C18.1669 20.0016 18.997 19.2616 18.997 18.3524V10.1882C18.997 9.27898 18.1669 8.53906 17.1465 8.53906Z" fill="#333333"/>
<path d="M9.18367 7.55074C9.3336 7.55074 9.48354 7.49973 9.59799 7.39772L11.4135 5.77958V14.4507C11.4135 14.739 11.6757 14.973 11.9995 14.973C12.3232 14.973 12.5855 14.739 12.5855 14.4507V5.77951L14.4011 7.39772C14.63 7.60174 15.0009 7.60174 15.2298 7.39772C15.4587 7.1937 15.4587 6.86319 15.2298 6.65917L12.4138 4.14939C12.363 4.10396 12.3028 4.07172 12.2394 4.04619C12.2207 4.03865 12.2022 4.03391 12.1829 4.02819C12.1351 4.01399 12.0866 4.00565 12.0364 4.00278C12.0165 4.00163 11.9977 3.99946 11.9779 4.00012C11.9153 4.00216 11.8532 4.01179 11.7926 4.03227C11.7875 4.034 11.7822 4.03389 11.7772 4.03572C11.7765 4.03595 11.7758 4.03591 11.7751 4.03616C11.7094 4.06046 11.6535 4.09698 11.6034 4.13862C11.5978 4.14319 11.5905 4.14461 11.5851 4.14939L8.76934 6.65917C8.54043 6.86319 8.54043 7.1937 8.76934 7.39772C8.88379 7.49973 9.03373 7.55074 9.18367 7.55074Z" fill="#333333"/>
</g>
<defs>
<clipPath id="clip0_535_3143">
<rect width="14" height="16" fill="white" transform="translate(5 4)"/>
</clipPath>
</defs>
</svg>
