<svg width="20" height="20" viewBox="0 0 20 20" fill="none" xmlns="http://www.w3.org/2000/svg">
<path d="M19.9529 9.99988C19.9529 10.5909 19.6069 11.1239 19.1139 11.6099C18.8189 11.8999 18.4749 12.1779 18.1719 12.4599C17.9299 12.6849 17.7119 12.9059 17.6099 13.1519C17.5029 13.4089 17.4959 13.7279 17.5049 14.0649C17.5159 14.4809 17.5609 14.9199 17.5639 15.3299C17.5699 16.0209 17.4409 16.6339 17.0379 17.0379C16.6339 17.4409 16.0209 17.5699 15.3299 17.5639C14.9199 17.5599 14.4809 17.5159 14.0659 17.5049C13.7289 17.4959 13.4089 17.5029 13.1519 17.6099C12.9059 17.7119 12.6849 17.9299 12.4599 18.1719C12.1779 18.4749 11.8999 18.8189 11.6099 19.1129C11.1239 19.6069 10.5909 19.9529 9.99988 19.9529C9.40888 19.9529 8.87588 19.6069 8.38988 19.1129C8.09988 18.8189 7.82188 18.4749 7.53988 18.1719C7.31488 17.9299 7.09287 17.7119 6.84787 17.6099C6.59087 17.5029 6.27087 17.4959 5.93488 17.5049C5.51888 17.5159 5.07987 17.5599 4.66988 17.5639C3.97888 17.5699 3.36487 17.4409 2.96187 17.0379C2.55787 16.6339 2.42987 16.0209 2.43587 15.3299C2.43887 14.9199 2.48388 14.4809 2.49487 14.0649C2.50388 13.7279 2.49688 13.4089 2.38987 13.1509C2.28787 12.9059 2.06988 12.6849 1.82788 12.4599C1.52588 12.1779 1.18188 11.8999 0.886875 11.6099C0.393875 11.1239 0.046875 10.5909 0.046875 9.99988C0.046875 9.40888 0.393875 8.87588 0.886875 8.38988C1.18188 8.09988 1.52588 7.82188 1.82788 7.53988C2.06988 7.31488 2.28787 7.09387 2.38987 6.84888C2.49688 6.59088 2.50388 6.27187 2.49487 5.93488C2.48388 5.51888 2.43887 5.07987 2.43587 4.66988C2.42987 3.97888 2.55787 3.36588 2.96187 2.96187C3.36487 2.55888 3.97888 2.42987 4.66988 2.43587C5.07987 2.43987 5.51888 2.48388 5.93488 2.49487C6.27087 2.50388 6.59087 2.49688 6.84787 2.38987C7.09287 2.28787 7.31488 2.06988 7.53988 1.82788C7.82188 1.52488 8.09988 1.18088 8.38988 0.886875C8.87588 0.392875 9.40888 0.046875 9.99988 0.046875C10.5909 0.046875 11.1239 0.392875 11.6099 0.886875C11.8999 1.18088 12.1779 1.52488 12.4599 1.82788C12.6849 2.06988 12.9059 2.28787 13.1519 2.38987C13.4089 2.49688 13.7289 2.50388 14.0659 2.49487C14.4809 2.48388 14.9199 2.43987 15.3299 2.43587C16.0209 2.42987 16.6339 2.55888 17.0379 2.96187C17.4409 3.36588 17.5699 3.97888 17.5639 4.66988C17.5609 5.07987 17.5159 5.51888 17.5049 5.93488C17.4959 6.27187 17.5029 6.59087 17.6099 6.84787C17.7119 7.09387 17.9299 7.31488 18.1719 7.53988C18.4749 7.82188 18.8189 8.09988 19.1139 8.38988C19.6069 8.87588 19.9529 9.40888 19.9529 9.99988ZM18.9529 9.99988C18.9529 9.81188 18.8649 9.64488 18.7469 9.48188C18.5829 9.25588 18.3589 9.04488 18.1249 8.83588C17.5419 8.31488 16.9199 7.79588 16.6859 7.23188C16.4439 6.64688 16.5089 5.83287 16.5499 5.05387C16.5669 4.73887 16.5769 4.43188 16.5349 4.15887C16.5059 3.96788 16.4549 3.79388 16.3309 3.66988C16.2059 3.54488 16.0319 3.49388 15.8409 3.46488C15.5679 3.42288 15.2609 3.43287 14.9459 3.44987C14.1669 3.49087 13.3529 3.55588 12.7689 3.31388C12.2039 3.07988 11.6849 2.45888 11.1639 1.87488C10.9549 1.64088 10.7439 1.41688 10.5179 1.25288C10.3549 1.13488 10.1879 1.04688 9.99988 1.04688C9.81287 1.04688 9.64488 1.13488 9.48188 1.25288C9.25588 1.41688 9.04488 1.64088 8.83588 1.87488C8.31488 2.45888 7.79588 3.07988 7.23088 3.31388C6.64687 3.55588 5.83287 3.49087 5.05387 3.44987C4.73887 3.43287 4.43188 3.42288 4.15887 3.46488C3.96688 3.49388 3.79388 3.54488 3.66888 3.66988C3.54388 3.79488 3.49388 3.96788 3.46488 4.15887C3.42288 4.43188 3.43287 4.73887 3.44887 5.05387C3.49088 5.83287 3.55588 6.64687 3.31388 7.23088C3.07988 7.79588 2.45888 8.31488 1.87488 8.83588C1.64088 9.04488 1.41688 9.25588 1.25288 9.48188C1.13488 9.64488 1.04688 9.81188 1.04688 9.99988C1.04688 10.1879 1.13488 10.3549 1.25288 10.5179C1.41688 10.7439 1.64088 10.9549 1.87488 11.1639C2.45888 11.6849 3.07988 12.2039 3.31388 12.7689C3.55588 13.3529 3.49088 14.1669 3.44887 14.9459C3.43287 15.2609 3.42288 15.5679 3.46488 15.8409C3.49388 16.0319 3.54388 16.2059 3.66888 16.3299C3.79388 16.4549 3.96688 16.5059 4.15887 16.5349C4.43188 16.5769 4.73887 16.5669 5.05387 16.5499C5.83287 16.5089 6.64687 16.4439 7.23088 16.6859C7.79588 16.9199 8.31488 17.5409 8.83588 18.1249C9.04488 18.3589 9.25588 18.5829 9.48188 18.7469C9.64488 18.8649 9.81287 18.9529 9.99988 18.9529C10.1879 18.9529 10.3549 18.8649 10.5179 18.7469C10.7439 18.5829 10.9549 18.3589 11.1639 18.1249C11.6849 17.5409 12.2039 16.9199 12.7689 16.6859C13.3529 16.4439 14.1669 16.5089 14.9459 16.5499C15.2609 16.5669 15.5679 16.5769 15.8409 16.5349C16.0319 16.5059 16.2059 16.4549 16.3309 16.3299C16.4549 16.2059 16.5059 16.0319 16.5349 15.8409C16.5769 15.5679 16.5669 15.2609 16.5499 14.9459C16.5089 14.1669 16.4439 13.3529 16.6859 12.7679C16.9199 12.2039 17.5419 11.6849 18.1249 11.1639C18.3589 10.9549 18.5829 10.7439 18.7469 10.5179C18.8649 10.3549 18.9529 10.1879 18.9529 9.99988ZM8.42188 8.23787C8.32759 8.3321 8.21566 8.40683 8.09249 8.4578C7.96932 8.50876 7.83732 8.53497 7.70402 8.53493C7.57072 8.53488 7.43874 8.50858 7.31561 8.45753C7.19247 8.40647 7.0806 8.33166 6.98637 8.23738C6.89215 8.14309 6.81742 8.03116 6.76645 7.90799C6.71549 7.78482 6.68928 7.65282 6.68932 7.51952C6.68937 7.38622 6.71567 7.25424 6.76672 7.1311C6.81778 7.00797 6.89259 6.8961 6.98688 6.80188C7.1773 6.61158 7.43552 6.50473 7.70473 6.50482C7.97394 6.50492 8.23208 6.61195 8.42237 6.80237C8.61267 6.9928 8.71952 7.25102 8.71943 7.52023C8.71933 7.78944 8.6123 8.04758 8.42188 8.23787ZM12.8929 6.39987C12.9872 6.3088 13.1135 6.2584 13.2446 6.25954C13.3757 6.26068 13.5011 6.31326 13.5938 6.40597C13.6865 6.49867 13.7391 6.62408 13.7402 6.75517C13.7414 6.88627 13.691 7.01257 13.5999 7.10688L7.10688 13.5999C7.01257 13.691 6.88627 13.7414 6.75517 13.7402C6.62408 13.7391 6.49867 13.6865 6.40597 13.5938C6.31326 13.5011 6.26068 13.3757 6.25954 13.2446C6.2584 13.1135 6.3088 12.9872 6.39987 12.8929L12.8929 6.39987ZM11.5779 11.7629C11.6722 11.6687 11.7841 11.5939 11.9073 11.543C12.0304 11.492 12.1624 11.4658 12.2957 11.4658C12.429 11.4659 12.561 11.4922 12.6841 11.5432C12.8073 11.5943 12.9192 11.6691 13.0134 11.7634C13.1076 11.8577 13.1823 11.9696 13.2333 12.0928C13.2843 12.2159 13.3105 12.3479 13.3104 12.4812C13.3104 12.6145 13.2841 12.7465 13.233 12.8696C13.182 12.9928 13.1072 13.1047 13.0129 13.1989C12.8224 13.3892 12.5642 13.496 12.295 13.4959C12.0258 13.4958 11.7677 13.3888 11.5774 13.1984C11.3871 13.0079 11.2802 12.7497 11.2803 12.4805C11.2804 12.2113 11.3874 11.9532 11.5779 11.7629Z" fill="black"/>
</svg>
