<svg width="20" height="20" viewBox="0 0 20 20" fill="none" xmlns="http://www.w3.org/2000/svg">
<path fill-rule="evenodd" clip-rule="evenodd" d="M8.65565 6.96413C8.56082 6.9072 8.45257 6.87646 8.34197 6.87505C8.23137 6.87364 8.12238 6.9016 8.02612 6.95609C7.92986 7.01057 7.84978 7.08962 7.79407 7.18518C7.73835 7.28073 7.70899 7.38936 7.70898 7.49996V12.5C7.70899 12.6106 7.73835 12.7192 7.79407 12.8148C7.84978 12.9103 7.92986 12.9894 8.02612 13.0438C8.12238 13.0983 8.23137 13.1263 8.34197 13.1249C8.45257 13.1235 8.56082 13.0927 8.65565 13.0358L12.8223 10.5358C12.9148 10.4803 12.9914 10.4017 13.0445 10.3078C13.0977 10.2139 13.1256 10.1079 13.1256 9.99996C13.1256 9.89207 13.0977 9.78601 13.0445 9.69211C12.9914 9.59821 12.9148 9.51967 12.8223 9.46413L8.65565 6.96413ZM11.2857 9.99996L8.95898 11.3958V8.60413L11.2857 9.99996Z" fill="white"/>
<path fill-rule="evenodd" clip-rule="evenodd" d="M14.1921 3.8678C11.402 3.64954 8.59899 3.64954 5.80881 3.8678L3.94131 4.01446C3.38951 4.05748 2.86796 4.2839 2.45976 4.65768C2.05155 5.03145 1.78016 5.53107 1.68881 6.07696C1.25477 8.67451 1.25477 11.3261 1.68881 13.9236C1.78016 14.4695 2.05155 14.9691 2.45976 15.3429C2.86796 15.7167 3.38951 15.9431 3.94131 15.9861L5.80798 16.1328C8.59881 16.3511 11.4021 16.3511 14.193 16.1328L16.0596 15.9861C16.6115 15.9431 17.133 15.7167 17.5412 15.3429C17.9494 14.9691 18.2208 14.4695 18.3121 13.9236C18.7455 11.3261 18.7455 8.67446 18.3121 6.07696C18.2208 5.53107 17.9494 5.03145 17.5412 4.65768C17.133 4.2839 16.6115 4.05748 16.0596 4.01446L14.1921 3.8678ZM5.90631 5.11446C8.63215 4.90119 11.3705 4.90119 14.0963 5.11446L15.963 5.2603C16.5263 5.30446 16.9871 5.72696 17.0796 6.28363C17.4907 8.74435 17.4907 11.2562 17.0796 13.717C17.0345 13.9877 16.9 14.2356 16.6977 14.4211C16.4953 14.6065 16.2366 14.7189 15.963 14.7403L14.0963 14.8861C11.3705 15.0995 8.63214 15.0995 5.90631 14.8861L4.03965 14.7403C3.76597 14.7189 3.50734 14.6065 3.30496 14.4211C3.10258 14.2356 2.96811 13.9877 2.92298 13.717C2.51187 11.2562 2.51187 8.74435 2.92298 6.28363C2.96811 6.01286 3.10258 5.76499 3.30496 5.57953C3.50734 5.39407 3.76597 5.28168 4.03965 5.2603L5.90631 5.11446Z" fill="white"/>
</svg>
