<svg width="40" height="40" viewBox="0 0 40 40" fill="none" xmlns="http://www.w3.org/2000/svg">
<path opacity="0.3" d="M31.5 15C31.5 12.7909 29.7091 11 27.5 11H6.5C4.29086 11 2.5 12.7909 2.5 15V31C2.5 33.2091 4.29086 35 6.5 35H27.5C29.7091 35 31.5 33.2091 31.5 31V15Z" fill="#F67474"/>
<path d="M37.5 9C37.5 6.79086 35.7091 5 33.5 5H12.5C10.2909 5 8.5 6.79086 8.5 9V25C8.5 27.2091 10.2909 29 12.5 29H33.5C35.7091 29 37.5 27.2091 37.5 25V9Z" fill="#F67474"/>
<path d="M27.0351 17.9368C27.655 17.4626 27.655 16.5374 27.0351 16.0632C25.162 14.6301 23.0704 13.5006 20.8386 12.7168L20.4308 12.5736C19.6508 12.2997 18.8269 12.8215 18.7213 13.6177C18.4262 15.8421 18.4262 18.1579 18.7213 20.3823C18.8269 21.1785 19.6508 21.7003 20.4308 21.4264L20.8386 21.2832C23.0704 20.4994 25.162 19.3699 27.0351 17.9368Z" fill="white"/>
</svg>
