<svg width="22" height="22" viewBox="0 0 22 22" fill="none" xmlns="http://www.w3.org/2000/svg">
<g clip-path="url(#clip0_1036_1417)">
<g clip-path="url(#clip1_1036_1417)">
<path d="M11.0005 4C8.16546 4 5.86719 6.29827 5.86719 9.13333C5.86719 11.0316 6.89778 12.6886 8.42773 13.5763C8.85424 13.8237 9.12132 14.2035 9.13341 14.5856C9.14007 14.7964 9.28727 14.9765 9.49251 15.025C9.71114 15.0767 9.93394 15.1173 10.1603 15.1464C10.3616 15.1723 10.534 15.011 10.534 14.808V11.9078C10.3353 11.8858 10.1406 11.85 9.95098 11.8011C9.70138 11.7369 9.55112 11.4825 9.61537 11.2329C9.67961 10.9833 9.93403 10.833 10.1836 10.8973C10.4442 10.9643 10.7179 11.0001 11.0006 11.0001C11.2834 11.0001 11.5571 10.9643 11.8177 10.8973C12.0673 10.833 12.3217 10.9833 12.3859 11.2329C12.4502 11.4825 12.2999 11.7369 12.0503 11.8011C11.8607 11.85 11.666 11.8858 11.4673 11.9078V14.808C11.4673 15.011 11.6397 15.1723 11.841 15.1464C12.0673 15.1173 12.29 15.0766 12.5086 15.025C12.7138 14.9765 12.861 14.7964 12.8677 14.5856C12.8797 14.2035 13.1468 13.8237 13.5733 13.5763C15.1033 12.6886 16.1339 11.0316 16.1339 9.13333C16.1339 6.29827 13.8356 4 11.0005 4Z" fill="#FCA311"/>
<path fill-rule="evenodd" clip-rule="evenodd" d="M9.14107 15.9153C9.18911 15.6621 9.43332 15.4958 9.68654 15.5438C10.1115 15.6244 10.5503 15.6667 10.9995 15.6667C11.4487 15.6667 11.8876 15.6244 12.3126 15.5438C12.5658 15.4958 12.81 15.6621 12.858 15.9153C12.9061 16.1686 12.7397 16.4128 12.4865 16.4608C12.0045 16.5522 11.5074 16.6 10.9995 16.6C10.4917 16.6 9.9946 16.5522 9.51259 16.4608C9.25937 16.4128 9.09304 16.1686 9.14107 15.9153Z" fill="#FCA311"/>
<path fill-rule="evenodd" clip-rule="evenodd" d="M9.60218 17.4363C9.62899 17.18 9.85853 16.994 10.1149 17.0208C10.4055 17.0512 10.7007 17.0668 10.9996 17.0668C11.2986 17.0668 11.5938 17.0512 11.8844 17.0208C12.1407 16.994 12.3703 17.18 12.3971 17.4363C12.4239 17.6927 12.2379 17.9222 11.9815 17.949C11.6587 17.9828 11.3311 18.0001 10.9996 18.0001C10.6682 18.0001 10.3406 17.9828 10.0177 17.949C9.76142 17.9222 9.57536 17.6927 9.60218 17.4363Z" fill="#FCA311"/>
</g>
</g>
<defs>
<clipPath id="clip0_1036_1417">
<rect width="22" height="22" fill="white"/>
</clipPath>
<clipPath id="clip1_1036_1417">
<rect width="22" height="22" fill="white"/>
</clipPath>
</defs>
</svg>
