<svg width="20" height="20" viewBox="0 0 20 20" fill="none" xmlns="http://www.w3.org/2000/svg">
<path d="M19.9529 10C19.9529 10.591 19.6069 11.124 19.1139 11.61C18.8189 11.9 18.4749 12.178 18.1719 12.46C17.9299 12.685 17.7119 12.906 17.6099 13.152C17.5029 13.409 17.4959 13.728 17.5049 14.065C17.5159 14.481 17.5609 14.92 17.5639 15.33C17.5699 16.021 17.4409 16.634 17.0379 17.038C16.6339 17.441 16.0209 17.57 15.3299 17.564C14.9199 17.56 14.4809 17.516 14.0659 17.505C13.7289 17.496 13.4089 17.503 13.1519 17.61C12.9059 17.712 12.6849 17.93 12.4599 18.172C12.1779 18.475 11.8999 18.819 11.6099 19.113C11.1239 19.607 10.5909 19.953 9.99988 19.953C9.40888 19.953 8.87588 19.607 8.38988 19.113C8.09988 18.819 7.82188 18.475 7.53988 18.172C7.31488 17.93 7.09287 17.712 6.84787 17.61C6.59087 17.503 6.27087 17.496 5.93488 17.505C5.51888 17.516 5.07987 17.56 4.66988 17.564C3.97888 17.57 3.36487 17.441 2.96187 17.038C2.55787 16.634 2.42987 16.021 2.43587 15.33C2.43887 14.92 2.48388 14.481 2.49487 14.065C2.50388 13.728 2.49688 13.409 2.38987 13.151C2.28787 12.906 2.06988 12.685 1.82788 12.46C1.52588 12.178 1.18188 11.9 0.886875 11.61C0.393875 11.124 0.046875 10.591 0.046875 10C0.046875 9.409 0.393875 8.876 0.886875 8.39C1.18188 8.1 1.52588 7.822 1.82788 7.54C2.06988 7.315 2.28787 7.094 2.38987 6.849C2.49688 6.591 2.50388 6.272 2.49487 5.935C2.48388 5.519 2.43887 5.08 2.43587 4.67C2.42987 3.979 2.55787 3.366 2.96187 2.962C3.36487 2.559 3.97888 2.43 4.66988 2.436C5.07987 2.44 5.51888 2.484 5.93488 2.495C6.27087 2.504 6.59087 2.497 6.84787 2.39C7.09287 2.288 7.31488 2.07 7.53988 1.828C7.82188 1.525 8.09988 1.181 8.38988 0.886997C8.87588 0.392997 9.40888 0.0469971 9.99988 0.0469971C10.5909 0.0469971 11.1239 0.392997 11.6099 0.886997C11.8999 1.181 12.1779 1.525 12.4599 1.828C12.6849 2.07 12.9059 2.288 13.1519 2.39C13.4089 2.497 13.7289 2.504 14.0659 2.495C14.4809 2.484 14.9199 2.44 15.3299 2.436C16.0209 2.43 16.6339 2.559 17.0379 2.962C17.4409 3.366 17.5699 3.979 17.5639 4.67C17.5609 5.08 17.5159 5.519 17.5049 5.935C17.4959 6.272 17.5029 6.591 17.6099 6.848C17.7119 7.094 17.9299 7.315 18.1719 7.54C18.4749 7.822 18.8189 8.1 19.1139 8.39C19.6069 8.876 19.9529 9.409 19.9529 10ZM18.9529 10C18.9529 9.812 18.8649 9.645 18.7469 9.482C18.5829 9.256 18.3589 9.045 18.1249 8.836C17.5419 8.315 16.9199 7.796 16.6859 7.232C16.4439 6.647 16.5089 5.833 16.5499 5.054C16.5669 4.739 16.5769 4.432 16.5349 4.159C16.5059 3.968 16.4549 3.794 16.3309 3.67C16.2059 3.545 16.0319 3.494 15.8409 3.465C15.5679 3.423 15.2609 3.433 14.9459 3.45C14.1669 3.491 13.3529 3.556 12.7689 3.314C12.2039 3.08 11.6849 2.459 11.1639 1.875C10.9549 1.641 10.7439 1.417 10.5179 1.253C10.3549 1.135 10.1879 1.047 9.99988 1.047C9.81287 1.047 9.64488 1.135 9.48188 1.253C9.25588 1.417 9.04488 1.641 8.83588 1.875C8.31488 2.459 7.79588 3.08 7.23088 3.314C6.64687 3.556 5.83287 3.491 5.05387 3.45C4.73887 3.433 4.43188 3.423 4.15887 3.465C3.96688 3.494 3.79388 3.545 3.66888 3.67C3.54388 3.795 3.49388 3.968 3.46488 4.159C3.42288 4.432 3.43287 4.739 3.44887 5.054C3.49088 5.833 3.55588 6.647 3.31388 7.231C3.07988 7.796 2.45888 8.315 1.87488 8.836C1.64088 9.045 1.41688 9.256 1.25288 9.482C1.13488 9.645 1.04688 9.812 1.04688 10C1.04688 10.188 1.13488 10.355 1.25288 10.518C1.41688 10.744 1.64088 10.955 1.87488 11.164C2.45888 11.685 3.07988 12.204 3.31388 12.769C3.55588 13.353 3.49088 14.167 3.44887 14.946C3.43287 15.261 3.42288 15.568 3.46488 15.841C3.49388 16.032 3.54388 16.206 3.66888 16.33C3.79388 16.455 3.96688 16.506 4.15887 16.535C4.43188 16.577 4.73887 16.567 5.05387 16.55C5.83287 16.509 6.64687 16.444 7.23088 16.686C7.79588 16.92 8.31488 17.541 8.83588 18.125C9.04488 18.359 9.25588 18.583 9.48188 18.747C9.64488 18.865 9.81287 18.953 9.99988 18.953C10.1879 18.953 10.3549 18.865 10.5179 18.747C10.7439 18.583 10.9549 18.359 11.1639 18.125C11.6849 17.541 12.2039 16.92 12.7689 16.686C13.3529 16.444 14.1669 16.509 14.9459 16.55C15.2609 16.567 15.5679 16.577 15.8409 16.535C16.0319 16.506 16.2059 16.455 16.3309 16.33C16.4549 16.206 16.5059 16.032 16.5349 15.841C16.5769 15.568 16.5669 15.261 16.5499 14.946C16.5089 14.167 16.4439 13.353 16.6859 12.768C16.9199 12.204 17.5419 11.685 18.1249 11.164C18.3589 10.955 18.5829 10.744 18.7469 10.518C18.8649 10.355 18.9529 10.188 18.9529 10ZM8.42188 8.238C8.32759 8.33222 8.21566 8.40695 8.09249 8.45792C7.96932 8.50889 7.83732 8.5351 7.70402 8.53505C7.57072 8.535 7.43874 8.5087 7.31561 8.45765C7.19247 8.40659 7.0806 8.33179 6.98637 8.2375C6.89215 8.14321 6.81742 8.03128 6.76645 7.90811C6.71549 7.78495 6.68928 7.65294 6.68932 7.51964C6.68937 7.38635 6.71567 7.25436 6.76672 7.13123C6.81778 7.00809 6.89259 6.89622 6.98688 6.802C7.1773 6.6117 7.43552 6.50485 7.70473 6.50495C7.97394 6.50504 8.23208 6.61207 8.42237 6.8025C8.61267 6.99292 8.71952 7.25114 8.71943 7.52035C8.71933 7.78956 8.6123 8.0477 8.42188 8.238ZM12.8929 6.4C12.9872 6.30892 13.1135 6.25852 13.2446 6.25966C13.3757 6.2608 13.5011 6.31338 13.5938 6.40609C13.6865 6.49879 13.7391 6.6242 13.7402 6.7553C13.7414 6.88639 13.691 7.0127 13.5999 7.107L7.10688 13.6C7.01257 13.6911 6.88627 13.7415 6.75517 13.7403C6.62408 13.7392 6.49867 13.6866 6.40597 13.5939C6.31326 13.5012 6.26068 13.3758 6.25954 13.2447C6.2584 13.1136 6.3088 12.9873 6.39987 12.893L12.8929 6.4ZM11.5779 11.763C11.6722 11.6688 11.7841 11.594 11.9073 11.5431C12.0304 11.4921 12.1624 11.4659 12.2957 11.4659C12.429 11.466 12.561 11.4923 12.6841 11.5433C12.8073 11.5944 12.9192 11.6692 13.0134 11.7635C13.1076 11.8578 13.1823 11.9697 13.2333 12.0929C13.2843 12.2161 13.3105 12.3481 13.3104 12.4814C13.3104 12.6146 13.2841 12.7466 13.233 12.8698C13.182 12.9929 13.1072 13.1048 13.0129 13.199C12.8224 13.3893 12.5642 13.4961 12.295 13.496C12.0258 13.496 11.7677 13.3889 11.5774 13.1985C11.3871 13.0081 11.2802 12.7499 11.2803 12.4806C11.2804 12.2114 11.3874 11.9533 11.5779 11.763Z" fill="black"/>
</svg>
